<svg width="151" height="42" viewBox="0 0 151 42" fill="none" xmlns="http://www.w3.org/2000/svg">
<path d="M28.6568 12.3398C28.6568 5.88425 23.3052 0.571289 16.7452 0.571289H2.35929C1.09333 0.571289 0 1.65673 0 2.91356C0 4.22752 1.09333 5.31296 2.35929 5.31296H16.7452C20.6582 5.31296 23.8806 8.45503 23.8806 12.3398C23.8806 16.2245 20.6582 19.4237 16.7452 19.4237H2.35929C1.09333 19.4237 0.0575437 20.3949 0 21.6517V21.766V38.219C0 39.4758 1.09333 40.5613 2.35929 40.5613C3.68279 40.5613 4.77613 39.4758 4.77613 38.219V24.1654H16.7452C23.3052 24.1654 28.6568 18.8524 28.6568 12.3398ZM22.2694 28.6785C21.8666 27.9359 21.1185 27.536 20.3129 27.536C18.4715 27.536 17.3782 29.4783 18.2989 30.9637L23.3052 39.4187C23.708 40.1043 24.4561 40.5613 25.2617 40.5613C27.1031 40.5613 28.1964 38.6189 27.2757 37.0765L22.2694 28.6785Z" fill="#EB0808"/>
<path d="M45.3593 5.74167H65.8448C67.1683 5.74167 68.2617 4.65623 68.2617 3.34227C68.2617 2.08544 67.1683 1 65.8448 1H45.3593C44.0933 1 43 2.08544 43 3.34227C43 4.65623 44.0933 5.74167 45.3593 5.74167ZM65.8448 36.2483H47.7761V22.5946H62.7375C64.061 22.5946 65.1543 21.5663 65.1543 20.2523C65.1543 18.9384 64.061 17.8529 62.7375 17.8529H45.3593C44.0933 17.8529 43 18.9384 43 20.2523V38.6477C43 39.9046 44.0933 40.99 45.3593 40.99H65.8448C67.1683 40.99 68.2617 39.9046 68.2617 38.6477C68.2617 37.3338 67.1683 36.2483 65.8448 36.2483Z" fill="#EB0808"/>
<path d="M138.686 17.9955C132.701 16.1103 129.882 14.8534 129.882 11.54C129.882 7.54097 133.046 4.74167 137.592 4.74167C141.218 4.74167 144.267 7.1982 145.073 10.5688C145.361 11.5971 146.281 12.3969 147.375 12.3969C148.986 12.3969 150.079 10.9116 149.677 9.42621C148.353 3.999 143.404 0 137.592 0C130.457 0 125.105 4.97018 125.105 11.54C125.105 18.681 131.838 20.7948 137.19 22.5087C143.347 24.451 146.224 25.765 146.224 29.2498C146.224 34.22 141.966 36.3909 137.823 36.3909C133.794 36.3909 130.399 33.5916 129.594 29.8782C129.364 28.7928 128.385 28.0501 127.234 28.0501C125.738 28.0501 124.587 29.4783 124.933 30.9637C126.256 36.7908 131.55 41.1326 137.823 41.1326C145.418 41.1326 151 36.1624 151 29.2498C151 21.9374 144.152 19.7665 138.686 17.9955Z" fill="#EB0808"/>
<path d="M106.8 0H88.1481C86.9955 0 86 1.11286 86 2.40143C86 3.74857 86.9955 4.86143 88.1481 4.86143H106.8C108.005 4.86143 109 3.74857 109 2.40143C109 1.11286 108.005 0 106.8 0ZM103.97 17.2786H88.1481C86.9955 17.2786 86 18.3914 86 19.7386V38.5986C86 39.8871 86.9955 41 88.1481 41C89.3531 41 90.3485 39.8871 90.3485 38.5986V22.14H103.97C105.175 22.14 106.171 21.0271 106.171 19.7386C106.171 18.3914 105.175 17.2786 103.97 17.2786Z" fill="#EB0808"/>
</svg>
