<svg width="533" height="477" viewBox="0 0 533 477" fill="none" xmlns="http://www.w3.org/2000/svg">
<path d="M386.995 301.065L349.927 281.952C348.626 281.28 348.626 280.19 349.927 279.518L397.233 255.052C398.534 254.38 400.643 254.38 401.944 255.052L439.012 274.166C440.312 274.838 440.312 275.928 439.012 276.6L391.706 301.065C390.405 301.737 388.296 301.737 386.995 301.065Z" fill="#DFDFDF"/>
<path d="M511.907 306.611C537.602 320.188 537.602 342.2 511.907 355.778C486.213 369.355 444.554 369.355 418.86 355.778C393.166 342.201 393.166 320.189 418.861 306.612C444.555 293.035 486.213 293.034 511.907 306.611Z" fill="#DFDFDF"/>
<path d="M383.56 22.1914L389.55 25.2838L124.209 162.385L118.219 159.292L383.56 22.1914Z" fill="#EFEFEF"/>
<path d="M390.237 23.4517L391.703 24.2062L123.369 162.854L121.902 162.097L390.237 23.4517Z" fill="#27DEBE"/>
<path d="M390.237 23.4517L391.703 24.2062L123.369 162.854L121.902 162.097L390.237 23.4517Z" fill="white"/>
<path d="M392.582 24.6616L394.048 25.4165L125.714 164.064L124.248 163.308L392.582 24.6616Z" fill="#27DEBE"/>
<path d="M392.582 24.6616L394.048 25.4165L125.714 164.064L124.248 163.308L392.582 24.6616Z" fill="white"/>
<path d="M151.602 137.737C148.198 135.98 144.933 135.724 142.415 137.027C139.896 138.323 138.51 140.983 138.51 144.505C138.51 145.787 138.702 147.124 139.057 148.475L141.144 147.393C140.928 146.414 140.82 145.442 140.82 144.505C140.82 141.748 141.799 139.729 143.57 138.812C145.341 137.895 147.782 138.151 150.447 139.529C156.392 142.597 161.228 150.095 161.228 156.243C161.228 157.78 160.92 159.089 160.351 160.102C159.888 160.901 159.257 161.522 158.479 161.929C158.418 161.963 158.356 161.991 158.295 162.018C157.771 162.776 157.409 163.638 157.309 164.451C158.133 164.334 158.918 164.086 159.634 163.72C161.136 162.942 162.237 161.687 162.877 160.047C163.316 158.944 163.539 157.663 163.539 156.243C163.539 149.44 158.187 141.135 151.602 137.737Z" fill="#27DEBE"/>
<path d="M175.6 152.22C177.327 151.326 178.727 152.049 178.727 153.835C178.727 155.622 177.327 157.793 175.6 158.685C173.873 159.578 172.473 158.854 172.473 157.07C172.473 155.285 173.873 153.114 175.6 152.22Z" fill="#37464F"/>
<path d="M166.795 129.886C163.391 128.128 160.126 127.873 157.607 129.176C155.089 130.471 153.703 133.132 153.703 136.654C153.703 137.936 153.895 139.273 154.25 140.624L156.337 139.541C156.121 138.563 156.013 137.591 156.013 136.654C156.013 133.897 156.991 131.877 158.762 130.961C160.534 130.044 162.975 130.299 165.64 131.678C171.585 134.745 176.422 142.243 176.422 148.391C176.422 149.928 176.12 151.241 175.543 152.251C175.086 153.053 174.443 153.66 173.672 154.077C173.61 154.111 173.549 154.139 173.488 154.167C172.964 154.925 172.601 155.786 172.502 156.6C173.326 156.482 174.113 156.237 174.827 155.869C176.332 155.095 177.424 153.834 178.07 152.196C178.504 151.091 178.732 149.811 178.732 148.391C178.732 141.589 173.38 133.283 166.795 129.886Z" fill="#27DEBE"/>
<path d="M190.793 144.369C192.52 143.475 193.92 144.198 193.92 145.984C193.92 147.771 192.52 149.942 190.793 150.835C189.066 151.727 187.666 151.004 187.666 149.219C187.666 147.434 189.066 145.263 190.793 144.369Z" fill="#37464F"/>
<path d="M181.993 122.034C178.589 120.277 175.323 120.022 172.805 121.325C170.286 122.62 168.9 125.281 168.9 128.803C168.9 130.084 169.093 131.422 169.447 132.773L171.534 131.69C171.318 130.712 171.21 129.74 171.21 128.803C171.21 126.046 172.188 124.026 173.96 123.11C175.731 122.193 178.173 122.448 180.837 123.826C186.783 126.894 191.619 134.392 191.619 140.54C191.619 142.077 191.317 143.389 190.741 144.4C190.284 145.202 189.641 145.809 188.87 146.226C188.808 146.259 188.747 146.288 188.685 146.316C188.161 147.074 187.799 147.935 187.699 148.748C188.523 148.631 189.31 148.385 190.025 148.018C191.529 147.244 192.622 145.982 193.267 144.344C193.702 143.24 193.929 141.96 193.929 140.54C193.929 133.738 188.577 125.432 181.993 122.034Z" fill="#27DEBE"/>
<path d="M197.186 114.184C193.782 112.426 190.516 112.171 187.998 113.474C185.479 114.77 184.094 117.43 184.094 120.952C184.094 122.234 184.286 123.571 184.64 124.922L186.727 123.839C186.512 122.861 186.404 121.889 186.404 120.952C186.404 118.195 187.381 116.176 189.153 115.259C190.924 114.342 193.366 114.597 196.031 115.976C201.976 119.043 206.812 126.542 206.812 132.689C206.812 134.226 206.51 135.538 205.934 136.549C205.477 137.351 204.834 137.959 204.063 138.375C204.001 138.409 203.94 138.437 203.878 138.465C203.355 139.223 202.992 140.085 202.893 140.898C203.717 140.781 204.503 140.535 205.218 140.167C206.723 139.393 207.815 138.132 208.46 136.494C208.895 135.39 209.122 134.109 209.122 132.689C209.122 125.887 203.771 117.582 197.186 114.184Z" fill="#27DEBE"/>
<path d="M221.182 128.666C222.909 127.772 224.309 128.496 224.309 130.282C224.309 132.068 222.909 134.24 221.182 135.132C219.454 136.024 218.055 135.301 218.055 133.516C218.055 131.732 219.454 129.56 221.182 128.666Z" fill="#37464F"/>
<path d="M212.378 106.332C208.974 104.575 205.708 104.32 203.19 105.622C200.672 106.918 199.285 109.578 199.285 113.1C199.285 114.382 199.478 115.72 199.832 117.071L201.919 115.988C201.704 115.009 201.596 114.037 201.596 113.1C201.596 110.343 202.574 108.324 204.345 107.407C206.117 106.491 208.558 106.746 211.222 108.124C217.168 111.191 222.004 118.69 222.004 124.838C222.004 126.375 221.703 127.687 221.126 128.698C220.669 129.499 220.026 130.107 219.255 130.524C219.193 130.557 219.132 130.586 219.07 130.614C218.547 131.372 218.185 132.233 218.085 133.046C218.909 132.929 219.695 132.684 220.41 132.316C221.915 131.542 223.007 130.281 223.652 128.642C224.087 127.538 224.315 126.258 224.315 124.838C224.315 118.035 218.962 109.73 212.378 106.332Z" fill="#27DEBE"/>
<path d="M236.377 120.815C238.104 119.921 239.504 120.645 239.504 122.431C239.504 124.217 238.104 126.389 236.377 127.281C234.65 128.174 233.25 127.45 233.25 125.665C233.25 123.881 234.65 121.709 236.377 120.815Z" fill="#37464F"/>
<path d="M227.573 98.4816C224.169 96.7238 220.904 96.4693 218.385 97.772C215.867 99.0677 214.48 101.728 214.48 105.25C214.48 106.532 214.673 107.869 215.028 109.22L217.115 108.137C216.899 107.159 216.791 106.187 216.791 105.25C216.791 102.493 217.769 100.473 219.541 99.5567C221.312 98.64 223.753 98.8954 226.417 100.274C232.363 103.341 237.199 110.839 237.199 116.987C237.199 118.524 236.898 119.837 236.322 120.847C235.864 121.649 235.221 122.256 234.45 122.673C234.388 122.707 234.327 122.735 234.265 122.763C233.741 123.521 233.379 124.382 233.279 125.196C234.103 125.078 234.89 124.833 235.605 124.465C237.11 123.691 238.202 122.43 238.848 120.792C239.283 119.687 239.51 118.407 239.51 116.987C239.51 110.185 234.158 101.879 227.573 98.4816Z" fill="#27DEBE"/>
<path d="M251.568 112.964C253.295 112.07 254.695 112.794 254.695 114.58C254.695 116.366 253.295 118.538 251.568 119.43C249.841 120.323 248.441 119.599 248.441 117.814C248.441 116.03 249.841 113.858 251.568 112.964Z" fill="#37464F"/>
<path d="M242.766 90.6301C239.362 88.8722 236.096 88.6178 233.578 89.9204C231.06 91.2161 229.674 93.8762 229.674 97.3982C229.674 98.68 229.866 100.017 230.22 101.368L232.307 100.286C232.092 99.3071 231.984 98.3354 231.984 97.3982C231.984 94.6411 232.962 92.6219 234.733 91.7052C236.505 90.7885 238.946 91.0439 241.61 92.4221C247.556 95.4892 252.392 102.988 252.392 109.136C252.392 110.673 252.091 111.985 251.514 112.995C251.057 113.797 250.414 114.405 249.643 114.821C249.581 114.855 249.52 114.884 249.458 114.911C248.934 115.669 248.573 116.531 248.472 117.344C249.296 117.227 250.083 116.981 250.798 116.613C252.303 115.84 253.395 114.578 254.04 112.94C254.475 111.836 254.703 110.556 254.703 109.136C254.703 102.333 249.35 94.0279 242.766 90.6301Z" fill="#27DEBE"/>
<path d="M266.766 105.113C268.493 104.219 269.893 104.943 269.893 106.729C269.893 108.515 268.493 110.686 266.766 111.579C265.039 112.471 263.639 111.748 263.639 109.963C263.639 108.178 265.039 106.007 266.766 105.113Z" fill="#37464F"/>
<path d="M257.958 82.78C254.554 81.0221 251.288 80.7677 248.77 82.0703C246.251 83.3664 244.865 86.0261 244.865 89.5481C244.865 90.8302 245.058 92.1673 245.412 93.518L247.5 92.436C247.283 91.4573 247.176 90.4853 247.176 89.5481C247.176 86.791 248.154 84.7718 249.925 83.8551C251.697 82.9384 254.138 83.1938 256.802 84.572C262.748 87.6391 267.584 95.1377 267.584 101.286C267.584 102.823 267.276 104.132 266.707 105.145C266.244 105.945 265.613 106.565 264.835 106.971C264.773 107.006 264.712 107.034 264.651 107.061C264.127 107.819 263.764 108.681 263.664 109.494C264.488 109.377 265.274 109.129 265.99 108.764C267.492 107.985 268.593 106.73 269.232 105.09C269.672 103.987 269.895 102.705 269.895 101.286C269.895 94.4831 264.542 86.1778 257.958 82.78Z" fill="#27DEBE"/>
<path d="M281.957 97.2614C283.684 96.3678 285.084 97.0911 285.084 98.8774C285.084 100.663 283.684 102.835 281.957 103.727C280.23 104.62 278.83 103.896 278.83 102.111C278.83 100.327 280.23 98.1554 281.957 97.2614Z" fill="#37464F"/>
<path d="M273.155 74.9283C269.751 73.1708 266.486 72.916 263.967 74.2187C261.449 75.5144 260.062 78.1747 260.062 81.6964C260.062 82.9785 260.255 84.3153 260.61 85.6664L262.697 84.5843C262.481 83.6057 262.373 82.6337 262.373 81.6964C262.373 78.9397 263.351 76.9204 265.122 76.0034C266.894 75.087 269.335 75.3418 271.999 76.7203C277.945 79.7875 282.781 87.2861 282.781 93.4337C282.781 94.9705 282.48 96.2833 281.904 97.2933C281.447 98.0952 280.803 98.7028 280.032 99.1197C279.97 99.1535 279.909 99.182 279.847 99.2092C279.323 99.9675 278.961 100.829 278.861 101.642C279.685 101.525 280.472 101.279 281.187 100.912C282.692 100.138 283.784 98.8766 284.43 97.2383C284.864 96.1341 285.092 94.8536 285.092 93.4337C285.092 86.6311 279.74 78.3264 273.155 74.9283Z" fill="#27DEBE"/>
<path d="M297.15 89.411C298.878 88.5171 300.278 89.2406 300.278 91.0266C300.278 92.8129 298.878 94.9842 297.15 95.8766C295.424 96.7693 294.023 96.0457 294.023 94.261C294.023 92.4763 295.424 90.3049 297.15 89.411Z" fill="#37464F"/>
<path d="M288.348 67.0779C284.945 65.3204 281.679 65.0653 279.161 66.368C276.642 67.6637 275.256 70.324 275.256 73.846C275.256 75.1278 275.449 76.4653 275.803 77.8163L277.89 76.7336C277.674 75.755 277.567 74.7833 277.567 73.846C277.567 71.0893 278.545 69.0697 280.316 68.153C282.087 67.2363 284.528 67.4917 287.193 68.8699C293.138 71.9374 297.975 79.436 297.975 85.5836C297.975 87.1205 297.673 88.4329 297.097 89.4432C296.64 90.2448 295.997 90.8524 295.226 91.2693C295.163 91.3028 295.102 91.3319 295.04 91.3591C294.517 92.1174 294.155 92.9785 294.055 93.7918C294.879 93.6746 295.666 93.4293 296.381 93.0616C297.886 92.2875 298.977 91.0262 299.623 89.3879C300.057 88.2837 300.285 87.0035 300.285 85.5836C300.285 78.781 294.933 70.4757 288.348 67.0779Z" fill="#27DEBE"/>
<path d="M312.348 81.5599C314.075 80.666 315.475 81.3896 315.475 83.1755C315.475 84.9618 314.075 87.1331 312.348 88.0255C310.621 88.9179 309.221 88.1946 309.221 86.4099C309.221 84.6252 310.621 82.4539 312.348 81.5599Z" fill="#37464F"/>
<path d="M303.544 59.2259C300.14 57.4684 296.874 57.2133 294.356 58.5159C291.838 59.8116 290.451 62.472 290.451 65.994C290.451 67.2758 290.644 68.6132 290.998 69.9639L293.085 68.8816C292.869 67.9029 292.762 66.9312 292.762 65.994C292.762 63.2372 293.74 61.2177 295.511 60.301C297.282 59.3843 299.724 59.64 302.388 61.0179C308.334 64.085 313.17 71.5836 313.17 77.7315C313.17 79.2684 312.862 80.578 312.292 81.5908C311.83 82.3906 311.199 83.0105 310.421 83.4173C310.36 83.4517 310.297 83.4799 310.236 83.5071C309.712 84.2654 309.35 85.1265 309.25 85.9398C310.074 85.8228 310.86 85.5747 311.576 85.2096C313.078 84.4307 314.179 83.1761 314.818 81.5358C315.257 80.4329 315.48 79.1515 315.48 77.7315C315.48 70.929 310.128 62.6237 303.544 59.2259Z" fill="#27DEBE"/>
<path d="M327.522 73.7128C329.249 72.8188 330.649 73.5424 330.649 75.3284C330.649 77.1147 329.249 79.286 327.522 80.1787C325.795 81.071 324.395 80.3475 324.395 78.5627C324.395 76.778 325.795 74.6067 327.522 73.7128Z" fill="#37464F"/>
<path d="M318.721 51.3792C315.317 49.6217 312.051 49.3666 309.533 50.6692C307.015 51.9649 305.629 54.6253 305.629 58.1473C305.629 59.4291 305.821 60.7665 306.175 62.1176L308.262 61.0349C308.047 60.0562 307.939 59.0845 307.939 58.1473C307.939 55.3902 308.917 53.371 310.688 52.4543C312.46 51.5376 314.901 51.793 317.565 53.1715C323.511 56.2387 328.347 63.7373 328.347 69.8848C328.347 71.4217 328.046 72.7342 327.47 73.7445C327.012 74.5461 326.369 75.1537 325.598 75.5706C325.536 75.6041 325.475 75.6332 325.413 75.6604C324.89 76.4187 324.528 77.2798 324.427 78.0931C325.252 77.9758 326.039 77.7305 326.753 77.3629C328.258 76.5888 329.35 75.3275 329.996 73.6892C330.431 72.585 330.658 71.3048 330.658 69.8848C330.658 63.0823 325.306 54.777 318.721 51.3792Z" fill="#27DEBE"/>
<path d="M342.717 65.8617C344.444 64.9678 345.844 65.6911 345.844 67.4774C345.844 69.2633 344.444 71.435 342.717 72.3273C340.99 73.2197 339.59 72.4964 339.59 70.7117C339.59 68.9267 340.99 66.7554 342.717 65.8617Z" fill="#37464F"/>
<path d="M333.914 43.5276C330.51 41.7701 327.244 41.515 324.726 42.8177C322.208 44.1137 320.822 46.774 320.822 50.2957C320.822 51.5775 321.014 52.915 321.369 54.2657L323.456 53.1833C323.24 52.2047 323.133 51.233 323.133 50.2957C323.133 47.5387 324.11 45.5194 325.882 44.6027C327.653 43.686 330.094 43.9414 332.758 45.3196C338.704 48.3871 343.541 55.8857 343.541 62.0333C343.541 63.5702 343.233 64.8798 342.663 65.8929C342.201 66.6923 341.569 67.3125 340.792 67.719C340.73 67.7535 340.668 67.7816 340.607 67.8091C340.083 68.5668 339.721 69.4285 339.621 70.2415C340.445 70.1246 341.231 69.8768 341.947 69.5113C343.448 68.7325 344.549 67.4779 345.189 65.8376C345.627 64.7347 345.851 63.4532 345.851 62.0333C345.851 55.2307 340.499 46.9258 333.914 43.5276Z" fill="#27DEBE"/>
<path d="M357.911 58.0102C359.638 57.1162 361.037 57.8395 361.037 59.6258C361.037 61.4118 359.638 63.5834 357.911 64.4758C356.183 65.3681 354.783 64.6449 354.783 62.8598C354.783 61.0754 356.183 58.9038 357.911 58.0102Z" fill="#37464F"/>
<path d="M349.108 35.6771C345.704 33.9195 342.438 33.6644 339.92 34.9671C337.401 36.2628 336.016 38.9231 336.016 42.4451C336.016 43.7269 336.208 45.0644 336.562 46.4154L338.65 45.3334C338.434 44.3547 338.326 43.3824 338.326 42.4451C338.326 39.6884 339.303 37.6688 341.075 36.7521C342.846 35.8354 345.288 36.0908 347.952 37.4694C353.898 40.5362 358.734 48.0348 358.734 54.1827C358.734 55.7196 358.432 57.0321 357.856 58.0423C357.399 58.8443 356.756 59.4515 355.985 59.8685C355.923 59.902 355.862 59.931 355.8 59.9582C355.276 60.7166 354.914 61.5776 354.814 62.391C355.638 62.274 356.425 62.0284 357.14 61.6608C358.645 60.8866 359.737 59.6254 360.382 57.987C360.817 56.8829 361.044 55.6026 361.044 54.1827C361.044 47.3802 355.692 39.0749 349.108 35.6771Z" fill="#27DEBE"/>
<path d="M373.104 50.1591C374.831 49.2651 376.231 49.9887 376.231 51.7747C376.231 53.561 374.831 55.7323 373.104 56.6249C371.377 57.5173 369.977 56.7937 369.977 55.009C369.977 53.2243 371.377 51.053 373.104 50.1591Z" fill="#37464F"/>
<path d="M364.305 27.8257C360.901 26.0678 357.635 25.813 355.117 27.1154C352.599 28.4114 351.213 31.0717 351.213 34.5937C351.213 35.8755 351.405 37.2127 351.759 38.5634L353.847 37.4813C353.631 36.5027 353.523 35.531 353.523 34.5937C353.523 31.8367 354.501 29.8171 356.272 28.9007C358.043 27.984 360.485 28.2388 363.149 29.6173C369.095 32.6845 373.931 40.1831 373.931 46.331C373.931 47.8679 373.629 49.1803 373.054 50.1903C372.596 50.9922 371.953 51.6001 371.183 52.0167C371.12 52.0506 371.059 52.079 370.997 52.1065C370.474 52.8645 370.112 53.7262 370.012 54.5392C370.836 54.4223 371.623 54.1763 372.338 53.8087C373.842 53.0349 374.934 51.7736 375.579 50.1353C376.014 49.0311 376.242 47.7506 376.242 46.331C376.242 39.5281 370.89 31.2235 364.305 27.8257Z" fill="#27DEBE"/>
<path d="M388.299 42.3085C390.026 41.4146 391.426 42.1378 391.426 43.9241C391.426 45.7101 390.026 47.8814 388.299 48.7741C386.572 49.6665 385.172 48.9432 385.172 47.1585C385.172 45.3735 386.572 43.2021 388.299 42.3085Z" fill="#37464F"/>
<path d="M379.497 19.9744C376.092 18.2169 372.827 17.9618 370.308 19.2645C367.79 20.5605 366.404 23.2205 366.404 26.7425C366.404 28.0246 366.597 29.3617 366.951 30.7125L369.038 29.6301C368.822 28.6518 368.715 27.6798 368.715 26.7425C368.715 23.9855 369.692 21.9662 371.464 21.0495C373.235 20.1328 375.676 20.3882 378.341 21.7667C384.286 24.8339 389.123 32.3325 389.123 38.4801C389.123 40.017 388.815 41.3266 388.245 42.3397C387.783 43.1394 387.152 43.7593 386.374 44.1658C386.312 44.2003 386.25 44.2281 386.189 44.2556C385.665 45.0139 385.303 45.875 385.203 46.6883C386.027 46.5714 386.813 46.3232 387.529 45.9581C389.031 45.1792 390.131 43.9246 390.771 42.2844C391.21 41.1815 391.433 39.9 391.433 38.4801C391.433 31.6775 386.081 23.3722 379.497 19.9744Z" fill="#27DEBE"/>
<path d="M231.757 151.193L250.735 141.329C252.14 140.604 253.285 141.119 253.293 142.481C253.301 143.843 252.168 145.534 250.762 146.258L231.759 156.113C230.353 156.837 229.213 156.323 229.213 154.966C229.213 153.608 230.352 151.919 231.757 151.193Z" fill="#EB0808"/>
<path d="M264.206 134.427L283.184 124.563C284.589 123.838 285.734 124.353 285.742 125.715C285.75 127.077 284.617 128.767 283.211 129.492L264.208 139.347C262.802 140.071 261.662 139.557 261.662 138.2C261.662 136.842 262.801 135.153 264.206 134.427Z" fill="#EB0808"/>
<path d="M296.653 117.663L315.631 107.798C317.036 107.073 318.181 107.588 318.189 108.95C318.197 110.312 317.064 112.003 315.658 112.727L296.655 122.582C295.249 123.306 294.109 122.793 294.109 121.435C294.109 120.078 295.248 118.389 296.653 117.663Z" fill="#EB0808"/>
<path d="M329.102 100.898L348.08 91.0335C349.485 90.3078 350.631 90.823 350.639 92.1851C350.647 93.5466 349.514 95.2377 348.108 95.9619L329.105 105.817C327.698 106.541 326.559 106.028 326.559 104.67C326.559 103.312 327.698 101.623 329.102 100.898Z" fill="#EB0808"/>
<path d="M361.55 84.1314L380.528 74.2674C381.933 73.5417 383.078 74.0569 383.086 75.419C383.094 76.7808 381.961 78.4716 380.555 79.1958L361.552 89.0506C360.145 89.7748 359.006 89.2615 359.006 87.9038C359.006 86.5465 360.145 84.8572 361.55 84.1314Z" fill="#EB0808"/>
<path d="M258.888 161.306L258.773 305.451" stroke="#DFDFDF" stroke-width="2" stroke-linecap="round" stroke-linejoin="round"/>
<path d="M291.081 144.671L290.928 288.816" stroke="#DFDFDF" stroke-width="2" stroke-linecap="round" stroke-linejoin="round"/>
<path d="M323.281 128.035L323.09 272.18" stroke="#DFDFDF" stroke-width="2" stroke-linecap="round" stroke-linejoin="round"/>
<path d="M355.48 111.4L355.25 255.545" stroke="#DFDFDF" stroke-width="2" stroke-linecap="round" stroke-linejoin="round"/>
<path d="M306.595 220.415L367.115 189.145C371.148 187.061 374.417 188.439 374.417 192.222C374.417 196.005 371.148 200.761 367.115 202.845L306.595 234.115C302.562 236.198 299.293 234.821 299.293 231.037C299.293 227.255 302.562 222.499 306.595 220.415Z" fill="#EB0808"/>
<path d="M322.48 256.936C322.382 255.524 321.811 254.194 320.663 253.202C319.49 252.189 317.833 251.674 316.25 251.454C313.857 251.122 311.293 251.637 309.078 252.454C307.119 253.176 305.401 254.409 303.834 255.664C303.129 256.229 302.432 256.792 301.68 257.309C301.282 257.583 301.862 258.142 302.249 257.939C303.944 257.046 305.445 255.926 307.09 254.973C308.895 253.928 310.943 253.245 313.074 252.967C315.957 252.59 319.78 253.314 320.578 256.213C320.962 257.605 320.673 259.209 320.382 260.595C320.071 262.075 319.567 263.515 318.872 264.887C317.482 267.628 315.377 270.071 312.815 272.019C310.59 273.71 307.939 275.358 305.031 275.893C302.587 276.343 299.899 276.261 297.621 275.281C296.593 274.839 295.703 274.174 295.088 273.312C294.324 272.241 294.191 270.966 294.158 269.724C294.078 266.683 295.035 263.685 296.601 261.003C299.779 255.56 305.504 251.203 312.004 249.242C312.902 248.971 313.826 248.737 314.743 248.533C315.504 248.363 315.29 247.41 314.52 247.473C310.704 247.784 306.929 249.422 303.847 251.4C300.602 253.484 297.826 256.13 295.755 259.187C293.805 262.066 292.57 265.345 292.391 268.717C292.241 271.542 292.82 274.373 295.579 276.078C297.948 277.542 301.023 277.905 303.833 277.627C307.07 277.307 309.91 275.915 312.488 274.192C315.496 272.181 318.047 269.618 319.818 266.65C321.537 263.768 322.708 260.232 322.48 256.936Z" fill="#F18F8F"/>
<path d="M231.646 183.505L249.327 174.37C250.077 173.982 250.686 174.258 250.686 174.985C250.686 175.713 250.077 176.617 249.327 177.005L231.646 186.14C230.896 186.528 230.287 186.252 230.287 185.525C230.287 184.797 230.896 183.893 231.646 183.505Z" fill="#455A63"/>
<path d="M231.646 190.007L243.84 183.704C244.591 183.316 245.199 183.592 245.199 184.319C245.199 185.047 244.591 185.951 243.84 186.339L231.646 192.642C230.896 193.03 230.287 192.754 230.287 192.027C230.287 191.299 230.896 190.395 231.646 190.007Z" fill="#455A63"/>
<path d="M294.873 182.801L312.553 173.666C313.304 173.278 313.912 173.554 313.912 174.281C313.912 175.009 313.304 175.913 312.553 176.301L294.873 185.436C294.123 185.824 293.514 185.548 293.514 184.821C293.514 184.093 294.123 183.189 294.873 182.801Z" fill="#455A63"/>
<path d="M294.873 189.303L307.066 183C307.817 182.613 308.426 182.888 308.426 183.616C308.426 184.343 307.817 185.248 307.066 185.635L294.873 191.939C294.122 192.326 293.514 192.05 293.514 191.323C293.514 190.595 294.122 189.691 294.873 189.303Z" fill="#455A63"/>
<path d="M328.013 238.783L345.694 229.648C346.445 229.26 347.052 229.536 347.052 230.263C347.052 230.991 346.445 231.895 345.694 232.283L328.013 241.418C327.263 241.806 326.654 241.531 326.654 240.803C326.654 240.075 327.263 239.171 328.013 238.783Z" fill="#455A63"/>
<path d="M328.014 245.285L340.207 238.983C340.958 238.594 341.566 238.87 341.566 239.598C341.566 240.325 340.958 241.229 340.207 241.617L328.014 247.92C327.263 248.308 326.654 248.033 326.654 247.305C326.654 246.577 327.263 245.673 328.014 245.285Z" fill="#455A63"/>
<path d="M398.532 205.905C395.44 207.207 391.085 209.298 389.005 210.497C369.257 221.878 354.171 248.126 355.311 269.123C355.376 270.331 355.499 271.491 355.668 272.61L398.532 250.463L398.532 205.905Z" fill="#219884"/>
<path d="M325.449 131.26L328.291 167.346L359.985 148.246L357.143 112.161L325.449 131.26Z" fill="#BBBABA"/>
<path d="M368.144 145.757C368.144 145.757 366.725 148.318 361.185 151.652C358.072 153.526 333.221 168.485 333.221 168.485L327.249 137.289L358.995 118.175L362.28 136.239C362.811 139.188 363.627 143.475 368.144 145.757Z" fill="#EB0808"/>
<path d="M359.108 118.235L327.278 137.392L326.837 131.836L358.669 112.678L359.108 118.235Z" fill="#27DEBE"/>
<path d="M359.108 118.236L327.278 137.392L326.837 131.836L358.669 112.678L359.108 118.236Z" fill="#219884"/>
<path d="M356.983 133.78C356.717 132.943 356.397 132.131 356.019 131.33C355.978 131.244 355.933 131.154 355.886 131.061C356.179 130.083 356.108 129.104 355.194 128.399C355.057 128.294 354.702 128.19 354.626 128.424C354.383 129.175 354.662 130.004 355.009 130.785C354.783 131.408 354.417 132.012 354.164 132.407C353.85 132.896 353.499 133.373 353.102 133.81C352.623 134.34 351.899 135.11 351.087 135.173C350.552 135.215 350.226 134.938 350.031 134.531C350.254 134.194 350.467 133.853 350.658 133.504C351.052 132.782 351.5 131.862 351.557 131.04C351.606 130.319 351 129.808 350.198 130.021C349.292 130.262 349.064 131.377 348.944 132.104C348.822 132.836 348.85 133.591 349.109 134.298C348.911 134.591 348.722 134.902 348.469 135.161C348.37 135.263 348.261 135.337 348.149 135.419C348.142 135.321 348.105 135.186 348.102 135.15C348.08 134.905 347.646 134.552 347.381 134.768C346.693 135.327 346.616 136.168 346.223 136.884C346.126 137.063 346.015 137.198 345.864 137.34C345.682 137.511 345.656 137.524 345.558 137.317C345.392 136.968 345.266 136.61 345.02 136.298C344.865 136.1 344.397 135.929 344.228 136.209C343.974 136.63 343.835 137.08 343.727 137.538C343.265 137.055 342.513 137.207 342.061 137.657C341.503 138.213 341.099 138.967 340.732 139.637C340.626 139.83 340.531 140.031 340.402 140.212C340.367 140.262 340.329 140.318 340.287 140.369C340.271 140.351 340.25 140.321 340.233 140.245C340.102 139.672 340.099 139.123 340.066 138.541C340.065 138.541 340.063 138.54 340.062 138.54C340.059 138.506 340.064 138.474 340.06 138.441C340.013 138.04 339.04 137.861 339.068 138.33C339.071 138.397 339.073 138.467 339.075 138.537C339.186 140.037 337.997 141.464 336.792 142.372C336.398 142.669 335.417 143.406 334.839 143.191C334.362 143.013 334.351 142.196 334.347 141.826C334.334 140.618 334.66 139.298 335.222 138.21C335.498 137.675 335.872 137.139 336.419 136.798C336.737 136.599 337.203 136.421 337.596 136.523C338.141 136.663 338.127 137.215 338.022 137.623C337.979 137.792 338.292 138.138 338.416 137.893C339.123 136.498 337.68 135.367 336.164 135.958C334.751 136.509 334.103 137.976 333.736 139.23C333.393 140.404 332.987 142.025 333.669 143.17C334.494 144.554 336.289 143.87 337.335 143.141C338.219 142.526 339.033 141.697 339.545 140.758C339.61 140.835 339.679 140.91 339.764 140.977C340.544 141.595 341.154 140.944 341.502 140.319C341.885 139.63 342.256 138.817 342.825 138.236C342.894 138.165 342.991 138.106 343.054 138.033C343.061 138.024 343.061 138.022 343.066 138.015C343.13 138.184 343.165 138.362 343.197 138.537C343.266 138.916 343.304 139.298 343.344 139.68C343.383 140.052 344.181 140.303 344.278 139.849C344.453 139.025 344.486 138.154 344.757 137.35C345.095 137.897 345.517 138.394 346.269 138.058C347.178 137.651 347.185 136.617 347.597 135.862C347.841 136.167 348.21 136.323 348.707 136.055C349.04 135.874 349.292 135.572 349.505 135.286C349.535 135.245 349.562 135.201 349.592 135.16C350.092 135.733 350.848 136.058 351.698 135.855C352.814 135.588 353.644 134.66 354.289 133.85C354.694 133.341 355.18 132.664 355.537 131.939C355.552 131.975 355.57 132.014 355.586 132.049C355.947 132.934 356.247 133.889 356.409 134.819C356.45 135.057 356.481 135.315 356.499 135.578C355.33 135.163 354.028 135.835 353.336 136.72C352.706 137.525 352.599 139.039 353.869 139.433C354.919 139.758 356.029 138.902 356.643 138.237C357.767 137.017 357.436 135.201 356.983 133.78ZM349.882 132.067C349.948 131.758 350.028 131.438 350.18 131.153C350.233 131.053 350.299 130.926 350.389 130.848C350.47 130.779 350.749 130.664 350.726 130.653C350.718 130.648 350.652 131.114 350.619 131.238C350.559 131.463 350.475 131.681 350.392 131.899C350.22 132.354 350.011 132.785 349.779 133.206C349.774 132.758 349.825 132.335 349.882 132.067ZM354.939 138.464C354.464 138.736 353.97 138.961 353.864 138.307C353.691 137.232 355.291 135.823 356.488 136.293C356.45 136.688 356.355 137.072 356.136 137.392C355.845 137.818 355.407 138.197 354.939 138.464Z" fill="#455A63"/>
<path d="M337.571 147.839C337.201 148.766 337.003 149.774 336.448 150.632C336.021 151.292 335.22 151.844 335.173 152.661C335.166 152.773 335.344 153.05 335.49 152.912C336.159 152.277 336.953 151.569 337.396 150.778C337.412 150.749 337.424 150.717 337.44 150.688C337.336 151.602 337.212 152.516 337.179 153.433C337.146 154.377 337.085 155.318 337.029 156.261C336.976 157.171 337.049 158.133 336.921 159.032C336.851 159.492 337.782 159.752 337.898 159.251C337.994 158.831 337.924 158.32 337.94 157.887C337.959 157.38 337.987 156.874 338.016 156.368C338.071 155.426 338.124 154.486 338.159 153.543C338.229 151.697 338.634 149.874 338.48 148.019C338.447 147.621 337.733 147.433 337.571 147.839Z" fill="#455A63"/>
<path d="M345.047 147.427C344.82 147.124 344.528 146.866 344.161 146.706C343.826 146.559 343.239 146.402 342.905 146.627C342.866 146.592 342.825 146.56 342.782 146.552C341.677 146.343 341.008 147.246 340.568 148.026C340.135 148.793 339.878 149.629 339.604 150.452C339.125 151.89 338.774 154.309 340.506 155.233C342.052 156.056 343.692 155.159 344.516 153.949C345.383 152.677 345.793 151.084 345.72 149.589C345.684 148.85 345.517 148.052 345.047 147.427ZM343.831 153.042C343.383 153.876 342.453 154.986 341.261 154.693C340.577 154.525 340.367 153.785 340.299 153.23C340.212 152.515 340.306 151.755 340.51 151.063C340.731 150.315 340.99 149.568 341.309 148.85C341.581 148.239 342.05 147.167 342.892 147.053C342.921 147.079 342.952 147.104 342.986 147.115C343.3 147.225 343.597 147.268 343.782 147.384C343.939 147.481 344.054 147.593 344.164 147.756C344.474 148.214 344.583 148.767 344.623 149.293C344.72 150.572 344.449 151.893 343.831 153.042Z" fill="#455A63"/>
<path d="M362.418 146.224C361.931 145.43 361.638 144.548 361.242 143.717C360.9 142.998 360.506 142.129 359.757 141.675C359.561 141.556 359.171 141.468 359.044 141.727C358.564 142.704 358.231 143.688 358.181 144.717C358.006 144.533 357.821 144.357 357.604 144.202C357.428 144.075 357.111 144.031 356.943 144.189C356.759 144.361 356.636 144.55 356.55 144.751C356.295 144.308 355.969 143.912 355.529 143.637C355.344 143.522 355.03 143.462 354.86 143.633C353.816 144.682 354.251 146.576 354.064 147.866C354.03 148.102 354 148.482 353.804 148.661C353.588 148.858 353.497 148.67 353.342 148.468C353.03 148.059 352.78 147.529 352.655 147.01C352.634 146.849 352.608 146.686 352.579 146.523C352.578 146.512 352.574 146.5 352.573 146.489L352.573 146.489C352.567 146.455 352.563 146.422 352.556 146.388C352.481 145.984 351.493 145.891 351.547 146.367C351.705 147.507 351.652 148.464 351.033 149.483C350.767 149.923 349.66 151.576 349.06 150.659C348.625 149.996 349.132 149.009 349.496 148.422C349.903 147.764 350.498 146.985 351.275 146.654C351.27 146.649 351.264 146.644 351.259 146.639C351.464 146.513 351.245 146.161 351.005 146.183C349.808 146.297 348.891 147.51 348.399 148.4C347.888 149.325 347.577 150.595 348.593 151.357C349.805 152.265 351.041 151.255 351.701 150.324C352.041 149.844 352.346 149.309 352.528 148.757C352.545 148.779 352.558 148.805 352.575 148.826C353.03 149.388 353.933 149.844 354.573 149.231C355.164 148.664 355.093 147.599 355.119 146.88C355.144 146.205 355.057 145.226 355.396 144.54C355.921 145.137 356.169 146.026 356.332 146.705C356.418 147.059 357.236 147.274 357.277 146.804C357.326 146.254 357.218 145.589 357.471 145.07C357.797 145.404 358.053 145.792 358.32 146.168C358.517 146.445 359.325 146.61 359.213 146.088C358.95 144.844 359.218 143.715 359.707 142.584C360.114 143.049 360.36 143.681 360.592 144.19C360.916 144.902 361.186 145.646 361.602 146.321C361.821 146.674 362.696 146.677 362.418 146.224Z" fill="#455A63"/>
<path d="M321.963 133.712C321.786 131.459 323.333 128.614 325.419 127.359C326.5 126.708 327.508 126.622 328.259 126.994L328.264 126.986L330.128 127.848L329.496 129.038C329.501 129.083 329.516 129.12 329.52 129.166C329.699 131.42 328.151 134.265 326.064 135.52C326.059 135.523 326.056 135.524 326.051 135.526L325.336 136.872L323.308 135.935C323.301 135.932 323.293 135.928 323.286 135.925L323.217 135.893L323.222 135.884C322.524 135.537 322.049 134.797 321.963 133.712Z" fill="#37464F"/>
<path d="M331.537 130.086C331.717 132.339 330.169 135.184 328.083 136.44C325.995 137.696 324.159 136.886 323.982 134.633C323.804 132.379 325.351 129.534 327.436 128.278C329.522 127.023 331.359 127.832 331.537 130.086Z" fill="#455A63"/>
<path d="M232.345 254.587L235.189 290.672L266.882 271.572L264.038 235.487L232.345 254.587Z" fill="#C3C2C2"/>
<path d="M275.035 269.084C275.035 269.084 273.616 271.644 268.076 274.979C264.963 276.853 240.112 291.812 240.112 291.812L234.139 260.616L265.885 241.502L269.17 259.566C269.702 262.515 270.518 266.801 275.035 269.084Z" fill="#EB0808"/>
<path d="M266 241.564L234.168 260.719L233.728 255.162L265.562 236.006L266 241.564Z" fill="#EB0808"/>
<path d="M266 241.564L234.168 260.719L233.728 255.162L265.562 236.006L266 241.564Z" fill="#EB0808"/>
<path d="M228.856 257.039C228.678 254.785 230.225 251.941 232.311 250.685C233.393 250.034 234.401 249.948 235.152 250.321L235.157 250.313L237.02 251.175L236.389 252.365C236.394 252.41 236.409 252.446 236.412 252.493C236.591 254.746 235.044 257.591 232.957 258.847C232.952 258.85 232.948 258.851 232.943 258.853L232.228 260.2L230.201 259.262C230.194 259.259 230.186 259.255 230.179 259.252L230.11 259.22L230.115 259.211C229.417 258.864 228.941 258.125 228.856 257.039Z" fill="#37464F"/>
<path d="M238.43 253.412C238.609 255.666 237.062 258.511 234.975 259.767C232.887 261.022 231.052 260.212 230.874 257.959C230.696 255.705 232.243 252.86 234.329 251.605C236.415 250.349 238.251 251.158 238.43 253.412Z" fill="#455A63"/>
<path d="M265.953 257.524C265.969 257.532 265.984 257.54 265.999 257.548C266.021 257.558 266.045 257.566 266.067 257.576C266.029 257.559 265.991 257.541 265.953 257.524Z" fill="#455A63"/>
<path d="M266.765 258.405C266.74 258.306 266.706 258.208 266.656 258.117C266.636 258.081 266.603 258.057 266.58 258.024C266.577 258.013 266.579 258.004 266.574 257.991C266.522 257.846 266.395 257.748 266.249 257.686C266.168 257.633 266.083 257.586 265.994 257.545C265.94 257.52 265.886 257.494 265.828 257.475C265.705 257.436 265.585 257.42 265.466 257.473C265.42 257.488 265.383 257.515 265.356 257.554C265.32 257.603 265.303 257.658 265.307 257.718C265.302 257.777 265.313 257.835 265.322 257.893C265.287 257.958 265.263 258.028 265.245 258.098C265.224 258.179 265.213 258.261 265.207 258.344C265.201 258.416 265.218 258.486 265.239 258.557C265.288 258.727 265.45 258.872 265.617 258.954C265.815 259.051 266.041 259.086 266.262 259.104C266.385 259.114 266.548 259.091 266.646 259.019C266.675 258.993 266.703 258.967 266.732 258.941C266.782 258.879 266.806 258.81 266.804 258.734C266.816 258.626 266.791 258.508 266.765 258.405Z" fill="#455A63"/>
<path d="M263.428 261.54C263.531 261.511 263.633 261.485 263.736 261.464C264.2 261.37 263.81 260.78 263.438 260.824C263.327 260.838 263.219 260.867 263.109 260.889C262.997 260.672 262.887 260.453 262.772 260.241C261.828 258.496 260.716 256.71 259.135 255.364C258.906 255.169 258.375 255.135 258.392 255.519C258.455 256.915 258.208 258.301 257.904 259.662C257.887 259.657 257.875 259.647 257.859 259.64C257.76 259.196 257.623 258.768 257.42 258.378C257.261 258.075 256.559 257.852 256.552 258.354C256.545 258.849 256.677 259.339 256.947 259.72C257.05 260.338 257.083 260.974 257.111 261.558C257.176 262.904 257.129 264.31 256.799 265.626C256.597 266.433 256.188 267.605 255.02 267.283C255.01 267.28 255.002 267.274 254.992 267.271C255.032 267.015 255.063 266.766 255.094 266.55C255.399 264.435 255.959 260.847 252.959 260.042C252.814 260.003 252.642 260.028 252.578 260.166C252.047 261.313 252.137 262.754 252.284 263.967C252.437 265.225 252.849 266.754 254.027 267.575C253.924 267.964 253.755 268.314 253.448 268.534C252.615 269.132 251.361 267.881 250.89 267.379C250.737 267.217 250.363 267.033 250.15 267.233C249.259 268.071 249.304 269.379 249.469 270.6C249.309 270.495 249.089 270.438 248.915 270.526C248.137 270.917 247.951 271.558 247.97 272.261C247.396 271.47 246.664 270.95 245.715 271.592C245.181 271.953 244.884 272.425 244.734 272.955C244.463 272.04 244.109 271.01 243.284 270.424C242.53 269.889 241.433 269.917 240.807 270.581C240.123 271.309 240.012 272.424 240.034 273.343C240.047 273.854 240.105 274.378 240.308 274.862C240.372 275.016 240.467 275.271 240.692 275.285C240.925 275.299 240.979 275.117 240.902 274.942C240.497 274.03 240.727 270.25 242.544 270.802C243.512 271.095 243.774 272.82 243.969 273.577C244.341 275.015 244.809 276.433 245.202 277.867C245.322 278.306 246.216 278.449 246.178 277.888C246.069 276.257 245.026 274.209 246.017 272.674C246.137 272.489 246.45 272.052 246.739 272.126C246.996 272.193 247.216 272.621 247.335 272.812C247.711 273.417 247.951 274.087 248.348 274.681C248.564 275.006 249.318 275.15 249.282 274.612C249.227 273.779 248.524 272.23 249.184 271.468C249.378 271.719 249.559 271.977 249.725 272.25C249.914 272.562 250.705 272.736 250.645 272.204C250.514 271.04 249.973 269.274 250.647 268.145C251.424 268.829 252.454 269.572 253.517 269.379C254.294 269.239 254.646 268.641 254.838 267.975C255.813 268.271 256.805 267.983 257.322 267.08C258.047 265.812 258.116 264.199 258.106 262.799C258.101 262.048 258.096 261.207 257.991 260.388C258.131 260.413 258.281 260.424 258.442 260.418C258.58 260.412 258.706 260.324 258.736 260.202C259.037 258.981 259.286 257.754 259.304 256.506C260.367 257.598 261.181 258.938 261.879 260.209C262.04 260.502 262.2 260.803 262.355 261.108C261.132 261.587 260.117 262.586 260.134 263.837C260.149 264.97 261.332 266.259 262.522 266.577C264.022 266.976 264.51 265.51 264.372 264.451C264.243 263.456 263.872 262.48 263.428 261.54ZM253.11 264.371C252.875 263.253 252.792 261.895 253.217 260.785C254.922 261.611 254.431 264.472 254.251 265.853C254.217 266.114 254.198 266.431 254.166 266.757C253.547 266.119 253.264 265.101 253.11 264.371ZM262.951 265.892C262.372 266.07 261.728 265.357 261.449 264.988C260.512 263.747 261.435 262.479 262.697 261.834C263.045 262.602 263.335 263.393 263.461 264.193C263.537 264.674 263.632 265.683 262.951 265.892Z" fill="#455A63"/>
<path d="M264.323 254.128C263.879 253.123 263.268 252.174 262.641 251.254C262.311 250.768 261.977 250.284 261.667 249.788C261.385 249.337 261.125 248.859 260.814 248.424C260.643 248.185 259.941 248.044 260.001 248.489C260.071 249.006 260.32 249.554 260.562 250.026C260.822 250.535 261.108 251.032 261.399 251.528C261.941 252.456 262.521 253.369 262.946 254.347C263.156 254.828 263.271 255.561 264.026 255.469C264.864 255.368 264.526 254.585 264.323 254.128Z" fill="#455A63"/>
<path d="M424.079 216.976L424.08 216.974L424.026 216.949C424.024 216.948 424.022 216.947 424.02 216.946L414.223 211.863C414.219 211.861 414.215 211.86 414.211 211.857L414.134 211.822L414.132 211.825C407.96 209.025 399.715 209.848 390.838 214.964C373.004 225.241 359.381 248.944 360.41 267.905C360.923 277.356 364.981 283.843 371.129 286.702L371.128 286.704L371.182 286.729C371.185 286.73 371.187 286.731 371.189 286.732L380.989 291.817L380.995 291.82L381.059 291.849L381.061 291.847C387.235 294.655 395.486 293.835 404.371 288.715C422.204 278.437 435.827 254.734 434.798 235.773C434.286 226.322 430.228 219.835 424.079 216.976Z" fill="#37464F"/>
<path d="M380.541 291.6L371.194 286.731L371.185 286.732L371.125 286.699C364.98 283.833 360.924 277.346 360.412 267.908C359.953 259.452 362.414 250.058 366.85 241.337L376.651 246.419C372.205 255.141 369.754 264.534 370.213 272.991C370.715 282.239 374.613 288.647 380.541 291.6Z" fill="#253138"/>
<path d="M389.425 287.393C378.91 287.85 377.199 277.27 376.951 272.7C376.043 255.976 388.564 234.189 404.294 225.126C408.297 222.818 412.202 221.521 415.587 221.373C426.102 220.916 427.814 231.496 428.062 236.066C428.969 252.789 416.447 274.576 400.719 283.641C396.714 285.948 392.809 287.246 389.425 287.393H389.425Z" fill="#F9F9F9"/>
<path d="M404.36 257.654C404.237 257.641 404.117 257.611 404.003 257.561C403.57 257.372 403.321 256.952 403.385 256.515L406.877 232.395C406.959 231.831 407.528 231.426 408.148 231.491C408.769 231.556 409.205 232.066 409.123 232.63L406.061 253.775L420.514 240.624C420.959 240.218 421.675 240.212 422.115 240.61C422.554 241.008 422.55 241.659 422.104 242.065L405.303 257.353C405.049 257.584 404.699 257.69 404.36 257.654Z" fill="#37464F"/>
<path d="M425.977 245.836C426.013 245.871 426.044 245.911 426.065 245.958C426.17 246.179 426.049 246.443 425.794 246.546L404.432 255.264C404.177 255.368 403.885 255.273 403.782 255.052C403.676 254.831 403.798 254.567 404.053 254.463L425.414 245.746C425.616 245.664 425.84 245.706 425.977 245.836Z" fill="#EB0808"/>
<path d="M401.698 258.935C399.224 258.673 398.439 257.01 399.945 255.221C401.45 253.431 404.677 252.192 407.151 252.454C409.624 252.716 410.409 254.379 408.904 256.168C407.398 257.958 404.171 259.196 401.698 258.935Z" fill="#EB0808"/>
<path d="M313.186 327.442L344.492 321.955C345.403 321.795 346.021 322.76 345.406 323.382L324.167 344.906L313.186 327.442Z" fill="#FFA8A7"/>
<path d="M345.403 323.382C346.018 322.76 345.4 321.795 344.489 321.955L338.377 323.026C340.089 323.975 341.065 325.701 340.905 327.498L340.86 327.986L345.403 323.382Z" fill="#253138"/>
<path d="M78.3442 228.724C-25.6568 281.553 -25.6565 367.205 78.3456 420.034C182.348 472.863 350.968 472.864 454.969 420.035C558.97 367.206 558.97 281.554 454.967 228.725C350.966 175.895 182.346 175.895 78.3442 228.724Z" fill="#EFEFEF"/>
<path d="M98.1408 389.446L7.92005 342.83C6.63082 342.164 6.63082 341.084 7.92005 340.418L149.235 267.402C150.524 266.736 152.615 266.736 153.904 267.402L244.125 314.019C245.414 314.685 245.414 315.765 244.125 316.431L102.809 389.446C101.52 390.112 99.4297 390.112 98.1408 389.446Z" fill="#DFDFDF"/>
<path d="M110.034 382.045L130.896 392.824C132.457 393.63 134.988 393.63 136.549 392.824L396.037 258.749C397.598 257.942 397.598 256.635 396.037 255.828L375.01 244.964C373.449 244.158 370.918 244.158 369.358 244.965L110.033 379.123C108.473 379.93 108.473 381.238 110.034 382.045Z" fill="#DFDFDF"/>
<path d="M21.623 338.129L99.3058 377.763L227.638 311.853L149.963 273.162L21.623 338.129Z" fill="black"/>
<path d="M100.193 374.748L25.2583 336.262C27.2158 331.291 27.0689 325.49 24.8535 318.871L99.3089 356.949C99.3089 356.949 100.731 361.149 100.193 374.748Z" fill="white"/>
<path d="M99.3093 356.95L24.8535 318.872C25.519 320.86 25.9612 322.76 26.2229 324.589L100.126 362.775C99.8571 358.755 99.3093 356.95 99.3093 356.95Z" fill="#EBEBEB"/>
<path d="M95.4872 351.517C99.4637 353.56 102.687 358.527 102.687 362.611V375.571C102.687 379.656 99.4637 381.311 95.4872 379.269L21.6358 341.34L21.627 338.129L94.4918 375.315C96.8778 376.54 98.8099 375.547 98.8074 373.096L98.7399 361.085C98.7375 358.635 96.8011 355.654 94.4152 354.429L21.6358 317.227V313.588L95.4872 351.517Z" fill="#253138"/>
<path d="M21.6328 313.596L149.966 248.63L223.811 285.61C227.784 287.651 231.01 292.621 231.01 296.704L231.013 309.666C231.009 311.7 230.211 313.134 228.901 313.807L100.568 379.718C101.878 379.045 102.675 377.611 102.679 375.577L102.691 362.607C102.691 358.525 99.4649 353.555 95.4909 351.514L21.6328 313.596Z" fill="#EB0808"/>
<path d="M100.582 356.295C101.885 358.303 102.692 360.566 102.691 362.606L102.68 375.576C102.676 377.611 101.878 379.045 100.568 379.718L228.902 313.806C230.212 313.133 231.01 311.699 231.014 309.665L231.011 296.703C231.011 294.662 230.204 292.399 228.901 290.391L100.582 356.295Z" fill="#EB0808"/>
<path d="M21.418 305.262L99.5779 345.259L218.558 284.151L140.406 245.098L21.418 305.262Z" fill="#EB0808"/>
<path d="M21.418 305.262L99.5779 345.259L218.558 284.151L140.406 245.098L21.418 305.262Z" fill="white"/>
<path d="M21.418 305.262L99.5779 345.259L218.558 284.151L140.406 245.098L21.418 305.262Z" fill="#EB0808"/>
<path d="M100.396 342.464L24.7837 303.532C26.5985 298.923 26.4621 293.545 24.4082 287.408L99.5767 325.962C99.5767 325.962 100.895 329.856 100.396 342.464Z" fill="white"/>
<path d="M99.5764 325.962L24.4082 287.408C25.0737 289.397 25.5162 291.297 25.7776 293.126L100.353 331.658C100.084 327.639 99.5764 325.962 99.5764 325.962Z" fill="#EBEBEB"/>
<path d="M96.0341 320.925C99.7209 322.819 102.709 327.424 102.709 331.211V343.226C102.709 347.013 99.7209 348.548 96.0341 346.655L21.4261 308.239L21.418 305.262L95.1118 342.988C97.3237 344.124 99.1152 343.203 99.1127 340.931L99.0495 329.796C99.0477 327.524 97.2527 324.761 95.0405 323.625L21.4261 285.882V282.509L96.0341 320.925Z" fill="#EB0808"/>
<path d="M21.4297 282.516L140.411 222.354L215.012 259.821C218.697 261.713 221.687 266.321 221.687 270.106L221.69 282.124C221.686 284.01 220.947 285.34 219.732 285.963L100.751 347.071C101.966 346.448 102.705 345.118 102.709 343.231L102.719 331.208C102.719 327.423 99.7284 322.815 96.044 320.922L21.4297 282.516Z" fill="#EB0808"/>
<path d="M100.759 325.355C101.967 327.216 102.715 329.314 102.715 331.207L102.704 343.231C102.7 345.117 101.961 346.447 100.746 347.07L219.728 285.963C220.943 285.339 221.682 284.01 221.686 282.123L221.683 270.105C221.683 268.213 220.936 266.115 219.728 264.253L100.759 325.355Z" fill="#EB0808"/>
<path d="M100.759 325.354C101.967 327.216 102.715 329.314 102.715 331.207L102.704 343.231C102.7 345.117 101.961 346.447 100.746 347.07L219.728 285.962C220.943 285.339 221.682 284.009 221.686 282.123L221.683 270.105C221.683 268.213 220.936 266.115 219.728 264.253L100.759 325.354Z" fill="white"/>
<path d="M7.89062 277.269L86.769 317.835L205.749 256.728L126.878 217.105L7.89062 277.269Z" fill="#EB0808"/>
<path d="M87.5854 315.04L11.2544 275.539C13.0692 270.93 12.9328 266.498 10.8789 260.361L86.7663 299.485C86.7663 299.485 88.0848 302.432 87.5854 315.04Z" fill="white"/>
<path d="M86.7659 299.484L10.8789 260.361C11.5444 262.35 11.9869 264.25 12.2483 266.079L87.5271 304.976C87.2583 300.956 86.7659 299.484 86.7659 299.484Z" fill="#EBEBEB"/>
<path d="M83.2252 294.449C86.912 296.342 89.9006 300.947 89.9006 304.734L89.9002 315.803C89.9002 319.59 86.912 321.125 83.2252 319.231L7.89875 280.246L7.89062 277.269L82.3026 315.565C84.5144 316.701 86.3063 315.78 86.3038 313.508L86.2406 303.319C86.2384 301.048 84.4434 298.284 82.2316 297.148L7.8984 258.836V255.463L83.2252 294.449Z" fill="#EB0808"/>
<path d="M7.89453 255.469L126.876 194.361L202.195 233.344C205.88 235.236 208.871 239.844 208.871 243.629L208.873 254.699C208.869 256.586 208.131 257.916 206.916 258.539L87.9342 319.647C89.149 319.023 89.8882 317.694 89.8921 315.807L89.9027 304.73C89.9027 300.945 86.9117 296.338 83.2273 294.445L7.89453 255.469Z" fill="#EB0808"/>
<path d="M87.9483 298.878C89.1566 300.74 89.9044 302.838 89.9044 304.73L89.8934 315.808C89.8895 317.694 89.1503 319.024 87.9355 319.648L206.917 258.54C208.132 257.916 208.871 256.586 208.875 254.7L208.873 243.629C208.873 241.737 208.125 239.639 206.917 237.777L87.9483 298.878Z" fill="#EB0808"/>
<path d="M44.9388 268.548C55.3671 275.778 75.3693 277.415 89.6151 272.204C103.861 266.992 106.9 256.899 96.4028 249.66C85.9057 242.421 65.9031 240.785 51.7265 246.005C37.5496 251.225 34.5109 261.318 44.9388 268.548Z" fill="white"/>
<path d="M58.9759 209.735C53.0514 210.039 42.7429 210.749 36.3225 222.57C29.0102 236.034 36.3232 252.791 47.5476 259.859C61.6479 268.738 83.7549 269.271 96.7747 258.657C111.171 246.921 112.229 224.671 102.404 214.941C92.5785 205.211 77.4592 207.971 73.5187 209.466C67.6013 211.71 63.5888 209.498 58.9759 209.735Z" fill="#EB0808"/>
<path d="M52.8256 214.45C49.0024 214.156 43.4545 217.189 40.5507 221.847C36.9423 227.633 36.4884 235.802 37.6106 241.743C39.8743 253.725 52.8196 260.012 54.0721 258.993C55.3246 257.974 45.9217 250.144 51.0991 238.22C56.3521 226.121 59.0878 214.93 52.8256 214.45Z" fill="white"/>
<path d="M49.8725 216.385C45.9794 217.562 41.472 223.131 40.2972 227.074C39.1224 231.016 39.6978 233.697 40.2972 234.159C41.3749 234.989 49.2791 228.075 51.8494 224.971C55.4918 220.571 56.1477 214.486 49.8725 216.385Z" fill="white"/>
<path d="M65.1378 219.988C63.0609 218.504 61.1059 217.757 60.0674 219.988C59.0293 222.219 64.5663 225.727 70.6974 224.12C76.8285 222.514 78.9492 218.94 78.8164 217.133C78.8164 217.133 76.0518 221.054 71.94 221.506C69.0991 221.818 66.2151 220.758 65.1378 219.988Z" fill="#27DEBE"/>
<path d="M65.1378 219.988C63.0609 218.504 61.1059 217.757 60.0674 219.988C59.0293 222.219 64.5663 225.727 70.6974 224.12C76.8285 222.514 78.9492 218.94 78.8164 217.133C78.8164 217.133 76.0518 221.054 71.94 221.506C69.0991 221.818 66.2151 220.758 65.1378 219.988Z" fill="black"/>
<path d="M70.6988 222.718C70.6988 222.718 70.7158 214.747 67.9342 207.719C65.1527 200.692 60.2547 195.768 58.9248 195.227C57.5943 194.686 55.3566 194.286 52.2127 194.323C49.068 194.361 45.319 196.255 46.3472 197.337C47.3751 198.419 51.9103 199.231 57.4127 203.831C62.9154 208.431 68.1681 217.372 68.1758 222.718C68.1758 222.718 69.2906 223.421 70.6988 222.718Z" fill="#37464F"/>
<path d="M58.6932 195.144C58.5928 195.107 58.4975 195.069 58.3876 195.033C58.377 195.03 58.365 195.027 58.3541 195.023C56.9917 194.589 54.9452 194.29 52.211 194.323C49.8893 194.351 47.2434 195.391 46.4289 196.368C46.2145 196.774 46.905 197.321 49.7173 197.676C52.5412 198.032 55.4704 197.805 57.9874 196.983C59.211 196.584 59.6836 195.614 58.6932 195.144Z" fill="#455A63"/>
<path d="M66.6077 213.854C64.1285 207.513 56.6199 202.23 51.4746 199.893C53.1965 200.779 55.2254 202.003 57.4128 203.832C62.9156 208.431 68.1682 217.373 68.176 222.718C68.176 222.718 69.2907 223.421 70.699 222.718C70.699 222.718 70.7008 220.797 70.3776 218.017C70.2204 220.601 68.8923 219.697 66.6077 213.854Z" fill="black"/>
<path d="M69.209 211.67C73.0103 212.348 79.3155 211.113 82.9187 206.867C87.248 201.766 84.4269 195.133 84.4269 195.133C84.4269 195.133 77.6342 193.754 72.3498 198.518C68.4945 201.994 67.9689 208.716 69.209 211.67Z" fill="#27DEBE"/>
<path d="M69.209 211.67C73.0103 212.349 79.3155 211.113 82.9187 206.867C87.248 201.765 84.4269 195.133 84.4269 195.133C84.4269 195.133 77.6342 193.754 72.3498 198.518C68.4945 201.994 67.9689 208.717 69.209 211.67Z" fill="#EB0808"/>
<path d="M84.4269 195.133C84.4269 195.133 77.6342 193.754 72.3498 198.518C68.4945 201.994 67.9689 208.717 69.209 211.67C72.7341 201.856 84.4269 195.133 84.4269 195.133Z" fill="black"/>
<path d="M79.6678 196.051C73.9902 197.099 69.9897 201.063 69.5977 206.366C69.5977 206.366 71.2807 202.346 73.4897 200.263C76.811 197.131 79.6678 196.051 79.6678 196.051Z" fill="#EB0808"/>
<path d="M389.553 25.2788L124.214 162.388V349.34L124.244 382.943L121.9 381.731L118.221 379.831V159.297L383.56 22.187L388.126 24.5395L389.553 25.2788Z" fill="#E6E6E6"/>
<path d="M389.555 25.2783V212.244L133.182 344.702L127.204 347.794L125.717 348.56L124.245 349.313L124.215 349.34V162.388L389.555 25.2783Z" fill="#EFEFEF"/>
<path d="M391.703 24.2028L389.555 25.3187L124.216 162.415L123.375 162.845V382.491L121.902 381.731V162.092L122.774 161.648L388.128 24.5388L390.246 23.4502L391.703 24.2028Z" fill="#27DEBE"/>
<path d="M391.703 24.2038L389.555 25.3197L124.216 162.416L123.375 162.846V382.492L121.902 381.732V162.093L122.774 161.649L388.128 24.5398L390.246 23.4512L391.703 24.2038Z" fill="black"/>
<path d="M389.554 25.3191L124.214 162.415V162.429L123.373 162.859V382.492L124.244 382.943L391.699 245.142L391.702 211.142V24.2036L389.554 25.3191Z" fill="#27DEBE"/>
<path d="M389.554 25.3194L124.214 162.415V162.429L123.373 162.859V382.492L124.244 382.943L391.699 245.142L391.702 211.142V24.2036L389.554 25.3194Z" fill="black"/>
<path d="M394.045 25.4138L391.701 26.6235L389.553 27.739L316.465 65.4979L125.716 164.055V383.703L124.244 382.943V163.303L389.553 26.2338L391.701 25.1179L392.588 24.6611L394.045 25.4138Z" fill="#27DEBE"/>
<path d="M394.045 25.4138L391.701 26.6235L389.553 27.739L316.465 65.4979L125.716 164.055V383.703L124.244 382.943V163.303L389.553 26.2338L391.701 25.1179L392.588 24.6611L394.045 25.4138Z" fill="black"/>
<path d="M391.704 26.6225L389.556 27.7383L316.468 65.4972L125.719 164.068V383.702L127.204 384.471L133.036 381.31L394.047 246.401V25.4131L391.704 26.6225Z" fill="#27DEBE"/>
<path d="M398.538 29.9299L394.046 32.2551L391.703 33.4652L389.555 34.5674L133.183 167.026L133.187 387.565L127.203 384.472L127.205 163.934L389.555 28.3841L391.703 27.2686L392.545 26.8384L394.046 27.6179L398.538 29.9299Z" fill="#E6E6E6"/>
<path d="M392.541 26.8315L398.531 29.924L133.189 167.025L127.199 163.932L392.541 26.8315Z" fill="#EFEFEF"/>
<path d="M133.586 167.008V387.548L398.93 250.446L398.928 29.9087L133.586 167.008Z" fill="#F9F9F9"/>
<path d="M160.407 160.07C162.134 159.176 163.534 159.899 163.534 161.685C163.534 163.472 162.134 165.643 160.407 166.535C158.68 167.428 157.279 166.704 157.279 164.92C157.279 163.135 158.68 160.964 160.407 160.07Z" fill="#37464F"/>
<path d="M145.218 167.911C146.944 167.018 148.345 167.741 148.345 169.527C148.345 171.313 146.944 173.485 145.218 174.377C143.49 175.269 142.09 174.546 142.09 172.761C142.09 170.977 143.49 168.805 145.218 167.911Z" fill="#37464F"/>
<path d="M136.413 145.578C133.009 143.821 129.743 143.566 127.225 144.868C124.707 146.164 123.32 148.824 123.32 152.347C123.32 153.628 123.513 154.966 123.867 156.316L125.954 155.234C125.739 154.255 125.631 153.284 125.631 152.347C125.631 149.589 126.609 147.57 128.38 146.653C130.151 145.737 132.593 145.992 135.257 147.37C141.203 150.438 146.039 157.936 146.039 164.084C146.039 165.621 145.731 166.93 145.161 167.943C144.699 168.743 144.068 169.363 143.29 169.77C143.228 169.804 143.167 169.832 143.105 169.86C142.581 170.618 142.219 171.479 142.119 172.292C142.943 172.175 143.729 171.927 144.445 171.561C145.947 170.783 147.048 169.529 147.687 167.888C148.127 166.785 148.35 165.504 148.35 164.084C148.35 157.281 142.998 148.976 136.413 145.578Z" fill="#27DEBE"/>
<path d="M379.497 19.9744C376.093 18.2169 372.828 17.9618 370.309 19.2645C367.791 20.5605 366.405 23.2205 366.405 26.7425C366.405 27.5704 366.512 28.4254 366.664 29.2887C365.901 28.7352 365.112 28.2424 364.303 27.8255C360.899 26.0679 357.634 25.8129 355.116 27.1155C352.597 28.4112 351.21 31.0715 351.21 34.5936C351.21 35.4218 351.318 36.2765 351.47 37.1395C350.706 36.5863 349.917 36.0938 349.109 35.6769C345.705 33.919 342.44 33.6642 339.921 34.9669C337.403 36.2626 336.017 38.9229 336.017 42.4446C336.017 43.2731 336.124 44.1279 336.276 44.9908C335.512 44.4377 334.723 43.9452 333.915 43.5279C330.511 41.7704 327.245 41.515 324.727 42.8176C322.209 44.1133 320.823 46.774 320.823 50.2957C320.823 51.1239 320.93 51.9789 321.082 52.8419C320.318 52.2884 319.529 51.7956 318.721 51.3787C315.317 49.6211 312.052 49.366 309.533 50.6687C307.015 51.9644 305.628 54.6247 305.628 58.1468C305.628 58.9692 305.733 59.8186 305.884 60.6756C305.127 60.1284 304.345 59.64 303.544 59.2266C300.14 57.469 296.874 57.2139 294.356 58.5166C291.837 59.812 290.451 62.4726 290.451 65.9943C290.451 66.8225 290.558 67.6773 290.711 68.5402C289.947 67.987 289.158 67.4942 288.349 67.077C284.945 65.3198 281.68 65.0647 279.162 66.3673C276.644 67.6627 275.257 70.3234 275.257 73.8451C275.257 74.6736 275.364 75.5286 275.516 76.3916C274.753 75.8384 273.964 75.3453 273.155 74.928C269.751 73.1708 266.486 72.9157 263.968 74.2184C261.449 75.5141 260.063 78.1744 260.063 81.6961C260.063 82.5243 260.17 83.3797 260.322 84.2427C259.559 83.6895 258.769 83.1964 257.961 82.7794C254.557 81.0219 251.292 80.7671 248.774 82.0698C246.255 83.3658 244.869 86.0258 244.869 89.5478C244.869 90.3757 244.976 91.2304 245.128 92.0937C244.364 91.5402 243.575 91.0477 242.767 90.6308C239.363 88.8729 236.097 88.6179 233.579 89.9205C231.061 91.2162 229.675 93.8769 229.675 97.3989C229.675 98.2268 229.781 99.0815 229.934 99.9445C229.17 99.3913 228.381 98.8985 227.573 98.4812C224.169 96.7237 220.904 96.4689 218.385 97.7716C215.867 99.0673 214.481 101.728 214.481 105.25C214.481 106.078 214.588 106.933 214.74 107.796C213.976 107.243 213.187 106.75 212.379 106.333C208.975 104.575 205.709 104.32 203.191 105.623C200.673 106.918 199.286 109.579 199.286 113.101C199.286 113.929 199.394 114.784 199.546 115.647C198.782 115.093 197.993 114.601 197.185 114.184C193.781 112.426 190.515 112.171 187.997 113.474C185.479 114.769 184.093 117.43 184.093 120.951C184.093 121.78 184.199 122.635 184.352 123.498C183.588 122.944 182.799 122.452 181.991 122.034C178.587 120.277 175.321 120.022 172.803 121.325C170.284 122.62 168.898 125.281 168.898 128.802C168.898 129.631 169.005 130.486 169.158 131.349C168.394 130.796 167.605 130.303 166.796 129.886C163.392 128.128 160.127 127.873 157.609 129.176C155.091 130.472 153.704 133.132 153.704 136.654C153.704 137.482 153.811 138.337 153.963 139.2C153.2 138.647 152.411 138.154 151.602 137.737C148.199 135.979 144.933 135.724 142.415 137.027C139.896 138.322 138.51 140.983 138.51 144.505C138.51 145.325 138.597 146.169 138.747 147.023C137.991 146.478 137.212 145.991 136.412 145.579C133.008 143.821 129.743 143.565 127.225 144.868C124.706 146.164 123.32 148.824 123.32 152.347C123.32 153.628 123.513 154.965 123.867 156.316L125.954 155.234C125.738 154.255 125.631 153.284 125.631 152.347C125.631 149.59 126.609 147.57 128.38 146.653C130.151 145.737 132.593 145.992 135.257 147.37C141.202 150.437 146.039 157.936 146.039 164.083C146.039 165.621 145.731 166.93 145.161 167.943C144.699 168.742 144.068 169.363 143.29 169.769C143.228 169.804 143.166 169.832 143.105 169.859C142.581 170.617 142.219 171.479 142.119 172.292C142.943 172.175 143.728 171.927 144.445 171.561C145.947 170.783 147.048 169.528 147.687 167.888C148.127 166.785 148.349 165.503 148.349 164.083C148.349 158.568 144.83 152.066 139.989 147.992L141.144 147.392C140.929 146.414 140.82 145.442 140.82 144.505C140.82 141.748 141.799 139.729 143.57 138.812C145.341 137.895 147.783 138.15 150.447 139.528C156.392 142.596 161.229 150.094 161.229 156.242C161.229 157.779 160.921 159.088 160.351 160.101C159.889 160.901 159.258 161.521 158.48 161.928C158.418 161.962 158.356 161.99 158.295 162.017C157.771 162.776 157.409 163.637 157.309 164.45C158.133 164.333 158.918 164.085 159.635 163.72C161.136 162.941 162.238 161.687 162.877 160.046C163.316 158.944 163.539 157.662 163.539 156.242C163.539 150.724 160.018 144.22 155.174 140.146L156.338 139.541C156.123 138.563 156.015 137.591 156.015 136.654C156.015 133.897 156.993 131.877 158.764 130.961C160.535 130.044 162.977 130.299 165.641 131.677C171.586 134.745 176.423 142.243 176.423 148.391C176.423 149.928 176.122 151.24 175.545 152.25C175.088 153.052 174.445 153.66 173.674 154.077C173.611 154.11 173.551 154.139 173.489 154.167C172.965 154.925 172.603 155.786 172.503 156.599C173.327 156.482 174.114 156.236 174.829 155.869C176.334 155.095 177.426 153.834 178.071 152.195C178.506 151.091 178.734 149.811 178.734 148.391C178.734 142.874 175.212 136.368 170.368 132.294L171.532 131.69C171.316 130.711 171.209 129.74 171.209 128.802C171.209 126.046 172.187 124.026 173.958 123.11C175.73 122.193 178.171 122.448 180.836 123.827C186.781 126.894 191.617 134.392 191.617 140.54C191.617 142.077 191.315 143.389 190.74 144.4C190.282 145.202 189.639 145.809 188.868 146.226C188.805 146.26 188.745 146.288 188.683 146.316C188.159 147.074 187.797 147.935 187.697 148.748C188.522 148.631 189.308 148.385 190.023 148.018C191.528 147.244 192.62 145.983 193.265 144.344C193.7 143.241 193.927 141.96 193.927 140.54C193.927 135.022 190.406 128.517 185.562 124.443L186.726 123.84C186.511 122.861 186.403 121.889 186.403 120.951C186.403 118.195 187.381 116.175 189.152 115.259C190.923 114.342 193.365 114.597 196.029 115.975C201.975 119.042 206.811 126.541 206.811 132.689C206.811 134.226 206.51 135.538 205.933 136.548C205.476 137.35 204.833 137.958 204.062 138.375C204 138.409 203.939 138.437 203.877 138.465C203.353 139.223 202.992 140.084 202.891 140.897C203.715 140.78 204.503 140.535 205.217 140.167C206.722 139.393 207.814 138.132 208.459 136.493C208.895 135.389 209.121 134.109 209.121 132.689C209.121 127.172 205.6 120.667 200.756 116.592L201.92 115.988C201.705 115.01 201.597 114.038 201.597 113.101C201.597 110.344 202.575 108.324 204.346 107.408C206.118 106.491 208.559 106.746 211.223 108.124C217.169 111.191 222.005 118.69 222.005 124.838C222.005 126.375 221.704 127.687 221.127 128.697C220.67 129.499 220.028 130.107 219.256 130.524C219.194 130.558 219.133 130.586 219.072 130.613C218.548 131.372 218.185 132.233 218.086 133.046C218.909 132.929 219.697 132.684 220.411 132.316C221.916 131.542 223.008 130.281 223.654 128.643C224.088 127.538 224.316 126.258 224.316 124.838C224.316 119.32 220.794 112.815 215.95 108.741L217.115 108.137C216.899 107.159 216.791 106.187 216.791 105.25C216.791 102.493 217.769 100.473 219.54 99.5566C221.311 98.6399 223.753 98.8953 226.417 100.274C232.363 103.341 237.199 110.839 237.199 116.987C237.199 118.524 236.897 119.837 236.322 120.847C235.864 121.648 235.221 122.256 234.451 122.673C234.388 122.706 234.327 122.735 234.266 122.762C233.742 123.521 233.379 124.382 233.28 125.195C234.104 125.078 234.89 124.833 235.606 124.465C237.11 123.691 238.202 122.43 238.848 120.791C239.283 119.687 239.51 118.406 239.51 116.987C239.51 111.469 235.988 104.964 231.144 100.89L232.309 100.286C232.093 99.3075 231.986 98.3361 231.986 97.3989C231.986 94.6418 232.963 92.6226 234.734 91.7059C236.506 90.7892 238.947 91.0439 241.612 92.4222C247.557 95.4893 252.394 102.988 252.394 109.135C252.394 110.673 252.092 111.985 251.516 112.995C251.058 113.797 250.415 114.405 249.644 114.822C249.582 114.855 249.521 114.884 249.46 114.912C248.936 115.67 248.574 116.531 248.474 117.345C249.298 117.227 250.085 116.981 250.799 116.614C252.304 115.84 253.396 114.579 254.042 112.941C254.477 111.837 254.704 110.556 254.704 109.135C254.704 103.618 251.182 97.1134 246.338 93.0392L247.503 92.4354C247.287 91.4568 247.179 90.4851 247.179 89.5478C247.179 86.7911 248.157 84.7712 249.929 83.8545C251.7 82.9381 254.141 83.1929 256.806 84.5714C262.751 87.6382 267.588 95.1368 267.588 101.285C267.588 102.822 267.28 104.131 266.71 105.144C266.248 105.944 265.616 106.564 264.839 106.97C264.776 107.005 264.715 107.033 264.654 107.06C264.13 107.818 263.768 108.68 263.668 109.493C264.492 109.376 265.277 109.128 265.994 108.763C267.495 107.984 268.596 106.729 269.236 105.089C269.675 103.986 269.898 102.704 269.898 101.285C269.898 95.7672 266.376 89.2624 261.532 85.1881L262.697 84.5841C262.481 83.6054 262.373 82.6334 262.373 81.6961C262.373 78.9394 263.352 76.9201 265.123 76.0034C266.894 75.0867 269.336 75.3418 272 76.7204C277.945 79.7875 282.782 87.2858 282.782 93.4334C282.782 94.9703 282.48 96.2827 281.904 97.293C281.447 98.0949 280.804 98.7031 280.032 99.1198C279.97 99.1536 279.909 99.1817 279.848 99.2092C279.324 99.9672 278.962 100.829 278.862 101.642C279.686 101.525 280.473 101.279 281.188 100.911C282.693 100.138 283.784 98.8764 284.43 97.238C284.865 96.1342 285.093 94.8533 285.093 93.4334C285.093 87.9161 281.57 81.4107 276.727 77.3368L277.891 76.733C277.676 75.7543 277.568 74.7826 277.568 73.8451C277.568 71.0887 278.546 69.0694 280.317 68.1527C282.088 67.236 284.529 67.4908 287.194 68.8693C293.14 71.9364 297.976 79.4347 297.976 85.5823C297.976 87.1195 297.675 88.4317 297.098 89.4422C296.641 90.2436 295.998 90.8518 295.227 91.2687C295.165 91.3022 295.103 91.3307 295.042 91.3585C294.518 92.1165 294.156 92.9779 294.056 93.7912C294.88 93.6739 295.667 93.4283 296.382 93.0607C297.887 92.2869 298.979 91.0256 299.624 89.3876C300.059 88.2834 300.286 87.0022 300.286 85.5823C300.286 80.065 296.764 73.56 291.921 69.4857L293.085 68.8822C292.869 67.9036 292.761 66.9316 292.761 65.9943C292.761 63.2376 293.739 61.2183 295.511 60.3016C297.282 59.3849 299.723 59.6397 302.388 61.0179C308.333 64.0851 313.17 71.5837 313.17 77.7316C313.17 79.2685 312.862 80.5781 312.292 81.5909C311.83 82.3906 311.199 83.0111 310.421 83.4179C310.359 83.4521 310.297 83.4796 310.236 83.5071C309.712 84.2654 309.35 85.1271 309.25 85.9405C310.074 85.8232 310.86 85.5747 311.576 85.2096C313.077 84.4307 314.179 83.1768 314.818 81.5362C315.257 80.4336 315.481 79.1512 315.481 77.7316C315.481 72.2124 311.957 65.7057 307.111 61.6318L308.262 61.0347C308.047 60.0557 307.939 59.084 307.939 58.1468C307.939 55.39 308.917 53.3704 310.688 52.454C312.46 51.537 314.901 51.7924 317.566 53.171C323.51 56.2378 328.347 63.7367 328.347 69.8846C328.347 71.4212 328.046 72.7337 327.47 73.7439C327.013 74.5456 326.369 75.1534 325.598 75.5701C325.536 75.6036 325.475 75.6323 325.413 75.6601C324.889 76.4182 324.528 77.2792 324.427 78.0926C325.251 77.9753 326.038 77.7294 326.753 77.362C328.258 76.5882 329.35 75.327 329.995 73.6886C330.43 72.5844 330.658 71.3042 330.658 69.8846C330.658 64.3667 327.136 57.8613 322.292 53.7871L323.456 53.1839C323.241 52.205 323.133 51.2329 323.133 50.2957C323.133 47.539 324.111 45.5197 325.883 44.603C327.654 43.6866 330.095 43.9411 332.76 45.3196C338.705 48.3867 343.542 55.8857 343.542 62.0332C343.542 63.5704 343.234 64.8798 342.664 65.8925C342.201 66.692 341.57 67.3128 340.792 67.7196C340.73 67.7538 340.668 67.7813 340.607 67.8088C340.084 68.5671 339.722 69.4285 339.621 70.2415C340.446 70.1245 341.231 69.8767 341.947 69.5113C343.449 68.7324 344.55 67.4781 345.189 65.8379C345.628 64.7353 345.852 63.4532 345.852 62.0332C345.852 56.5157 342.33 50.0103 337.486 45.936L338.651 45.3329C338.435 44.3542 338.327 43.3822 338.327 42.4446C338.327 39.6882 339.305 37.6686 341.076 36.7519C342.848 35.8352 345.289 36.09 347.954 37.4682C353.899 40.5354 358.736 48.0343 358.736 54.1819C358.736 55.7191 358.434 57.0309 357.857 58.0415C357.401 58.8431 356.758 59.4513 355.986 59.8682C355.924 59.9018 355.863 59.9299 355.802 59.9574C355.278 60.7157 354.916 61.5774 354.815 62.3908C355.64 62.2735 356.427 62.0275 357.141 61.6599C358.646 60.8858 359.738 59.6252 360.383 57.9865C360.819 56.8827 361.046 55.6018 361.046 54.1819C361.046 48.6646 357.524 42.1595 352.68 38.0852L353.844 37.4812C353.629 36.5025 353.521 35.5308 353.521 34.5936C353.521 31.8365 354.499 29.8173 356.27 28.9005C358.042 27.9839 360.483 28.2393 363.148 29.6178C369.093 32.6846 373.93 40.1832 373.93 46.3305C373.93 47.8677 373.628 49.1805 373.052 50.1907C372.594 50.9924 371.952 51.5999 371.181 52.0169C371.118 52.0504 371.057 52.0788 370.996 52.1063C370.472 52.8647 370.11 53.726 370.01 54.5394C370.834 54.4221 371.621 54.1762 372.336 53.8089C373.841 53.035 374.932 51.7738 375.578 50.1351C376.013 49.0313 376.24 47.7507 376.24 46.3305C376.24 40.8132 372.718 34.3081 367.874 30.2339L369.039 29.6301C368.823 28.6518 368.715 27.6798 368.715 26.7425C368.715 23.9855 369.693 21.9662 371.465 21.0495C373.236 20.1328 375.678 20.3882 378.342 21.7664C384.287 24.8336 389.124 32.3325 389.124 38.4801C389.124 40.017 388.816 41.3266 388.246 42.3394C387.784 43.1394 387.152 43.759 386.375 44.1658C386.313 44.2003 386.251 44.2281 386.19 44.2556C385.666 45.0139 385.304 45.875 385.204 46.6883C386.028 46.571 386.814 46.3232 387.529 45.9581C389.031 45.1792 390.132 43.9246 390.772 42.2844C391.211 41.1815 391.435 39.8997 391.435 38.4801C391.435 31.6775 386.082 23.3722 379.497 19.9744Z" fill="black"/>
<path d="M166.86 184.723L185.838 174.859C187.243 174.133 188.389 174.649 188.396 176.011C188.405 177.373 187.271 179.063 185.865 179.788L166.862 189.642C165.456 190.367 164.316 189.853 164.316 188.496C164.316 187.138 165.455 185.449 166.86 184.723Z" fill="#EB0808"/>
<path d="M199.311 167.958L218.289 158.094C219.694 157.368 220.839 157.884 220.848 159.246C220.856 160.607 219.723 162.298 218.317 163.022L199.314 172.877C197.907 173.601 196.768 173.088 196.768 171.73C196.768 170.373 197.906 168.684 199.311 167.958Z" fill="#EB0808"/>
<path d="M386.966 94.8879L386.701 239.519L163.011 355.235V210.603L386.966 94.8879ZM387.674 93.792L162.305 210.238V356.33L387.407 239.884L387.674 93.792Z" fill="#DFDFDF"/>
<path d="M194.461 338.722L194.499 194.576" stroke="#DFDFDF" stroke-width="2" stroke-linecap="round" stroke-linejoin="round"/>
<path d="M226.697 177.94L226.621 322.086" stroke="#DFDFDF" stroke-width="2" stroke-linecap="round" stroke-linejoin="round"/>
<path d="M163.623 246.051L386.527 130.878" stroke="#DFDFDF" stroke-width="2" stroke-linecap="round" stroke-linejoin="round"/>
<path d="M163.623 282.573L386.527 167.401" stroke="#DFDFDF" stroke-width="2" stroke-linecap="round" stroke-linejoin="round"/>
<path d="M163.623 319.097L386.527 203.924" stroke="#DFDFDF" stroke-width="2" stroke-linecap="round" stroke-linejoin="round"/>
<path d="M201.273 307.9L220.55 317.86" stroke="#EB0808" stroke-width="4" stroke-miterlimit="10" stroke-linecap="round"/>
<path d="M219.173 298.886L202.107 326.508" stroke="#EB0808" stroke-width="4" stroke-miterlimit="10" stroke-linecap="round"/>
<path d="M179.484 209.915L181.812 214.342C181.909 214.525 182.096 214.59 182.312 214.516L187.518 212.729C188.061 212.542 188.278 213.227 187.885 213.888L184.118 220.217C183.961 220.479 183.89 220.778 183.927 221.015L184.817 226.743C184.909 227.341 184.341 228.128 183.855 228.074L179.198 227.558C179.005 227.537 178.774 227.656 178.581 227.877L173.924 233.204C173.438 233.761 172.87 233.562 172.963 232.868L173.852 226.221C173.889 225.945 173.818 225.72 173.662 225.619L169.894 223.184C169.501 222.93 169.718 222.02 170.262 221.645L175.468 218.052C175.684 217.903 175.87 217.645 175.967 217.362L178.295 210.529C178.538 209.816 179.241 209.453 179.484 209.915Z" fill="#F18F8F"/>
<path d="M169.715 283.996L187.395 274.861C188.146 274.474 188.754 274.749 188.754 275.476C188.754 276.204 188.146 277.108 187.395 277.496L169.715 286.631C168.964 287.019 168.355 286.744 168.355 286.016C168.355 285.288 168.964 284.384 169.715 283.996Z" fill="#455A63"/>
<path d="M169.715 290.499L181.908 284.196C182.659 283.808 183.267 284.084 183.267 284.811C183.267 285.539 182.659 286.443 181.908 286.831L169.715 293.133C168.964 293.521 168.355 293.246 168.355 292.518C168.355 291.79 168.964 290.886 169.715 290.499Z" fill="#455A63"/>
<path d="M226.696 213.626L250.684 201.067L226.545 236.418L226.696 213.626Z" fill="#EB0808"/>
<path d="M389.539 142.052L387.199 166.882L368.842 128.836L389.539 142.052Z" fill="#EB0808"/>
<path d="M140.598 226.156L155.471 218.442C156.259 218.034 156.902 218.323 156.907 219.088C156.912 219.852 156.275 220.802 155.486 221.208L140.599 228.918C139.81 229.325 139.17 229.036 139.17 228.274C139.17 227.512 139.81 226.564 140.598 226.156Z" fill="#EB0808"/>
<path d="M140.598 232.02L151.566 226.336C152.355 225.928 152.998 226.218 153.003 226.982C153.007 227.746 152.371 228.695 151.582 229.102L140.599 234.782C139.81 235.189 139.17 234.901 139.17 234.139C139.17 233.376 139.81 232.428 140.598 232.02Z" fill="#27DEBE"/>
<path d="M140.598 262.628L155.471 254.914C156.259 254.506 156.902 254.796 156.907 255.56C156.912 256.325 156.275 257.274 155.486 257.68L140.599 265.39C139.81 265.797 139.17 265.508 139.17 264.746C139.17 263.984 139.81 263.036 140.598 262.628Z" fill="#EB0808"/>
<path d="M140.598 268.492L151.566 262.807C152.355 262.399 152.998 262.689 153.003 263.453C153.007 264.218 152.371 265.167 151.582 265.574L140.599 271.253C139.81 271.66 139.17 271.372 139.17 270.609C139.17 269.848 139.81 268.899 140.598 268.492Z" fill="#27DEBE"/>
<path d="M140.598 299.163L155.471 291.448C156.259 291.04 156.902 291.33 156.907 292.094C156.912 292.859 156.275 293.808 155.486 294.215L140.599 301.924C139.81 302.331 139.17 302.043 139.17 301.281C139.17 300.518 139.81 299.57 140.598 299.163Z" fill="#EB0808"/>
<path d="M140.598 305.027L151.566 299.342C152.355 298.934 152.998 299.224 153.003 299.988C153.007 300.753 152.371 301.702 151.582 302.109L140.599 307.788C139.81 308.195 139.17 307.907 139.17 307.145C139.17 306.383 139.81 305.434 140.598 305.027Z" fill="#27DEBE"/>
<path d="M140.598 335.611L155.471 327.896C156.259 327.489 156.902 327.778 156.907 328.542C156.912 329.307 156.275 330.256 155.486 330.663L140.599 338.373C139.81 338.779 139.17 338.491 139.17 337.729C139.17 336.967 139.81 336.019 140.598 335.611Z" fill="#EB0808"/>
<path d="M140.598 341.474L151.566 335.79C152.355 335.382 152.998 335.671 153.003 336.436C153.007 337.2 152.371 338.15 151.582 338.557L140.599 344.236C139.81 344.642 139.17 344.354 139.17 343.592C139.17 342.83 139.81 341.882 140.598 341.474Z" fill="#27DEBE"/>
<path d="M140.598 232.021L151.566 226.336C152.355 225.928 152.998 226.218 153.002 226.982C153.007 227.746 152.371 228.696 151.582 229.102L140.599 234.782C139.81 235.189 139.17 234.901 139.17 234.139C139.17 233.376 139.81 232.428 140.598 232.021Z" fill="black"/>
<path d="M140.598 268.492L151.566 262.807C152.355 262.399 152.998 262.689 153.002 263.453C153.007 264.218 152.371 265.167 151.582 265.574L140.599 271.253C139.81 271.66 139.17 271.372 139.17 270.609C139.17 269.848 139.81 268.899 140.598 268.492Z" fill="black"/>
<path d="M140.598 305.027L151.566 299.342C152.355 298.934 152.998 299.224 153.002 299.988C153.007 300.753 152.371 301.702 151.582 302.109L140.599 307.788C139.81 308.195 139.17 307.907 139.17 307.145C139.17 306.383 139.81 305.434 140.598 305.027Z" fill="black"/>
<path d="M140.598 341.474L151.566 335.79C152.355 335.382 152.998 335.671 153.002 336.436C153.007 337.2 152.371 338.15 151.582 338.557L140.599 344.236C139.81 344.642 139.17 344.354 139.17 343.592C139.17 342.83 139.81 341.882 140.598 341.474Z" fill="black"/>
<path d="M163.842 415.626C157.132 418.687 174.086 429.374 182.473 425.252L329.421 348.247L347.06 331.591C347.888 330.809 347.018 329.55 345.866 329.865L311.836 339.161L163.842 415.626Z" fill="#DFDFDF"/>
<path d="M207.425 404.821L209.986 403.504L213.084 401.928L324.167 344.909C325.327 341.865 324.763 338.533 323.294 335.616C321.075 331.168 316.762 327.659 313.191 327.454L202.178 384.441L196.27 387.475C200.216 385.701 211.357 402.993 207.425 404.821Z" fill="#EB0808"/>
<path d="M217.195 399.844L222.909 396.898C224.597 396.095 223.63 392.386 221.655 388.549C219.046 383.447 213.906 378.508 211.667 379.571L207.451 381.735L205.959 382.532C208.198 381.47 213.342 386.407 215.952 391.51C217.839 395.188 218.796 398.766 217.365 399.738L217.347 399.747C217.308 399.791 217.259 399.818 217.195 399.844Z" fill="#EBEBEB"/>
<path d="M218.615 399.097C222.539 397.236 211.304 379.92 207.379 381.782L201.648 384.713C205.573 382.851 216.807 400.166 212.883 402.027L218.615 399.097Z" fill="#EB0808"/>
<path d="M207.426 404.821L213.084 401.928C216.951 400.126 206.267 383.335 202.178 384.441C202.103 384.452 202.023 384.487 201.943 384.522L196.27 387.475C200.216 385.701 211.357 402.994 207.426 404.821Z" fill="#EBEBEB"/>
<path d="M183.427 417.109L207.424 404.821C209.107 404.04 208.174 400.365 206.236 396.549C203.643 391.437 198.526 386.454 196.268 387.475C196.255 387.471 196.255 387.471 196.238 387.482L172.166 399.818C167.386 402.288 171.783 411.582 177.115 415.733C179.099 417.299 181.318 417.995 183.427 417.109Z" fill="#F18F8F"/>
<path d="M458.949 129.71L462.299 144.876L478.195 143.081L474.736 125.351L458.949 129.71Z" fill="#FFA8A7"/>
<path d="M459.106 130.639L458.519 128.412C458.519 128.412 454.811 130.715 450.371 130.683C451.983 131.272 456.035 131.199 459.106 130.639Z" fill="#F18F8F"/>
<path d="M445.915 111.944C445.915 111.944 442.461 117.67 442.963 118.176C443.466 118.682 446.431 118.97 446.431 118.97L445.915 111.944Z" fill="#F18F8F"/>
<path d="M455.695 95.9724C447.772 98.0511 445.746 101.415 446.08 113.061C446.431 125.229 448.158 128.946 450.07 130.46C451.363 131.481 457.981 131.239 461.232 130.186C465.301 128.869 474.433 125.221 478.269 118.832C482.779 111.315 483.225 101.507 477.293 97.8916C468.947 92.8036 458.919 95.1265 455.695 95.9724Z" fill="#FFA8A7"/>
<path d="M444.507 101.564C444.432 102.677 444.742 103.818 445.434 104.75C446.644 106.382 448.953 107.288 451.08 106.968C450.717 107.023 452.263 108.534 452.396 108.619C453.046 109.037 453.786 109.346 454.584 109.213C455.024 110.821 455.055 112.532 457.122 113.169C457.122 113.169 457.973 108.603 462.201 108.887C466.457 109.173 467.482 113.979 465.114 117.1C462.759 120.201 460.202 119.27 460.17 119.258C460.426 119.352 460.645 120.775 460.755 121.039C461.101 121.862 461.54 122.672 462.061 123.417C463.113 124.926 464.542 126.225 466.217 127.169C467.636 127.969 469.296 128.683 470.979 128.814C472.509 128.932 474.224 128.195 475.735 127.915C479.144 122.91 481.908 117.543 483.954 111.955C484.858 109.486 485.745 106.783 485.543 104.14C485.376 101.974 485.049 99.6637 483.415 97.9324C482.046 96.4832 480.005 95.5684 477.911 95.4664C477.408 93.1015 475.329 91.1602 472.889 90.1794C470.449 89.1985 467.693 89.0698 465.051 89.3131C462.409 89.5564 459.828 90.1523 457.214 90.5671C451.746 91.4346 446.364 91.4311 440.824 91.3481C440.628 91.3452 440.418 91.3462 440.261 91.4492C440.075 91.5701 440.019 91.7947 439.986 92.0003C439.447 95.3565 441.454 98.6525 445.326 99.2098C444.835 99.9139 444.563 100.731 444.507 101.564Z" fill="#253138"/>
<path d="M457.197 115.748L456.869 110.681C455.324 110.747 454.146 111.935 454.237 113.334C454.328 114.734 455.653 115.814 457.197 115.748Z" fill="#253138"/>
<path d="M483.505 133.718C489.484 133.404 492.534 134.177 495.296 138.78C498.058 143.384 499.33 157.216 500.379 164.343C501.427 171.47 501.741 176.503 498.481 177.273C495.22 178.043 482.487 178.498 482.487 178.498L483.505 133.718Z" fill="#455A63"/>
<path d="M498.987 318.72C499.738 318.983 499.916 320.271 500.007 322.831C500.076 324.768 500.507 328.151 497.972 328.803C495.438 329.454 491.736 329.075 490.133 327.235C488.131 324.939 486.782 322.921 483.921 320.116C481.439 317.682 478.751 315.406 477.771 312.017C476.886 308.953 477.659 307.635 479.991 306.768C483.199 305.576 488.183 309.614 490.682 310.265C492.833 310.826 498.236 318.458 498.987 318.72Z" fill="#253138"/>
<path d="M499.016 316.345L498.987 319.489C498.987 319.489 495.32 321.967 490.129 319.622C489.978 319.317 489.25 315.117 489.25 315.117L499.016 316.345Z" fill="#FFA8A7"/>
<path d="M470.383 336.56C470.383 336.56 471.364 339.303 471.884 341.7C472.297 343.605 472.886 346.788 472.13 348.212C471.375 349.635 468.472 350.531 463.984 350.458C461.078 350.412 456.532 352.141 453.416 353.665C450.198 355.239 443.53 355.816 440.145 355.427C436.156 354.97 432.039 352.855 431.407 351.365C430.775 349.876 431.647 348.343 441.089 344.833C441.175 344.801 454.206 341.13 458.8 336.665L470.383 336.56Z" fill="#253138"/>
<path d="M470.432 333.168C470.432 333.168 470.397 335.501 470.397 336.834C470.398 338.167 468.625 340.137 464.082 339.95C460.892 339.818 458.671 339.028 458.819 336.672L458.85 333.274L470.432 333.168Z" fill="#FFA8A7"/>
<path d="M501.667 274.738C500.16 264.464 497.688 258.348 497.688 258.348C497.688 258.348 499.066 244.252 499.787 230.882C500.566 216.441 501.383 208.999 497.892 188.192C497.892 188.192 448.563 184.759 447.484 201.452C446.405 218.145 448.991 260.686 449.538 268.029C450.084 275.372 451.436 281.873 453.015 293.781C454.573 305.533 458.989 333.292 458.989 333.292C464.893 336.226 470.542 333.186 470.542 333.186C470.542 333.186 474.502 299.826 474.196 291.356C473.822 281.014 470.79 272.845 470.79 272.845C470.79 272.845 471.901 259.083 472.88 247.112C473.858 235.141 474.832 229.396 475.081 224.187L476.203 223.701C476.203 223.701 477.152 244.376 477.699 251.719C478.245 259.062 479.481 266.109 481.719 279.759C483.661 291.6 489.539 316.671 489.539 316.671C495.443 319.605 499.011 316.381 499.011 316.381C499.011 316.381 503.173 285.011 501.667 274.738Z" fill="#455A63"/>
<path d="M475.139 224.187C475.139 224.187 487.796 218.729 494.152 213.76C494.152 213.76 488.226 221.113 480.506 224.325C480.506 224.325 477.535 249.975 477.554 249.466L476.206 224.159L475.139 224.187Z" fill="#37464F"/>
<path d="M460.313 135.144L460.525 136.104C460.525 136.104 465.256 136.843 470.364 135.444C475.472 134.046 476.398 132.642 476.398 132.642L476.185 131.551C476.185 131.551 477.44 131.029 478.292 132.792C479.143 134.555 479.252 134.947 479.252 134.947C479.252 134.947 480.163 138.211 474.2 140.305C465.621 143.318 458.817 139.818 458.817 139.818L456.46 140.438C456.46 140.438 458.127 135.96 458.672 135.039C459.218 134.117 460.102 134.185 460.102 134.185L460.313 135.144Z" fill="#455A63"/>
<path d="M493.774 141.491C492.512 137.273 485.88 133.196 480.15 134.441C478.818 134.73 477.522 135.019 476.262 135.309C475.807 137.925 468.181 140.053 460.602 138.966C458.412 139.648 451.157 141.392 449.346 142.077C444.157 144.04 442.402 148.946 443.058 164.771C443.058 164.771 446.856 200.452 447.318 207.58C460.978 211.735 474.83 210.944 482.387 209.073C498.119 205.178 499.627 199.099 499.627 199.099L495.705 182.922C495.705 182.922 496.631 151.031 493.774 141.491Z" fill="#EB0808"/>
<path d="M397.435 172.428L396.914 172.278C396.491 172.156 396.016 171.853 395.852 171.6L380.569 148.018C380.406 147.765 380.484 147.455 380.743 147.325L392.292 138.653C392.551 138.522 393.105 138.515 393.528 138.637L394.049 138.787C394.472 138.909 394.948 139.212 395.112 139.465L410.394 163.047C410.558 163.3 410.48 163.61 410.22 163.741L398.671 172.413C398.412 172.543 397.858 172.55 397.435 172.428Z" fill="#27DEBE"/>
<path d="M397.435 172.428L396.914 172.278C396.491 172.156 396.016 171.853 395.852 171.6L380.569 148.018C380.406 147.765 380.484 147.455 380.743 147.325L392.292 138.653C392.551 138.522 393.105 138.515 393.528 138.637L394.049 138.787C394.472 138.909 394.948 139.212 395.112 139.465L410.394 163.047C410.558 163.3 410.48 163.61 410.22 163.741L398.671 172.412C398.412 172.543 397.858 172.55 397.435 172.428Z" fill="black"/>
<path d="M398.403 172.452C398.119 172.545 397.639 172.539 397.258 172.43L396.74 172.28C396.32 172.158 395.847 171.859 395.683 171.602L380.495 148.085C380.413 147.96 380.395 147.82 380.422 147.699L382.469 148.288C382.435 148.408 382.453 148.548 382.535 148.679L397.723 172.196C397.872 172.419 398.158 172.52 398.403 172.452Z" fill="#27DEBE"/>
<path d="M398.403 172.452C398.119 172.545 397.639 172.539 397.258 172.43L396.74 172.28C396.32 172.158 395.847 171.859 395.683 171.603L380.495 148.085C380.413 147.96 380.395 147.82 380.422 147.699L382.469 148.288C382.435 148.408 382.453 148.548 382.535 148.679L397.723 172.196C397.872 172.419 398.158 172.52 398.403 172.452Z" fill="black"/>
<path d="M382.632 148.6L397.905 172.177C398.068 172.429 398.411 172.528 398.67 172.397L410.215 163.729C410.474 163.598 410.552 163.288 410.389 163.035L395.116 139.459C394.952 139.207 394.61 139.108 394.35 139.239L382.806 147.907C382.546 148.038 382.468 148.348 382.632 148.6Z" fill="#27DEBE"/>
<path d="M382.632 148.6L397.905 172.177C398.068 172.429 398.411 172.528 398.67 172.397L410.215 163.729C410.474 163.598 410.552 163.288 410.389 163.035L395.116 139.459C394.952 139.207 394.61 139.108 394.35 139.239L382.806 147.907C382.546 148.038 382.468 148.348 382.632 148.6Z" fill="black"/>
<path d="M384.76 149.751L395.03 141.998C395.253 141.887 395.546 141.972 395.687 142.188L407.987 161.195C408.127 161.411 408.06 161.677 407.838 161.789L397.644 169.67C397.422 169.782 397.128 169.697 396.988 169.481L384.611 150.345C384.471 150.129 384.538 149.863 384.76 149.751Z" fill="white"/>
<path d="M388.493 144.53C388.646 144.414 388.885 144.442 389.027 144.592C389.168 144.741 389.158 144.956 389.005 145.071C388.851 145.186 388.612 145.158 388.471 145.009C388.329 144.859 388.339 144.645 388.493 144.53Z" fill="#253138"/>
<path d="M388.274 145.995C388.852 145.581 389.849 144.808 390.403 144.383C390.497 144.311 390.64 144.324 390.722 144.41C390.804 144.498 390.794 144.626 390.698 144.698L388.557 146.304C388.462 146.375 388.318 146.362 388.236 146.276C388.154 146.188 388.176 146.065 388.274 145.995Z" fill="#253138"/>
<path d="M387.707 146.403C387.793 146.338 387.927 146.354 388.006 146.438C388.086 146.522 388.08 146.642 387.994 146.707C387.908 146.771 387.774 146.755 387.695 146.671C387.615 146.588 387.621 146.467 387.707 146.403Z" fill="#253138"/>
<path d="M403.632 166.009C403.981 165.833 404.442 165.966 404.662 166.305C404.882 166.644 404.777 167.061 404.428 167.236C404.079 167.412 403.618 167.279 403.398 166.94C403.178 166.601 403.283 166.184 403.632 166.009Z" fill="#253138"/>
<path d="M392.647 148.523L395.015 150.484C395.113 150.565 395.224 150.582 395.312 150.528L397.434 149.242C397.656 149.108 397.95 149.422 397.933 149.775L397.765 153.15C397.758 153.29 397.804 153.44 397.887 153.552L399.888 156.261C400.096 156.544 400.026 156.971 399.767 156.984L397.296 157.109C397.193 157.114 397.11 157.191 397.074 157.313L396.189 160.274C396.096 160.583 395.757 160.532 395.615 160.188L394.255 156.89C394.199 156.753 394.102 156.65 393.996 156.614L391.448 155.735C391.182 155.643 391.044 155.184 391.214 154.959L392.846 152.795C392.914 152.706 392.937 152.566 392.908 152.42L392.218 148.917C392.146 148.551 392.4 148.318 392.647 148.523Z" fill="#27DEBE"/>
<path d="M427.861 199.432C422.246 199.707 405.987 185.898 401.217 181.3C395.995 176.266 391.686 174.135 387.795 172.392C386.88 171.982 385.85 171.478 385.176 170.759C384.536 170.076 384.2 169.195 383.999 168.336C383.732 167.192 383.656 166.007 383.193 164.912C382.915 164.256 382.498 163.63 382.415 162.934C382.336 162.27 382.571 161.612 382.555 160.945C382.536 160.132 382.147 159.361 381.939 158.565C381.803 158.042 381.756 157.467 381.939 156.954C382.111 156.475 382.54 155.976 382.848 155.558C382.922 155.458 384.355 153.996 384.402 154.068C384.404 154.071 387.33 158.498 387.33 158.498L390.131 162.737C390.955 163.215 392.368 164.182 392.876 162.876C393.009 162.534 392.994 162.157 392.955 161.792C392.827 160.617 392.464 159.459 392.45 158.281C392.441 157.554 392.588 156.805 392.97 156.168C393.218 155.755 394.007 154.764 394.644 155.111C394.835 155.215 394.957 155.399 395.044 155.585C395.287 156.108 395.202 156.655 395.394 157.166C395.641 157.822 396.05 158.453 396.337 159.1C396.921 160.417 397.399 161.77 397.764 163.147C398.033 164.16 398.243 165.187 398.593 166.182C399.019 167.393 399.656 168.385 400.65 169.274C402.479 170.91 425.223 184.557 425.223 184.557L427.861 199.432Z" fill="#FFA8A7"/>
<path d="M449.922 141.205C445.556 141.805 440.47 143.276 437.472 148.721C434.473 154.166 423.968 182.843 423.968 182.843L413.262 176.871C413.262 176.871 408.206 180.798 408.241 187.003C408.241 187.003 414.011 192.641 418.688 195.87C423.366 199.099 428.232 201.076 431.485 199.331C434.738 197.587 437.771 194.471 443.239 183.652C448.708 172.834 454.486 160.169 454.486 160.169C454.486 160.169 457.282 148.256 449.922 141.205Z" fill="#455A63"/>
</svg>
