<svg width="639" height="434" viewBox="0 0 639 434" fill="none" xmlns="http://www.w3.org/2000/svg">
<g clip-path="url(#clip0_127_1272)">
<g opacity="0.5">
<path d="M599.139 383.689L598.296 383.23L46.0551 382.982C27.2198 371.005 12.4335 352.155 4.84661 330.436C0.621533 318.338 -1.39683 305.046 1.32246 292.47C9.17477 256.154 51.9241 238.536 62.8263 203.096C69.4327 181.629 62.8631 158.395 63.2171 135.836C63.6125 111.314 73.2807 86.1435 92.1461 71.6645C129.033 43.3465 182.494 64.6054 225.507 48.4077C253.98 37.6802 275.656 11.2131 304.869 2.96291C329.537 -3.9975 357.524 4.04351 375.371 23.2259C397.669 47.1825 404.812 86.1964 432.837 102.202C461.553 118.603 503.976 105.244 524.483 131.965C545.987 159.979 522.442 207.221 543.6 235.522C550.5 244.76 560.991 250.039 570.118 256.822C607.025 284.255 620.018 341.656 599.139 383.689Z" fill="url(#paint0_linear_127_1272)"/>
</g>
<g opacity="0.5">
<path d="M628.796 383.243L76.555 382.995C57.7196 371.018 42.9333 352.168 35.3464 330.45C31.1214 318.352 29.103 305.059 31.8223 292.484C39.6746 256.167 82.4239 238.549 93.3261 203.109C99.9325 181.642 93.3629 158.408 93.717 135.85C94.1124 111.327 103.78 86.1568 122.646 71.6777C159.533 43.3598 212.994 64.6187 256.007 48.4209C284.479 37.6935 306.155 11.2264 335.369 2.97619C360.037 -3.98426 388.024 4.05679 405.871 23.2392C428.169 47.1958 435.312 86.2096 463.337 102.215C492.053 118.616 534.476 105.258 554.983 131.979C576.487 159.992 552.942 207.234 574.1 235.535C581 244.773 591.491 250.052 600.618 256.835C637.525 284.268 649.674 341.211 628.796 383.243Z" fill="url(#paint1_linear_127_1272)"/>
</g>
<g opacity="0.5">
<path d="M45.8585 382.994L628.192 383.255C628.192 383.255 574.419 433.677 331.469 433.568C88.5182 433.459 45.8585 382.994 45.8585 382.994Z" fill="url(#paint2_linear_127_1272)"/>
</g>
<path d="M144.383 236.666C142.63 252.81 143.39 273.24 130.838 280.462C124.968 283.834 117.942 282.896 111.058 281.957C102.739 280.823 94.6274 279.689 89.0015 286.158C84.3156 291.529 83.3941 300.646 77.9104 304.88C70.6093 310.532 61.0516 303.898 52.2795 303.696C38.0853 303.372 27.6411 321.191 27.7739 337.689C27.9106 354.186 36.0724 368.822 43.4069 382.941L102.242 382.968C105.91 373.629 114.442 366.956 123.326 366.948C128.566 366.951 134.541 368.761 138.501 364.796C142.863 360.421 141.574 352.243 143.817 346.072C146.99 337.296 156.38 334.461 164.538 333.525C172.684 332.591 181.851 331.937 187.295 324.818C192.497 318.014 192.278 307.922 193.432 298.912C194.425 291.18 196.76 283.424 201.386 277.736C206.001 272.048 213.211 268.789 219.67 270.963C231.632 274.957 234.473 292.7 241.544 304.602C246.911 313.639 255.662 319.862 265.03 321.308C272.056 322.392 279.556 320.975 285.977 324.463C297.079 330.5 299.526 347.655 308.063 357.867C316.427 367.879 331.075 369.706 341.082 361.988C344.868 359.069 348.091 354.94 352.433 353.37C362.842 349.607 371.863 361.78 381.491 367.734C390.817 373.487 402.659 373.282 411.837 367.207C423.562 359.444 430.785 343.15 443.82 339.084C448.104 337.75 452.755 337.846 457.35 337.942C464.414 338.09 471.344 338.238 476.601 333.184C479.611 330.3 481.48 326.088 482.673 321.771C487.091 305.815 483.149 287.965 487.587 272.022C492.48 254.434 508.586 242.919 524.243 243.232C522.69 241.26 520.994 239.439 519.157 237.796C507.793 227.571 490.542 225.534 479.091 235.631C466.326 246.901 461.663 270.766 445.954 274.432C438.738 276.121 431.615 272.719 424.538 269.32C416.89 265.644 409.298 261.968 401.709 264.719C389.816 269.032 385.943 285.963 383.809 300.218C381.662 314.486 377.335 331.414 365.28 335.071C355.74 337.965 346.222 330.662 338.978 322.879C331.741 315.097 324.507 305.964 314.796 304.024C311.715 303.411 308.54 303.57 305.382 303.727C301.025 303.945 296.697 304.164 292.678 302.36C283.845 298.402 280.034 286.361 278.534 275.494C277.033 264.629 276.554 252.823 270.702 244.162C261.641 230.745 243.833 231.031 230.02 236.809C226.265 238.381 222.397 240.292 218.43 239.739C214.786 239.232 211.576 236.684 208.842 233.832C197.156 221.67 188.926 201.52 173.279 200.163C172.774 200.119 172.271 200.098 171.774 200.097C156.884 200.091 146.295 219.134 144.383 236.666Z" fill="url(#paint3_linear_127_1272)"/>
<path d="M487.585 271.99C483.147 287.933 487.088 305.782 482.671 321.738C481.478 326.055 479.608 330.267 476.599 333.151C471.341 338.205 464.412 338.057 457.348 337.909C452.754 337.813 448.102 337.717 443.818 339.051C430.783 343.117 423.559 359.411 411.835 367.173C402.657 373.248 390.815 373.453 381.489 367.7C371.861 361.746 362.84 349.574 352.43 353.337C348.088 354.906 344.866 359.035 341.08 361.954C331.072 369.673 316.425 367.846 308.06 357.834C299.524 347.622 297.077 330.467 285.975 324.43C279.554 320.943 272.054 322.359 265.028 321.276C255.66 319.829 246.909 313.607 241.542 304.569C234.471 292.668 231.63 274.925 219.668 270.931C213.209 268.757 205.999 272.016 201.384 277.704C196.758 283.392 194.423 291.148 193.43 298.88C192.276 307.89 192.495 317.982 187.293 324.785C181.849 331.904 172.682 332.558 164.536 333.491C156.378 334.428 146.988 337.263 143.815 346.039C141.572 352.21 142.861 360.388 138.499 364.763C134.539 368.727 128.564 366.917 123.325 366.915C114.441 366.922 105.908 373.595 102.24 382.934L591.009 383.153C598.503 374.392 600.699 360.229 596.857 348.658C592.854 336.63 582.883 327.814 571.961 325.556C563.876 323.875 554.859 325.267 548.067 319.878C538.167 312.024 538.88 295.292 537.795 281.41C536.698 267.459 532.334 253.4 524.241 243.201C524.038 243.197 523.835 243.194 523.631 243.194C508.167 243.187 492.414 254.63 487.585 271.99Z" fill="url(#paint4_linear_127_1272)"/>
<path d="M47.9474 346.837C50.2405 340.315 55.7569 335.685 61.7812 335.116C69.3429 334.401 79.2144 339.433 84.0637 329.879C87.2229 323.655 86.8141 315.857 89.5586 309.403C96.1954 293.794 114.155 299.027 125.931 298.653C134.737 298.374 141.877 294.029 146.561 285.293C150.733 277.514 152.344 268.531 153.997 259.697C155.762 250.257 157.736 240.386 163.205 232.806C167.934 226.249 174.884 221.73 182.388 223.196C183.029 223.321 182.762 224.453 182.126 224.329C174.21 222.782 167.036 228.444 162.582 235.646C158.023 243.017 156.408 252.298 154.785 261.002C152.22 274.762 148.59 291.698 136.109 297.625C123.051 303.827 107.046 293.705 94.9401 303.784C89.3495 308.44 88.7253 316.355 87.1732 323.508C85.9184 329.294 83.582 334.833 78.2374 336.52C74.4975 337.701 70.5326 336.798 66.7576 336.413C62.4123 335.973 58.2507 336.372 54.5426 339.277C46.7278 345.398 45.7206 358.143 51.998 366.141C52.4339 366.699 51.727 367.536 51.288 366.977C47.0624 361.592 45.5413 353.681 47.9474 346.837Z" fill="#51ADC6"/>
<path d="M72.8501 353.867C81.2485 350.149 92.0006 352.288 97.6095 342.426C101.71 335.216 102.658 326.31 109.182 321.125C114.739 316.71 121.993 315.878 128.157 318.973C128.754 319.272 128.247 320.288 127.657 319.992C121.038 316.671 112.914 318.295 107.64 324.049C102.628 329.516 101.837 337.898 97.8152 344.125C93.6087 350.64 86.7179 351.69 80.2674 352.958C76.5906 353.681 72.7502 354.577 69.6259 357.089C66.0866 359.933 63.7085 365.386 65.5734 370.241C65.8355 370.923 64.9639 371.517 64.6988 370.828C61.8415 363.387 67.0965 356.415 72.8501 353.867Z" fill="#51ADC6"/>
<path d="M144.366 329.391C152.461 325.109 162.239 325.204 169.308 318.378C183.1 305.058 179.57 280.576 190.551 265.174C195.57 258.134 203.879 253.381 211.666 256.659C212.273 256.915 212.016 258.05 211.404 257.792C203.71 254.553 195.604 259.526 190.856 266.615C185.66 274.372 183.928 284.423 181.737 293.691C179.926 301.36 177.651 309.193 173.24 315.422C168.367 322.304 161.487 324.78 154.315 326.901C145.783 329.425 132.536 334.925 135.084 348.223C135.225 348.956 134.249 349.257 134.108 348.517C132.455 339.899 138.03 332.743 144.366 329.391Z" fill="#51ADC6"/>
<path d="M233.202 250.786C240.69 246.101 249.674 250.547 254.804 257.627C261.398 266.733 262.439 279.264 265.44 290.21C267.003 295.914 269.147 301.627 272.623 306.127C276.288 310.872 281.064 313.145 286.367 314.255C295.087 316.078 304.581 315.854 310.587 324.683C313.903 329.56 315.588 335.541 318.153 340.927C321.177 347.27 326.818 354.011 333.641 352.13C334.272 351.956 334.529 353.091 333.895 353.266C324.65 355.815 318.615 345.03 315.237 336.758C313.13 331.597 311.079 326.053 307.23 322.288C303.061 318.215 297.517 317.227 292.294 316.42C287.988 315.755 283.585 315.224 279.535 313.279C275.611 311.394 272.434 308.153 269.991 304.152C264.224 294.708 263.103 282.963 260.098 272.211C258.185 265.361 255.362 258.606 250.228 254.273C245.441 250.235 239.135 248.407 233.707 251.803C233.135 252.16 232.629 251.145 233.202 250.786Z" fill="#51ADC6"/>
<path d="M382.312 348.201C385.872 352.583 391.374 352.872 396.019 350.85C401.283 348.558 404.967 343.115 408.017 337.88C413.074 329.203 418.036 318.265 427.692 315.951C437.57 313.583 448.503 321.171 457.677 314.361C467.201 307.294 467.981 292.577 469.758 280.957C471.477 269.712 475.86 256.245 486.841 253.986C487.475 253.856 487.736 254.99 487.094 255.122C474.733 257.664 471.703 273.931 470.065 286.01C468.613 296.706 466.584 309.492 457.88 315.603C448.529 322.168 437.863 314.715 427.946 317.087C416.624 319.794 412.248 334.245 405.675 343.541C402.452 348.099 398.399 351.872 393.296 352.934C389.03 353.821 384.644 352.779 381.603 349.036C381.156 348.488 381.866 347.651 382.312 348.201Z" fill="#51ADC6"/>
<path d="M520.55 260.328C512.886 265.059 506.674 272.53 502.73 281.508C498.469 291.211 497.434 301.575 498.677 312.285C499.994 323.645 502.761 338.998 493.207 346.864C484.309 354.191 472.536 349.982 462.518 351.15C454.161 352.124 444.128 358.901 445.722 370.26C445.82 370.956 446.73 370.667 446.632 369.976C445.792 363.987 449.041 358.672 453.253 355.6C457.813 352.272 463.371 351.909 468.614 352.029C477.139 352.225 486.958 353.803 494.237 347.334C501.129 341.208 501.636 330.274 500.687 321.078C500.066 315.05 498.952 309.062 499.015 302.963C499.069 297.704 499.938 292.474 501.488 287.534C504.995 276.358 511.97 266.863 521.016 261.279C521.553 260.947 521.085 259.997 520.55 260.328Z" fill="#51ADC6"/>
<path d="M530.87 315.125C517.99 320.399 525.653 340.606 522.397 351.528C519.648 360.742 511.902 360.158 505.025 361.594C500.197 362.603 494.755 366.217 495.35 372.799C495.413 373.493 496.355 373.497 496.293 372.793C495.421 363.17 505.945 362.668 511.552 361.757C516.376 360.974 520.652 358.803 522.763 353.407C525.002 347.682 524.278 341.368 523.982 335.304C523.638 328.239 524.366 318.945 531.113 316.183C531.683 315.95 531.442 314.891 530.87 315.125Z" fill="#51ADC6"/>
<path d="M268.544 341.121C262.581 338.932 256.385 340.266 250.265 339.977C246.709 339.807 243.169 338.946 240.295 336.377C238.099 334.414 236.434 331.784 234.827 329.194C232.35 325.204 229.803 320.592 225.652 318.804C220.592 316.626 215.66 319.813 212.329 324.194C208.303 329.489 206.653 336.33 203.674 342.36C202.059 345.626 200.01 348.656 197.154 350.543C193.839 352.732 189.945 353.106 186.21 352.855C178.695 352.351 170.609 348.777 163.226 352.1C158.109 354.404 153.881 360.543 155.355 367.126C155.509 367.81 156.419 367.526 156.266 366.844C154.229 357.748 162.72 352.179 169.293 351.876C175.652 351.583 181.822 354.031 188.172 354.022C193.324 354.015 198.202 352.203 201.667 347.605C205.112 343.03 206.799 337.165 209.108 331.812C211.782 325.611 217.01 317.881 223.813 319.344C228.659 320.386 231.513 325.729 234.181 330.016C236.657 333.993 239.34 337.835 243.404 339.637C248.593 341.939 254.342 340.915 259.749 340.895C266.373 340.872 272.421 343.084 277.404 348.291C282.246 353.351 285.377 360.352 285.825 367.93C285.866 368.629 286.809 368.631 286.767 367.925C286.049 355.744 278.565 344.798 268.544 341.121Z" fill="#51ADC6"/>
<path d="M262.053 351.003L262.058 336.872C262.061 328.961 268.18 322.541 275.714 322.544L294.005 322.552C301.548 322.556 307.652 328.981 307.649 336.892L307.644 351.023C307.641 358.944 301.532 365.352 293.989 365.349L275.698 365.341C268.165 365.338 262.05 358.924 262.053 351.003ZM318.814 351.028L318.819 336.897C318.822 328.986 324.932 322.566 332.475 322.57L350.768 322.578C358.301 322.581 364.414 329.007 364.411 336.918L364.406 351.049C364.403 358.97 358.285 365.378 350.752 365.375L332.459 365.366C324.916 365.363 318.811 358.949 318.814 351.028ZM377.892 351.055L377.898 336.924C377.901 329.013 384.01 322.593 391.552 322.596L409.844 322.604C417.377 322.608 423.491 329.033 423.488 336.944L423.483 351.075C423.48 358.996 417.361 365.404 409.828 365.401L391.537 365.393C383.995 365.389 377.889 358.976 377.892 351.055ZM262.679 291.128L262.685 276.997C262.687 269.087 268.796 262.668 276.338 262.671L294.631 262.679C302.164 262.683 308.277 269.107 308.274 277.017L308.269 291.148C308.266 299.07 302.148 305.479 294.615 305.476L276.322 305.468C268.78 305.464 262.676 299.05 262.679 291.128ZM319.441 291.153L319.446 277.022C319.449 269.112 325.557 262.693 333.091 262.697L351.382 262.705C358.926 262.708 365.029 269.133 365.026 277.043L365.02 291.174C365.018 299.095 358.91 305.505 351.366 305.501L333.075 305.493C325.541 305.49 319.438 299.075 319.441 291.153ZM378.516 291.18L378.522 277.049C378.525 269.139 384.635 262.72 392.168 262.723L410.46 262.731C418.002 262.735 424.107 269.159 424.104 277.069L424.099 291.2C424.096 299.122 417.986 305.531 410.444 305.528L392.153 305.52C384.62 305.516 378.514 299.102 378.516 291.18ZM435.269 291.205L435.274 277.074C435.277 269.164 441.397 262.745 448.93 262.748L467.221 262.757C474.754 262.76 480.869 269.185 480.866 277.095L480.861 291.226C480.858 299.147 474.738 305.557 467.205 305.553L448.914 305.545C441.381 305.542 435.266 299.127 435.269 291.205ZM490.795 291.23L490.8 277.099C490.803 269.189 496.922 262.77 504.455 262.773L522.748 262.782C530.29 262.785 536.394 269.21 536.391 277.12L536.386 291.251C536.383 299.172 530.274 305.582 522.732 305.578L504.439 305.57C496.906 305.567 490.792 299.152 490.795 291.23ZM260.997 231.254L261.003 217.121C261.006 209.213 267.114 202.791 274.656 202.795L292.949 202.803C300.482 202.806 306.595 209.233 306.592 217.142L306.587 231.274C306.584 239.194 300.466 245.603 292.933 245.6L274.641 245.592C267.099 245.588 260.994 239.173 260.997 231.254ZM317.759 231.279L317.764 217.147C317.767 209.238 323.875 202.817 331.418 202.82L349.71 202.828C357.244 202.832 363.348 209.258 363.345 217.167L363.34 231.3C363.337 239.219 357.228 245.629 349.694 245.625L331.402 245.617C323.859 245.614 317.756 239.199 317.759 231.279ZM376.836 231.306L376.841 217.173C376.844 209.265 382.954 202.843 390.486 202.847L408.778 202.855C416.32 202.858 422.425 209.285 422.422 217.194L422.417 231.326C422.414 239.246 416.305 245.655 408.762 245.652L390.471 245.644C382.938 245.64 376.833 239.225 376.836 231.306ZM433.587 231.331L433.592 217.199C433.595 209.29 439.715 202.869 447.248 202.872L465.539 202.88C473.082 202.884 479.187 209.31 479.184 217.219L479.179 231.352C479.176 239.271 473.066 245.681 465.523 245.677L447.232 245.669C439.699 245.666 433.584 239.251 433.587 231.331ZM489.123 231.356L489.129 217.224C489.132 209.315 495.24 202.894 502.774 202.897L521.066 202.905C528.608 202.909 534.712 209.335 534.709 217.244L534.704 231.376C534.701 239.296 528.592 245.705 521.05 245.702L502.758 245.694C495.225 245.691 489.12 239.276 489.123 231.356ZM261.622 171.379L261.628 157.248C261.631 149.337 267.739 142.917 275.282 142.921L293.574 142.929C301.107 142.932 307.212 149.358 307.209 157.269L307.204 171.4C307.201 179.321 301.091 185.73 293.558 185.727L275.267 185.718C267.724 185.715 261.62 179.3 261.622 171.379ZM318.374 171.405L318.379 157.274C318.382 149.363 324.501 142.943 332.034 142.946L350.326 142.954C357.868 142.958 363.974 149.383 363.971 157.294L363.966 171.425C363.963 179.346 357.852 185.755 350.31 185.752L332.018 185.744C324.485 185.74 318.371 179.326 318.374 171.405ZM377.451 171.431L377.457 157.3C377.46 149.389 383.578 142.969 391.111 142.973L409.403 142.981C416.946 142.984 423.049 149.41 423.047 157.321L423.041 171.452C423.038 179.373 416.931 185.782 409.388 185.779L391.096 185.77C383.562 185.767 377.449 179.352 377.451 171.431ZM434.213 171.457L434.218 157.326C434.221 149.415 440.33 142.995 447.873 142.998L466.165 143.006C473.699 143.01 479.812 149.435 479.809 157.346L479.804 171.477C479.801 179.398 473.683 185.807 466.149 185.804L447.857 185.796C440.314 185.792 434.21 179.378 434.213 171.457ZM489.739 171.482L489.745 157.351C489.747 149.44 495.866 143.02 503.399 143.023L521.692 143.031C529.224 143.035 535.338 149.46 535.335 157.371L535.33 171.502C535.327 179.423 529.208 185.832 521.676 185.829L503.383 185.821C495.851 185.817 489.736 179.403 489.739 171.482ZM245.961 382.938L552.433 383.076L552.528 127.858L246.055 127.721L245.961 382.938Z" fill="url(#paint5_linear_127_1272)"/>
<path d="M504.777 86.7157C505.464 92.1036 508.565 96.3152 512.153 96.3168C513.408 96.3173 514.422 97.2326 514.422 98.3588C514.421 99.4839 513.406 100.398 512.152 100.398C505.96 100.395 501.013 94.544 500.212 86.7137L465.006 86.6979C465.685 92.0858 468.783 96.2973 472.373 96.2989C473.627 96.2995 474.651 97.2148 474.651 98.341C474.651 99.4661 473.625 100.38 472.372 100.38C466.188 100.377 461.232 94.5262 460.431 86.6958L426.424 86.6806C427.11 92.0685 430.209 96.28 433.789 96.2816C435.044 96.2822 436.066 97.1975 436.066 98.3236C436.065 99.4488 435.042 100.363 433.788 100.363C427.604 100.36 422.649 94.5089 421.848 86.6785L382.708 86.661C383.396 92.0488 386.496 96.2604 390.085 96.262C391.339 96.2626 392.354 97.1778 392.353 98.304C392.353 99.4292 391.337 100.344 390.083 100.343C383.891 100.34 378.934 94.4892 378.133 86.6589L344.125 86.6436C344.811 92.0315 347.912 96.2431 351.502 96.2447C352.754 96.2452 353.769 97.1605 353.768 98.2867C353.768 99.4118 352.753 100.326 351.5 100.326C345.307 100.323 340.351 94.4719 339.55 86.6416L304.345 86.6258C305.033 92.0137 308.132 96.2252 311.721 96.2268C312.975 96.2274 313.99 97.1427 313.99 98.2689C313.989 99.394 312.973 100.308 311.72 100.308C305.526 100.305 300.58 94.4541 299.779 86.6237L265.761 86.6085C266.448 91.9964 269.547 96.2079 273.137 96.2095C274.391 96.2101 275.405 97.1254 275.405 98.2516C275.404 99.3767 274.389 100.291 273.136 100.29C266.943 100.288 261.997 94.4368 261.195 86.6064L245.976 86.5996L245.961 127.714L552.429 127.851L552.444 86.7371L504.777 86.7157Z" fill="#EB0808"/>
<path d="M504.423 262.667C496.89 262.664 490.771 269.083 490.768 276.993L490.763 291.124C490.76 299.046 496.874 305.461 504.407 305.464L522.7 305.472C530.242 305.476 536.351 299.066 536.354 291.144L536.359 277.013C536.362 269.103 530.258 262.679 522.716 262.675L504.423 262.667Z" fill="#EB0808"/>
<path d="M503.324 142.913C495.791 142.91 489.672 149.33 489.669 157.241L489.664 171.372C489.661 179.293 495.775 185.708 503.308 185.711L521.601 185.719C529.133 185.723 535.252 179.313 535.254 171.393L535.26 157.262C535.263 149.35 529.148 142.925 521.616 142.921L503.324 142.913Z" fill="#EB0808"/>
<path d="M502.721 202.79C495.187 202.786 489.078 209.208 489.075 217.117L489.07 231.249C489.067 239.168 495.171 245.583 502.705 245.587L520.997 245.595C528.539 245.598 534.648 239.189 534.651 231.269L534.656 217.137C534.659 209.228 528.555 202.801 521.013 202.798L502.721 202.79Z" fill="#EB0808"/>
<path d="M448.899 262.667C441.366 262.664 435.246 269.083 435.243 276.993L435.238 291.124C435.235 299.046 441.35 305.461 448.883 305.464L467.174 305.472C474.707 305.476 480.827 299.066 480.83 291.144L480.835 277.013C480.838 269.103 474.723 262.679 467.19 262.675L448.899 262.667Z" fill="#EB0808"/>
<path d="M447.798 142.914C440.255 142.91 434.146 149.33 434.143 157.242L434.138 171.373C434.135 179.293 440.239 185.708 447.782 185.712L466.074 185.72C473.608 185.723 479.726 179.314 479.729 171.393L479.734 157.262C479.737 149.351 473.624 142.925 466.09 142.922L447.798 142.914Z" fill="#EB0808"/>
<path d="M447.194 202.79C439.661 202.786 433.541 209.208 433.538 217.117L433.533 231.249C433.53 239.168 439.645 245.583 447.178 245.587L465.469 245.595C473.012 245.598 479.122 239.189 479.125 231.269L479.13 217.137C479.133 209.228 473.028 202.801 465.485 202.798L447.194 202.79Z" fill="#EB0808"/>
<path d="M392.138 262.667C384.605 262.664 378.494 269.083 378.491 276.993L378.486 291.124C378.483 299.046 384.589 305.461 392.122 305.464L410.414 305.472C417.956 305.476 424.066 299.066 424.069 291.144L424.074 277.013C424.077 269.103 417.972 262.679 410.43 262.675L392.138 262.667Z" fill="#EB0808"/>
<path d="M391.544 322.541C384.002 322.538 377.892 328.958 377.889 336.869L377.884 351C377.881 358.921 383.986 365.335 391.528 365.338L409.82 365.346C417.353 365.35 423.472 358.941 423.475 351.021L423.48 336.89C423.483 328.978 417.369 322.553 409.836 322.549L391.544 322.541Z" fill="#EB0808"/>
<path d="M391.036 142.914C383.503 142.91 377.385 149.33 377.382 157.242L377.376 171.373C377.373 179.293 383.487 185.708 391.021 185.712L409.312 185.72C416.856 185.723 422.963 179.314 422.966 171.393L422.972 157.262C422.974 149.351 416.871 142.925 409.328 142.922L391.036 142.914Z" fill="#EB0808"/>
<path d="M390.434 202.79C382.901 202.786 376.791 209.208 376.788 217.117L376.783 231.249C376.78 239.168 382.885 245.583 390.418 245.587L408.71 245.595C416.252 245.598 422.361 239.189 422.364 231.269L422.37 217.137C422.373 209.228 416.268 202.801 408.725 202.798L390.434 202.79Z" fill="#EB0808"/>
<path d="M333.061 262.667C325.528 262.664 319.42 269.083 319.417 276.993L319.412 291.124C319.409 299.046 325.512 305.461 333.046 305.464L351.336 305.472C358.881 305.476 364.988 299.066 364.991 291.144L364.997 277.013C364.999 269.103 358.896 262.679 351.352 262.675L333.061 262.667Z" fill="#EB0808"/>
<path d="M332.467 322.541C324.924 322.538 318.814 328.958 318.811 336.869L318.806 351C318.803 358.921 324.908 365.335 332.451 365.338L350.744 365.346C358.277 365.35 364.395 358.941 364.398 351.021L364.403 336.89C364.406 328.978 358.293 322.553 350.76 322.549L332.467 322.541Z" fill="#EB0808"/>
<path d="M331.96 142.914C324.427 142.91 318.308 149.33 318.305 157.242L318.3 171.373C318.297 179.293 324.412 185.708 331.944 185.712L350.236 185.72C357.778 185.723 363.889 179.314 363.892 171.393L363.897 157.262C363.9 149.351 357.794 142.925 350.252 142.922L331.96 142.914Z" fill="#EB0808"/>
<path d="M331.366 202.79C323.822 202.786 317.715 209.208 317.712 217.117L317.706 231.249C317.704 239.168 323.807 245.583 331.35 245.587L349.642 245.595C357.175 245.598 363.284 239.189 363.287 231.269L363.292 217.137C363.295 209.228 357.191 202.801 349.657 202.798L331.366 202.79Z" fill="#EB0808"/>
<path d="M276.309 262.667C268.767 262.664 262.658 269.083 262.655 276.993L262.65 291.124C262.647 299.046 268.751 305.461 276.293 305.464L294.586 305.472C302.119 305.476 308.237 299.066 308.24 291.144L308.245 277.013C308.248 269.103 302.135 262.679 294.602 262.675L276.309 262.667Z" fill="url(#paint6_linear_127_1272)"/>
<path d="M275.707 322.541C268.173 322.538 262.054 328.958 262.052 336.869L262.046 351C262.043 358.921 268.158 365.335 275.692 365.338L293.982 365.346C301.525 365.35 307.634 358.941 307.637 351.021L307.642 336.89C307.645 328.978 301.541 322.553 293.998 322.549L275.707 322.541Z" fill="url(#paint7_linear_127_1272)"/>
<path d="M275.21 142.914C267.667 142.91 261.558 149.33 261.555 157.242L261.55 171.373C261.547 179.293 267.651 185.708 275.194 185.712L293.486 185.72C301.019 185.723 307.129 179.314 307.132 171.393L307.137 157.262C307.14 149.351 301.035 142.925 293.502 142.922L275.21 142.914Z" fill="#EB0808"/>
<path d="M274.606 202.79C267.064 202.786 260.955 209.208 260.952 217.117L260.947 231.249C260.944 239.168 267.048 245.583 274.59 245.587L292.883 245.595C300.416 245.598 306.534 239.189 306.537 231.269L306.542 217.137C306.545 209.228 300.432 202.801 292.899 202.798L274.606 202.79Z" fill="url(#paint8_linear_127_1272)"/>
<path d="M284.641 79.0498C284.937 80.1453 284.191 81.251 282.975 81.5121C281.749 81.772 280.524 81.1085 280.228 80.0129C279.043 75.6095 276.249 72.6434 273.29 72.6421C269.213 72.6402 265.766 78.0666 265.763 84.4894C265.763 85.2528 265.81 85.997 265.906 86.7305C266.593 92.1181 269.693 96.3313 273.282 96.3329C274.536 96.3334 275.551 97.2489 275.55 98.3741C275.55 99.4994 274.535 100.414 273.28 100.413C267.088 100.411 262.141 94.5588 261.34 86.7284C261.264 86.0045 261.226 85.2508 261.227 84.4874C261.23 75.5513 266.526 68.5585 273.292 68.5616C278.471 68.5639 282.921 72.6763 284.641 79.0498Z" fill="white"/>
<path d="M363.005 79.0835C363.301 80.179 362.554 81.2847 361.329 81.5457C360.113 81.8057 358.888 81.1422 358.592 80.0466C357.397 75.6432 354.612 72.6771 351.655 72.6758C347.577 72.6739 344.129 78.1003 344.127 84.5231C344.127 85.2865 344.173 86.0307 344.269 86.7642C344.957 92.1518 348.056 96.365 351.646 96.3666C352.899 96.3671 353.913 97.2825 353.913 98.4078C353.913 99.5331 352.897 100.448 351.645 100.447C345.451 100.444 340.496 94.5925 339.694 86.7621C339.617 86.0382 339.58 85.2845 339.58 84.5211C339.583 75.585 344.889 68.5922 351.657 68.5953C356.835 68.5976 361.285 72.71 363.005 79.0835Z" fill="white"/>
<path d="M401.587 79.1003C401.883 80.1958 401.136 81.3016 399.911 81.5626C398.695 81.8226 397.47 81.159 397.174 80.0635C395.979 75.66 393.195 72.6939 390.237 72.6926C386.159 72.6908 382.712 78.1171 382.71 84.54C382.71 85.3033 382.756 86.0475 382.851 86.781C383.539 92.1686 386.639 96.3818 390.228 96.3834C391.482 96.384 392.496 97.2994 392.496 98.4247C392.496 99.55 391.481 100.464 390.227 100.464C384.034 100.461 379.078 94.6093 378.276 86.779C378.2 86.0551 378.162 85.3013 378.162 84.5379C378.165 75.6018 383.471 68.6091 390.239 68.6121C395.408 68.6144 399.867 72.7268 401.587 79.1003Z" fill="white"/>
<path d="M445.301 79.1186C445.598 80.2141 444.841 81.3199 443.626 81.5809C442.41 81.8409 441.175 81.1773 440.878 80.0818C439.693 75.6783 436.909 72.7123 433.942 72.7109C429.874 72.7091 426.426 78.1354 426.424 84.5583C426.424 85.3216 426.471 86.0658 426.566 86.7993C427.254 92.1869 430.354 96.4001 433.933 96.4017C435.188 96.4023 436.21 97.3177 436.21 98.443C436.209 99.5683 435.186 100.483 433.932 100.482C427.748 100.479 422.792 94.6277 421.991 86.7973C421.915 86.0734 421.877 85.3196 421.877 84.5563C421.88 75.6202 427.186 68.6274 433.943 68.6304C439.122 68.6328 443.581 72.7451 445.301 79.1186Z" fill="white"/>
<path d="M483.876 79.1355C484.173 80.231 483.426 81.3367 482.209 81.5977C480.984 81.8577 479.76 81.1942 479.463 80.0986C478.277 75.6952 475.494 72.7291 472.526 72.7278C468.449 72.7259 465.01 78.1523 465.008 84.5751C465.008 85.3385 465.055 86.0827 465.15 86.8162C465.829 92.2037 468.928 96.417 472.517 96.4186C473.771 96.4191 474.795 97.3346 474.795 98.4598C474.794 99.5851 473.769 100.5 472.516 100.499C466.333 100.496 461.376 94.6445 460.575 86.8141C460.499 86.0902 460.461 85.3365 460.461 84.5731C460.464 75.637 465.77 68.6442 472.527 68.6473C477.707 68.6496 482.164 72.762 483.876 79.1355Z" fill="white"/>
<path d="M323.224 79.0666C323.52 80.1621 322.774 81.2679 321.548 81.5289C320.332 81.7889 319.107 81.1253 318.811 80.0298C317.626 75.6263 314.832 72.6603 311.873 72.6589C307.796 72.6571 304.349 78.0834 304.346 84.5063C304.346 85.2696 304.394 86.0138 304.489 86.7473C305.176 92.1349 308.276 96.3481 311.865 96.3497C313.119 96.3503 314.134 97.2657 314.133 98.391C314.133 99.5163 313.118 100.431 311.863 100.43C305.671 100.427 300.724 94.5757 299.923 86.7453C299.847 86.0214 299.808 85.2676 299.809 84.5043C299.812 75.5682 305.109 68.5754 311.875 68.5784C317.054 68.5808 321.504 72.6931 323.224 79.0666Z" fill="white"/>
<path d="M521.989 81.6143C520.764 81.8754 519.539 81.2118 519.243 80.1152C518.058 75.7128 515.273 72.7457 512.306 72.7444C508.228 72.7425 504.78 78.1688 504.778 84.5917C504.778 85.3562 504.825 86.0993 504.92 86.8338C505.608 92.2204 508.707 96.4336 512.297 96.4352C513.551 96.4357 514.565 97.3511 514.565 98.4764C514.565 99.6028 513.549 100.516 512.296 100.516C506.103 100.513 501.156 94.6611 500.355 86.8318C500.278 86.1079 500.24 85.3541 500.24 84.5897C500.244 75.6547 505.539 68.6608 512.308 68.6639C517.485 68.6662 521.945 72.7797 523.656 79.1521C523.952 80.2487 523.204 81.3533 521.989 81.6143Z" fill="white"/>
<path d="M481.672 341.881C481.667 354.957 471.568 365.553 459.115 365.548C446.663 365.542 436.572 354.937 436.577 341.861C436.582 328.786 446.681 318.19 459.133 318.195C471.586 318.201 481.677 328.806 481.672 341.881Z" stroke="#EB0808" stroke-width="6.66667" stroke-miterlimit="1" stroke-linecap="square"/>
<g opacity="0.2">
<path d="M162.484 274.194C162.461 334.297 208.847 383.047 266.086 383.072C323.326 383.098 369.75 334.39 369.772 274.287C369.794 214.178 323.407 165.431 266.167 165.405C208.927 165.38 162.506 214.085 162.484 274.194Z" fill="black"/>
</g>
<path d="M143.296 274.107C143.274 334.211 189.658 382.961 246.899 382.987C304.138 383.012 350.561 334.303 350.583 274.2C350.606 214.092 304.218 165.344 246.98 165.319C189.739 165.293 143.318 213.999 143.296 274.107Z" fill="#EB0808"/>
<path d="M155.305 274.109C155.285 327.241 196.294 370.342 246.9 370.365C297.507 370.387 338.545 327.323 338.565 274.191C338.585 221.05 297.579 177.953 246.971 177.93C196.366 177.907 155.325 220.968 155.305 274.109Z" fill="url(#paint9_linear_127_1272)"/>
<path d="M248.744 209.247L243.811 209.245L243.818 187.928L248.752 187.93L248.744 209.247Z" fill="#1F1C38"/>
<path d="M248.685 363.869L243.752 363.867L243.76 342.543L248.693 342.545L248.685 363.869Z" fill="#1F1C38"/>
<path d="M163.211 271.849L183.514 271.859L183.513 276.548L163.209 276.539L163.211 271.849Z" fill="#1F1C38"/>
<path d="M330.757 276.613L310.451 276.604L310.453 271.914L330.759 271.923L330.757 276.613Z" fill="#1F1C38"/>
<path d="M246.008 149.978L259.277 190.767L233.291 190.755L246.008 149.978Z" fill="#1F1C38"/>
<path d="M241.633 277.392L250.872 277.396L250.908 182.198L241.668 182.194L241.633 277.392Z" fill="#1F1C38"/>
<path d="M155.462 274.498L194.305 260.567L194.295 287.852L155.462 274.498Z" fill="#1F1C38"/>
<path d="M250.874 269.384L186.144 269.355L186.141 279.054L250.87 279.083L250.874 269.384Z" fill="#1F1C38"/>
<path d="M233.902 276.453C233.9 282.285 238.405 287.02 243.962 287.023C249.522 287.025 254.028 282.294 254.03 276.462C254.033 270.625 249.53 265.895 243.97 265.892C238.412 265.89 233.905 270.616 233.902 276.453Z" fill="#1F1C38"/>
<path d="M605.527 375.17C605.527 375.17 612.875 388.422 610.047 392.41C607.219 396.4 593.148 395.754 591.712 392.402C590.287 389.062 593.764 375.165 593.764 375.165L605.527 375.17Z" fill="#EB0808"/>
<path d="M591.775 229.476L608.229 375.171L605.53 375.17L593.767 375.164L591.721 375.163L565.135 247.991L539.666 242.721L546.033 232.252L546.042 232.252C569.018 241.415 591.775 229.476 591.775 229.476Z" fill="#1F1C38"/>
<path d="M565.136 247.991L565.088 377.721L561.897 377.719L544.498 377.712C543.529 366.2 537.847 247.101 537.783 245.813L537.783 245.803L539.666 242.72L565.136 247.991Z" fill="#121226"/>
<path d="M561.894 377.719L563.606 394.452L526.102 394.436C529.414 386.076 544.497 377.711 544.497 377.711L561.894 377.719Z" fill="#EB0808"/>
<path d="M573.156 187.262L592.823 176.695L587.536 163.644L573.156 187.262Z" fill="url(#paint10_linear_127_1272)"/>
<path d="M565.048 207.411L565.05 202.867C565.05 202.867 564.451 203.01 563.45 203.239L545.941 231.999C568.917 241.163 591.674 229.224 591.674 229.224L591.013 200.054C578.738 203.676 565.048 207.411 565.048 207.411Z" fill="url(#paint11_linear_127_1272)"/>
<path d="M557.494 143.175L552.697 134.019C552.697 134.019 536.012 142.458 535.648 144.778C535.275 147.087 529.99 205.005 529.99 205.005L530.563 205.396L539.35 191.159L572.711 137.101L575.885 131.966L578.897 127.091L570.135 124.281L557.494 143.175Z" fill="url(#paint12_linear_127_1272)"/>
<path d="M598.234 146.088L595.096 151.242L587.546 163.647L592.833 176.698L573.166 187.265L565.047 191.624L565.041 207.401C565.041 207.401 578.732 203.667 591.006 200.044C600.805 197.156 609.575 194.264 609.988 193.524C612.48 189.068 601.427 140.85 601.427 140.85L598.234 146.088Z" fill="url(#paint13_linear_127_1272)"/>
<path d="M523.87 207.969C521.725 209.895 513.876 220.382 517.001 224.698C517.302 225.118 517.637 225.481 517.992 225.776C521.337 228.699 526.872 227.251 529.31 224.703L529.319 224.694L530.7 222.451C530.7 222.441 530.7 222.432 530.709 222.432C532.202 218.758 532.213 212.668 529.325 207.408C529.325 207.408 528.19 206.938 526.817 206.938C525.847 206.937 524.759 207.171 523.87 207.969Z" fill="url(#paint14_linear_127_1272)"/>
<path d="M551.339 189.061L551.33 189.061L550.748 190.005C551.312 191.428 554.347 193.969 554.61 194.188C554.383 194.093 552.029 193.052 549.347 192.277C546.184 191.368 542.568 190.832 541.512 192.627C541.439 192.75 541.375 192.893 541.33 193.038C540.402 195.91 540.345 201.102 542.054 204.062C542.825 205.408 543.96 206.296 545.552 206.297C547.06 206.298 549.38 205.993 551.897 205.574C556.16 204.861 560.996 203.794 563.442 203.241L565.041 202.869L565.045 193.687C565.045 193.687 563 192.789 560.456 191.777C557.24 190.497 553.219 189.052 551.553 189.051C551.477 189.051 551.406 189.054 551.339 189.061Z" fill="url(#paint15_linear_127_1272)"/>
<path d="M580.597 124.262C580.597 124.262 587.164 136.024 602.298 137.959L602.908 138.37L612.476 122.654C589.004 128.752 590.076 108.908 590.076 108.908L580.597 124.262Z" fill="url(#paint16_linear_127_1272)"/>
<path d="M590.214 109.174L612.615 122.919C589.143 129.017 590.214 109.174 590.214 109.174Z" fill="#615AA3"/>
<path d="M579.009 127.334L580.736 124.529C580.736 124.529 587.304 136.29 602.438 138.225L603.047 138.637L601.537 141.108L598.345 146.346L597.972 146.098C582.838 144.163 576.279 132.401 576.279 132.401L575.997 132.209L579.009 127.334Z" fill="#C6C6C6"/>
<path d="M579.192 144.439C575.085 140.991 573.186 137.592 573.186 137.592L572.822 137.344L575.997 132.21L576.278 132.401C576.278 132.401 582.837 144.164 597.971 146.098L598.344 146.347L595.206 151.5L594.879 151.28C591.979 150.906 589.398 150.18 587.116 149.243C583.89 147.915 581.263 146.167 579.192 144.439Z" fill="#828282"/>
<path d="M560.45 191.767C562.994 192.779 565.039 193.677 565.039 193.677L565.039 191.626L573.159 187.267L587.539 163.649L595.089 151.244L594.762 151.024C591.862 150.65 589.281 149.924 586.999 148.987L560.45 191.767Z" fill="url(#paint17_linear_127_1272)"/>
<path d="M551.331 189.055C552.841 188.913 557.085 190.433 560.448 191.771L586.998 148.991C583.771 147.662 581.144 145.916 579.073 144.187L551.331 189.055Z" fill="url(#paint18_linear_127_1272)"/>
<path d="M539.357 191.16L530.569 205.397L529.324 207.402C532.212 212.662 532.201 218.752 530.708 222.426L542.061 204.067C540.352 201.106 540.409 195.914 541.337 193.042C541.382 192.898 541.446 192.755 541.519 192.631C542.575 190.837 546.191 191.372 549.354 192.281L550.755 190.01C550.556 189.494 550.666 189.132 551.337 189.065L551.346 189.065L579.088 144.197C574.981 140.749 573.082 137.35 573.082 137.35L572.718 137.102L539.357 191.16Z" fill="url(#paint19_linear_127_1272)"/>
<path d="M551.935 205.596L492.15 301.947C492.15 301.947 498.006 297.54 500.087 298.247C502.169 298.954 500.821 306.17 500.821 306.17L537.711 245.584L537.711 245.575L539.595 242.493L545.961 232.024L545.97 232.024L563.48 203.263C561.034 203.816 556.198 204.883 551.935 205.596Z" fill="url(#paint20_linear_127_1272)"/>
<path d="M530.737 222.447C530.728 222.447 530.728 222.456 530.728 222.466C530.356 223.382 529.884 224.145 529.347 224.709L529.337 224.718L484.515 297.213C484.515 297.213 490.562 292.615 492.461 293.197C494.352 293.781 492.148 301.95 492.148 301.95L551.933 205.599C549.416 206.019 547.096 206.323 545.589 206.323C543.996 206.322 542.861 205.433 542.09 204.088L530.737 222.447Z" fill="url(#paint21_linear_127_1272)"/>
<path d="M549.342 192.272C552.024 193.048 554.379 194.088 554.605 194.184C554.342 193.965 551.307 191.423 550.743 190.001L549.342 192.272Z" fill="url(#paint22_linear_127_1272)"/>
<path d="M518.019 225.794L477.782 290.979C477.782 290.979 484.036 286.439 485.199 287.728C486.363 289.017 484.515 297.216 484.515 297.216L529.337 224.721C526.9 227.269 521.364 228.717 518.019 225.794Z" fill="url(#paint23_linear_127_1272)"/>
<path d="M477.787 290.981L475.525 309.537C485.532 312.787 480.957 319.294 480.957 319.294L500.825 306.178C500.825 306.178 502.172 298.963 500.09 298.255C498.009 297.549 492.153 301.955 492.153 301.955C492.153 301.955 494.357 293.786 492.466 293.202C490.567 292.62 484.521 297.218 484.521 297.218C484.521 297.218 486.368 289.019 485.204 287.73C485.06 287.57 484.837 287.501 484.558 287.5C482.584 287.5 477.787 290.981 477.787 290.981Z" fill="url(#paint24_linear_127_1272)"/>
<path d="M475.596 309.758C485.603 313.008 481.028 319.515 481.028 319.515C474.537 321.44 474.41 319.512 474.41 319.512L475.596 309.758Z" fill="#1F1C38"/>
<path d="M574.159 91.7192C575.457 95.6806 576.808 103.852 569.312 118.433L568.687 114.31C568.687 114.31 572.043 110.971 571.144 106.446C570.255 101.93 565.553 108.792 565.553 108.792C565.553 108.792 567.012 97.7011 562.876 96.1149C559.177 94.6997 547.985 101.711 541.022 100.629C540.186 100.495 539.422 100.247 538.732 99.8642C532.252 96.225 530.853 92.3489 537.508 92.5814C544.152 92.8225 555.955 82.9683 559.526 84.8499C563.107 86.722 563.215 89.3089 563.215 89.3089C563.215 89.3089 572.815 87.6146 574.159 91.7192Z" fill="#1F1C38"/>
<path d="M540.819 100.67L540.848 101.177C540.858 100.66 540.866 100.376 540.866 100.376L540.819 100.67Z" fill="url(#paint25_linear_127_1272)"/>
<path d="M552.789 98.0834C548.723 99.4973 544.294 100.909 540.882 100.376C540.882 100.376 540.874 100.66 540.863 101.176L541.65 116.466C542.207 120.177 543.144 123.32 544.697 124.265C546.821 125.553 549.611 126.01 551.958 126.144L553.232 126.144L556.611 126.023C556.65 126.013 556.67 126.013 556.67 126.013L562.984 125.784L557.464 143.169L570.11 124.276L569.176 118.182L568.55 114.064C568.55 114.064 571.902 110.721 571.005 106.198C570.119 101.687 565.414 108.538 565.414 108.538C565.414 108.538 566.876 97.4577 562.735 95.8629C562.396 95.7336 561.993 95.6758 561.535 95.6756C559.455 95.6746 556.254 96.8786 552.789 98.0834Z" fill="url(#paint26_linear_127_1272)"/>
<path d="M553.225 126.14L551.951 126.139C554.326 126.272 556.248 126.059 556.605 126.019L553.225 126.14Z" fill="url(#paint27_linear_127_1272)"/>
<path d="M563.12 126.029L557.605 143.419L552.808 134.262L553.365 126.398L563.12 126.029Z" fill="#F79244"/>
<path d="M552.866 117.011C551.696 117.067 550.527 117.122 549.358 117.177C549.024 113.439 548.689 109.7 548.356 105.961C548.302 105.354 547.392 105.353 547.446 105.966C547.796 109.869 548.143 113.773 548.492 117.677C548.522 117.999 548.789 118.145 549.029 118.125C549.064 118.132 549.094 118.144 549.135 118.143L552.87 117.966C553.453 117.938 553.452 116.983 552.866 117.011Z" fill="#F79244"/>
<path d="M555.126 120.236C552.816 121.419 550.338 121.679 547.849 121.017C547.283 120.866 547.05 121.789 547.62 121.941C550.343 122.665 553.053 122.359 555.575 121.065C556.103 120.794 555.649 119.967 555.126 120.236Z" fill="#1F1C38"/>
<path d="M559.392 103.215C557.78 101.92 555.688 101.788 553.865 102.637C552.794 103.135 553.704 104.789 554.764 104.296C556.035 103.703 557.407 104.003 558.482 104.868C559.409 105.613 560.309 103.952 559.392 103.215Z" fill="#1F1C38"/>
<path d="M545.717 103.709C544.098 103.216 542.422 103.657 541.169 104.825C540.292 105.642 541.574 106.999 542.446 106.185C543.233 105.451 544.258 105.252 545.258 105.557C546.382 105.899 546.842 104.052 545.717 103.709Z" fill="#1F1C38"/>
<path d="M557.367 107.335C557.366 108.343 556.743 109.159 555.972 109.159C555.202 109.159 554.578 108.342 554.579 107.334C554.579 106.326 555.204 105.51 555.973 105.51C556.744 105.51 557.367 106.327 557.367 107.335Z" fill="#1F1C38"/>
<path d="M545.416 108.262C545.415 109.27 544.791 110.087 544.021 110.086C543.251 110.086 542.627 109.269 542.628 108.261C542.628 107.253 543.253 106.437 544.022 106.437C544.792 106.437 545.416 107.254 545.416 108.262Z" fill="#1F1C38"/>
<path d="M110.636 260.985L139.136 300.389L124.47 361.816L121.53 361.523L106.417 360.018L104.359 359.816L116.075 307.786L93.5403 286.96L93.2027 267.843L110.636 260.985Z" fill="#121226"/>
<path d="M122.416 369.042L134.462 382.958L118.802 382.951L110.545 371.489L110.541 382.947L106.406 382.945L106.415 360.029L106.415 360.019L121.529 361.524L122.416 369.042Z" fill="#EB0808"/>
<path d="M93.5409 286.961L94.2161 325.307L48.0798 374.074L46.358 372.768L46.358 372.757L35.1709 364.249L33.1136 362.68L72.5379 318.061C72.5379 318.061 70.2163 305.143 61.0268 281.198C51.827 257.251 65.8549 243.799 65.8549 243.799C65.8549 243.799 75.2252 246.457 82.2421 245.223C85.6666 250.522 88.2213 254.101 88.2213 254.101L110.637 260.986L93.2033 267.844L93.5409 286.961Z" fill="#1F1C38"/>
<path d="M45.329 382.557L53.0689 394.491L33.1015 394.482L31.7288 378.219L23.8095 386.708L20.3748 384.354L35.1705 364.249L46.3574 372.757L46.3574 372.767L45.329 382.557Z" fill="#EB0808"/>
<path d="M153 211.589L158.605 221.613L159.026 221.35C158.605 221.613 160.011 217.203 161.949 214.659C164.28 211.595 175.565 200.047 175.565 200.047C174.806 199.85 174.023 199.76 173.225 199.76C164.082 199.757 153 211.589 153 211.589Z" fill="url(#paint28_linear_127_1272)"/>
<path d="M101.229 186.088C101.229 186.088 116.01 208.88 114.714 215.202C114.187 217.775 112.656 220.107 111.018 221.975L119.447 229.667L159.374 222.992L158.609 221.635L153.003 211.611L124.439 214.664C111.548 185.117 101.545 183.555 101.545 183.555L101.229 186.088Z" fill="url(#paint29_linear_127_1272)"/>
<path d="M125.939 255.846L124.405 263.473L124.414 263.473C124.414 263.473 146.197 268.699 148.354 261.826C150.511 254.962 151.115 252.44 145.429 250.989C144.846 250.841 144.176 250.773 143.444 250.773C137.059 250.77 125.939 255.846 125.939 255.846Z" fill="url(#paint30_linear_127_1272)"/>
<path d="M65.3248 201.628L65.3248 201.637C64.9501 203.025 64.6924 204.423 64.576 205.799C64.3073 209.086 65.5319 213.579 67.5492 218.505L67.5492 218.514C71.2112 227.502 77.4958 237.948 82.1558 245.178C85.5792 250.476 88.1339 254.054 88.1339 254.054L110.549 260.94L124.092 265.098L124.408 263.499L125.942 255.871L126.335 253.891L101.941 241.669L96.7451 239.062C96.7451 239.062 87.6969 198.682 72.5101 198.676C70.2489 198.676 67.8491 199.571 65.3248 201.628Z" fill="url(#paint31_linear_127_1272)"/>
<path d="M65.3156 201.627C84.7909 185.755 96.736 239.062 96.736 239.062L101.932 241.668L106.035 226.422C106.035 226.422 108.639 224.704 111.024 221.992C112.662 220.124 114.193 217.792 114.721 215.219C116.016 208.897 101.235 186.105 101.235 186.105L99.8434 197.15C84.7775 194.48 80.9274 177.26 80.9274 177.26C80.9274 177.26 68.6327 189.287 65.3156 201.627Z" fill="url(#paint32_linear_127_1272)"/>
<path d="M65.7585 243.752C65.7585 243.752 75.1287 246.41 82.1467 245.177C77.4866 237.947 71.202 227.502 67.54 218.514L65.7585 243.752Z" fill="url(#paint33_linear_127_1272)"/>
<path d="M95.028 158.101C95.028 158.101 91.9277 153.405 87.4565 155.032C82.9863 156.658 88.6582 166.23 88.6582 166.23L80.9117 177.252C80.9117 177.252 84.7618 194.472 99.8278 197.142L94.3333 172.383C94.3333 172.383 98.7258 174.798 102.525 175.643C104.277 176.048 105.894 176.107 106.899 175.454C110.078 173.376 110.2 165.464 110.2 165.464L114.335 165.466C115.113 159.143 110.51 144.891 110.51 144.891C110.51 144.891 104.407 157.743 95.028 158.101Z" fill="url(#paint34_linear_127_1272)"/>
<path d="M106.159 137.021C108.12 139.354 110.149 141.868 110.625 144.943C110.625 144.943 104.523 157.795 95.1429 158.153C95.1429 158.153 92.0436 153.459 87.5735 155.085C83.1024 156.711 88.7752 166.282 88.7752 166.282L81.0267 177.305C81.0267 177.305 68.7321 189.331 65.4161 201.671L65.4161 201.682C63.3103 202.033 60.9753 201.047 59.3959 199.437C57.3581 197.346 56.2774 194.451 55.216 191.676C54.1545 188.892 52.9589 186.027 50.7686 184.105C44.529 178.645 34.0752 183.606 27.4338 178.698C23.061 175.46 22.2118 168.081 25.7353 163.841C28.3402 160.696 32.792 159.222 34.2961 155.362C35.0625 153.383 34.8813 151.161 35.1027 149.041C35.5924 144.518 38.1114 140.288 41.7593 137.847C45.4163 135.407 50.1351 134.805 54.232 136.265C58.0696 137.622 61.323 140.629 65.3144 141.365C70.9711 142.403 76.3031 138.626 80.9956 135.141C85.686 131.655 90.3971 129.97 95.957 131.48C99.7947 132.517 103.528 133.894 106.159 137.021Z" fill="#1F1C38"/>
<path d="M102.64 175.697L101.65 183.617L101.334 186.15L99.9412 197.196L94.4467 172.437C94.4467 172.437 98.8402 174.851 102.64 175.697Z" fill="#F79244"/>
<path d="M109.258 150.704C107.636 150.122 105.803 150.624 104.639 151.938C103.801 152.884 105.142 154.319 105.982 153.371C106.73 152.527 107.742 152.279 108.775 152.649C109.939 153.067 110.421 151.121 109.258 150.704Z" fill="#1F1C38"/>
<path d="M108.747 155.584C108.747 156.632 108.245 157.483 107.628 157.482C107.01 157.482 106.51 156.631 106.511 155.583C106.511 154.534 107.011 153.683 107.63 153.684C108.247 153.684 108.748 154.535 108.747 155.584Z" fill="#1F1C38"/>
<path d="M108.695 169.692C106.754 169.756 104.993 169.151 103.449 167.919C102.959 167.529 102.485 168.402 102.969 168.788C104.634 170.117 106.612 170.766 108.7 170.697C109.314 170.677 109.313 169.671 108.695 169.692Z" fill="#1F1C38"/>
<path d="M310.288 272.589L310.368 274.815L246.944 277.05L246.86 274.829L310.288 272.589Z" fill="#1F1C38"/>
</g>
<defs>
<linearGradient id="paint0_linear_127_1272" x1="-0.393764" y1="193.459" x2="599.21" y2="193.68" gradientUnits="userSpaceOnUse">
<stop stop-color="#8AEBD6"/>
<stop offset="0.8" stop-color="#8AEBD6"/>
<stop offset="1" stop-color="#5193FA"/>
</linearGradient>
<linearGradient id="paint1_linear_127_1272" x1="329.416" y1="383.171" x2="329.587" y2="2.97369" gradientUnits="userSpaceOnUse">
<stop stop-color="#8AEBD6"/>
<stop offset="0.8" stop-color="#8AEBD6"/>
<stop offset="1" stop-color="#5193FA"/>
</linearGradient>
<linearGradient id="paint2_linear_127_1272" x1="336.72" y1="434.422" x2="336.743" y2="383.124" gradientUnits="userSpaceOnUse">
<stop stop-color="#8AEBD6"/>
<stop offset="0.8" stop-color="#8AEBD6"/>
<stop offset="1" stop-color="#5193FA"/>
</linearGradient>
<linearGradient id="paint3_linear_127_1272" x1="275.568" y1="383.121" x2="275.65" y2="200.145" gradientUnits="userSpaceOnUse">
<stop stop-color="#51ADC6"/>
<stop offset="0.2" stop-color="#CAEB8A"/>
<stop offset="1" stop-color="#CAEB8A"/>
</linearGradient>
<linearGradient id="paint4_linear_127_1272" x1="102.204" y1="313.007" x2="596.87" y2="313.19" gradientUnits="userSpaceOnUse">
<stop stop-color="#CAEB8A"/>
<stop offset="0.8" stop-color="#CAEB8A"/>
<stop offset="1" stop-color="#51ADC6"/>
</linearGradient>
<linearGradient id="paint5_linear_127_1272" x1="245.58" y1="255.367" x2="552.48" y2="255.48" gradientUnits="userSpaceOnUse">
<stop stop-color="#F9E6D9"/>
<stop offset="0.22" stop-color="white"/>
<stop offset="1" stop-color="white"/>
</linearGradient>
<linearGradient id="paint6_linear_127_1272" x1="537.757" y1="284.528" x2="265.917" y2="284.427" gradientUnits="userSpaceOnUse">
<stop stop-color="#7B6ED6"/>
<stop offset="0.8" stop-color="#7B6ED6"/>
<stop offset="1" stop-color="#51B9FA"/>
</linearGradient>
<linearGradient id="paint7_linear_127_1272" x1="534.776" y1="344.358" x2="266.471" y2="344.259" gradientUnits="userSpaceOnUse">
<stop stop-color="#7B6ED6"/>
<stop offset="0.8" stop-color="#7B6ED6"/>
<stop offset="1" stop-color="#51B9FA"/>
</linearGradient>
<linearGradient id="paint8_linear_127_1272" x1="534.367" y1="224.695" x2="266.55" y2="224.596" gradientUnits="userSpaceOnUse">
<stop stop-color="#7B6ED6"/>
<stop offset="0.8" stop-color="#7B6ED6"/>
<stop offset="1" stop-color="#51B9FA"/>
</linearGradient>
<linearGradient id="paint9_linear_127_1272" x1="155.082" y1="274.58" x2="338.565" y2="274.648" gradientUnits="userSpaceOnUse">
<stop stop-color="#F9E6D9"/>
<stop offset="0.22" stop-color="white"/>
<stop offset="1" stop-color="white"/>
</linearGradient>
<linearGradient id="paint10_linear_127_1272" x1="593.254" y1="176.493" x2="533.37" y2="172.775" gradientUnits="userSpaceOnUse">
<stop stop-color="#51ADC6"/>
<stop offset="0.2" stop-color="#CAEB8A"/>
<stop offset="1" stop-color="#CAEB8A"/>
</linearGradient>
<linearGradient id="paint11_linear_127_1272" x1="594.46" y1="218.373" x2="516.229" y2="216.353" gradientUnits="userSpaceOnUse">
<stop stop-color="#51ADC6"/>
<stop offset="0.2" stop-color="#CAEB8A"/>
<stop offset="1" stop-color="#CAEB8A"/>
</linearGradient>
<linearGradient id="paint12_linear_127_1272" x1="561.542" y1="164.955" x2="532.105" y2="165.193" gradientUnits="userSpaceOnUse">
<stop stop-color="#51ADC6"/>
<stop offset="0.2" stop-color="#CAEB8A"/>
<stop offset="1" stop-color="#CAEB8A"/>
</linearGradient>
<linearGradient id="paint13_linear_127_1272" x1="603.724" y1="165.051" x2="556.94" y2="186.341" gradientUnits="userSpaceOnUse">
<stop stop-color="#51ADC6"/>
<stop offset="0.2" stop-color="#CAEB8A"/>
<stop offset="1" stop-color="#CAEB8A"/>
</linearGradient>
<linearGradient id="paint14_linear_127_1272" x1="515.982" y1="217.571" x2="530.712" y2="217.577" gradientUnits="userSpaceOnUse">
<stop stop-color="#F7BE86"/>
<stop offset="0.65" stop-color="#F7BE86"/>
<stop offset="1" stop-color="#F79244"/>
</linearGradient>
<linearGradient id="paint15_linear_127_1272" x1="540.383" y1="197.952" x2="565.044" y2="197.961" gradientUnits="userSpaceOnUse">
<stop stop-color="#F7BE86"/>
<stop offset="0.65" stop-color="#F7BE86"/>
<stop offset="1" stop-color="#F79244"/>
</linearGradient>
<linearGradient id="paint16_linear_127_1272" x1="580.035" y1="123.715" x2="612.476" y2="123.727" gradientUnits="userSpaceOnUse">
<stop stop-color="#7B6ED6"/>
<stop offset="0.8" stop-color="#7B6ED6"/>
<stop offset="1" stop-color="#51B9FA"/>
</linearGradient>
<linearGradient id="paint17_linear_127_1272" x1="584.035" y1="178.633" x2="576.22" y2="171.226" gradientUnits="userSpaceOnUse">
<stop stop-color="#3C0887"/>
<stop offset="0.65" stop-color="#3C0887"/>
<stop offset="1" stop-color="#822A8A"/>
</linearGradient>
<linearGradient id="paint18_linear_127_1272" x1="580.419" y1="185.234" x2="561.399" y2="161.336" gradientUnits="userSpaceOnUse">
<stop stop-color="#3C0887"/>
<stop offset="0.65" stop-color="#3C0887"/>
<stop offset="1" stop-color="#822A8A"/>
</linearGradient>
<linearGradient id="paint19_linear_127_1272" x1="541.494" y1="157.273" x2="554.873" y2="180.795" gradientUnits="userSpaceOnUse">
<stop stop-color="#3C0887"/>
<stop offset="0.65" stop-color="#3C0887"/>
<stop offset="1" stop-color="#822A8A"/>
</linearGradient>
<linearGradient id="paint20_linear_127_1272" x1="532.209" y1="259.32" x2="525.974" y2="251.814" gradientUnits="userSpaceOnUse">
<stop stop-color="#3C0887"/>
<stop offset="0.65" stop-color="#3C0887"/>
<stop offset="1" stop-color="#822A8A"/>
</linearGradient>
<linearGradient id="paint21_linear_127_1272" x1="523.423" y1="260.708" x2="507.563" y2="236.434" gradientUnits="userSpaceOnUse">
<stop stop-color="#3C0887"/>
<stop offset="0.65" stop-color="#3C0887"/>
<stop offset="1" stop-color="#822A8A"/>
</linearGradient>
<linearGradient id="paint22_linear_127_1272" x1="548.514" y1="192.557" x2="554.606" y2="192.559" gradientUnits="userSpaceOnUse">
<stop stop-color="#3C0887"/>
<stop offset="0.65" stop-color="#3C0887"/>
<stop offset="1" stop-color="#822A8A"/>
</linearGradient>
<linearGradient id="paint23_linear_127_1272" x1="484.478" y1="234.262" x2="504.157" y2="257.397" gradientUnits="userSpaceOnUse">
<stop stop-color="#3C0887"/>
<stop offset="0.65" stop-color="#3C0887"/>
<stop offset="1" stop-color="#822A8A"/>
</linearGradient>
<linearGradient id="paint24_linear_127_1272" x1="482.484" y1="292.18" x2="493.889" y2="316.659" gradientUnits="userSpaceOnUse">
<stop stop-color="#F7BE86"/>
<stop offset="0.65" stop-color="#F7BE86"/>
<stop offset="1" stop-color="#F79244"/>
</linearGradient>
<linearGradient id="paint25_linear_127_1272" x1="540.079" y1="101.302" x2="540.15" y2="101.302" gradientUnits="userSpaceOnUse">
<stop stop-color="#F7BE86"/>
<stop offset="0.65" stop-color="#F7BE86"/>
<stop offset="1" stop-color="#F79244"/>
</linearGradient>
<linearGradient id="paint26_linear_127_1272" x1="540.386" y1="119.766" x2="571.001" y2="119.777" gradientUnits="userSpaceOnUse">
<stop stop-color="#F7BE86"/>
<stop offset="0.65" stop-color="#F7BE86"/>
<stop offset="1" stop-color="#F79244"/>
</linearGradient>
<linearGradient id="paint27_linear_127_1272" x1="551.562" y1="126.4" x2="556.605" y2="126.402" gradientUnits="userSpaceOnUse">
<stop stop-color="#F7BE86"/>
<stop offset="0.65" stop-color="#F7BE86"/>
<stop offset="1" stop-color="#F79244"/>
</linearGradient>
<linearGradient id="paint28_linear_127_1272" x1="152.001" y1="210.777" x2="175.562" y2="210.786" gradientUnits="userSpaceOnUse">
<stop stop-color="#F7BE86"/>
<stop offset="0.65" stop-color="#F7BE86"/>
<stop offset="1" stop-color="#F79244"/>
</linearGradient>
<linearGradient id="paint29_linear_127_1272" x1="111.497" y1="206.989" x2="172.127" y2="208.812" gradientUnits="userSpaceOnUse">
<stop stop-color="#F9E6D9"/>
<stop offset="0.22" stop-color="white"/>
<stop offset="1" stop-color="white"/>
</linearGradient>
<linearGradient id="paint30_linear_127_1272" x1="123.531" y1="258.171" x2="148.355" y2="258.181" gradientUnits="userSpaceOnUse">
<stop stop-color="#F7BE86"/>
<stop offset="0.65" stop-color="#F7BE86"/>
<stop offset="1" stop-color="#F79244"/>
</linearGradient>
<linearGradient id="paint31_linear_127_1272" x1="65.9029" y1="231.111" x2="146.083" y2="233.453" gradientUnits="userSpaceOnUse">
<stop stop-color="#F9E6D9"/>
<stop offset="0.22" stop-color="white"/>
<stop offset="1" stop-color="white"/>
</linearGradient>
<linearGradient id="paint32_linear_127_1272" x1="64.5723" y1="209.671" x2="114.723" y2="209.69" gradientUnits="userSpaceOnUse">
<stop stop-color="#F9E6D9"/>
<stop offset="0.22" stop-color="white"/>
<stop offset="1" stop-color="white"/>
</linearGradient>
<linearGradient id="paint33_linear_127_1272" x1="65.5814" y1="232.437" x2="82.1507" y2="232.443" gradientUnits="userSpaceOnUse">
<stop stop-color="#F9E6D9"/>
<stop offset="0.22" stop-color="white"/>
<stop offset="1" stop-color="white"/>
</linearGradient>
<linearGradient id="paint34_linear_127_1272" x1="80.8381" y1="171.063" x2="114.333" y2="171.075" gradientUnits="userSpaceOnUse">
<stop stop-color="#F7BE86"/>
<stop offset="0.65" stop-color="#F7BE86"/>
<stop offset="1" stop-color="#F79244"/>
</linearGradient>
<clipPath id="clip0_127_1272">
<rect width="639" height="434" fill="white"/>
</clipPath>
</defs>
</svg>
