<svg width="631" height="421" viewBox="0 0 631 421" fill="none" xmlns="http://www.w3.org/2000/svg">
<path d="M425.197 65.6355L435.196 57.2571L448.541 72.5468L438.542 80.9252L425.197 65.6355Z" fill="#263238"/>
<path d="M443.837 56.0688L423.264 73.3857L408.838 56.9131C414.512 49.1092 421.278 43.2202 429.379 39.5962L443.837 56.0688Z" fill="#455A64"/>
<path d="M426.731 70.4822C426.616 70.5851 423.138 66.8376 418.956 62.1326C414.774 57.4276 411.475 53.5359 411.601 53.433C411.727 53.33 415.195 57.0775 419.376 61.7826C423.558 66.4875 426.847 70.3895 426.731 70.4822Z" fill="#263238"/>
<path d="M430.619 67.1878C429.788 66.395 429.015 65.5456 428.308 64.6448C426.921 63.049 425.04 60.8355 422.97 58.3646L417.716 52.0226L416.14 50.0974C415.762 49.6238 415.562 49.4076 415.562 49.3767C415.773 49.1914 419.272 53.0933 423.411 58.0248C425.513 60.4957 427.32 62.7504 428.665 64.408C429.398 65.2759 430.053 66.2066 430.619 67.1878Z" fill="#263238"/>
<path d="M435.871 62.7916C435.028 62.002 434.245 61.1516 433.528 60.2487C432.131 58.6323 430.24 56.3776 428.159 53.8758L422.906 47.4309L421.33 45.4645C421.126 45.2297 420.943 44.9785 420.783 44.7129C421.686 45.4439 422.497 46.2768 423.2 47.1941C424.618 48.7899 426.531 51.0343 428.601 53.5361C430.67 56.0378 432.53 58.3337 433.854 60.0119C434.605 60.8808 435.28 61.8115 435.871 62.7916Z" fill="#263238"/>
<path d="M440.613 58.6734C440.498 58.766 437.041 54.9876 432.891 50.2311C428.74 45.4747 425.483 41.5315 425.599 41.4286C425.714 41.3256 429.161 45.1143 433.311 49.8811C437.461 54.6479 440.729 58.5807 440.613 58.6734Z" fill="#263238"/>
<path d="M602.162 58.3447L611.25 67.6641L596.407 81.5629L587.318 72.2435L602.162 58.3447Z" fill="#263238"/>
<path d="M611.687 76.8343L592.963 57.6334L608.965 42.6536C617.203 47.8013 623.57 54.1124 627.678 61.8545L611.687 76.8343Z" fill="#455A64"/>
<path d="M596.096 60.8559C595.991 60.7426 599.616 57.1392 604.197 52.8049C608.778 48.4705 612.603 45.0421 612.676 45.1451C612.75 45.248 609.156 48.8514 604.575 53.1961C599.994 57.5408 596.201 60.9588 596.096 60.8559Z" fill="#263238"/>
<path d="M599.666 64.5106C600.413 63.6458 601.227 62.8407 602.104 62.1015C603.648 60.6601 605.813 58.6937 608.219 56.5316L614.408 51.0442L616.288 49.3969C616.74 49.0057 616.961 48.8101 616.992 48.7998C617.192 48.9954 613.399 52.6297 608.587 56.9332C606.18 59.0849 603.974 61.0513 602.356 62.3794C601.517 63.1578 600.618 63.8702 599.666 64.5106Z" fill="#263238"/>
<path d="M604.42 69.3806C605.176 68.5075 606.001 67.6952 606.889 66.9509C608.455 65.4992 610.651 63.5225 613.099 61.3605L619.403 55.8627L621.326 54.2155C621.56 54.0106 621.806 53.8181 622.061 53.6389C621.367 54.5624 620.562 55.4025 619.666 56.1407C618.111 57.6129 615.915 59.6 613.477 61.762C611.039 63.924 608.791 65.8802 607.173 67.2392C606.312 68.0216 605.392 68.7371 604.42 69.3806Z" fill="#263238"/>
<path d="M608.864 73.8176C608.758 73.7043 612.436 70.1318 617.07 65.8181C621.703 61.5043 625.549 58.1068 625.654 58.22C625.759 58.3333 622.081 61.9058 617.448 66.2093C612.814 70.5128 608.969 73.9102 608.864 73.8176Z" fill="#263238"/>
<path d="M511.799 23.1753H527.37V46.9886H511.799V23.1753Z" fill="#263238"/>
<path d="M535.689 30.2991H503.643V4.6327C514.875 1.91471 525.592 1.74998 535.721 4.6327L535.689 30.2991Z" fill="#EB0808"/>
<path d="M536.1 4.73573C535.725 4.96635 535.326 5.15887 534.912 5.31227C533.816 5.78587 532.689 6.19151 531.54 6.52714C529.819 7.04705 528.063 7.4527 526.286 7.74199C524.128 8.07763 521.947 8.25676 519.761 8.27736C517.577 8.28045 515.395 8.12189 513.236 7.80376C511.461 7.53403 509.705 7.14486 507.983 6.64039C506.832 6.31093 505.703 5.91558 504.599 5.45641C504.182 5.31433 503.783 5.12491 503.412 4.89017C503.412 4.7975 505.177 5.50789 508.088 6.26976C509.796 6.71245 511.529 7.05632 513.278 7.2993C515.417 7.58241 517.572 7.72759 519.73 7.7317C521.889 7.70803 524.044 7.54226 526.181 7.23753C527.923 6.99043 529.648 6.64656 531.351 6.20799C534.335 5.37404 536.058 4.64308 536.1 4.73573Z" fill="#263238"/>
<path d="M514.234 30.2269C514.087 30.2269 513.961 25.2954 513.961 19.2211C513.961 13.1468 514.087 8.21533 514.234 8.21533C514.381 8.21533 514.507 13.1365 514.507 19.2211C514.507 25.3057 514.392 30.2269 514.234 30.2269Z" fill="#263238"/>
<path d="M520.34 30.3711C520.192 30.3711 520.066 25.419 520.066 19.3138C520.066 13.2086 520.192 8.26685 520.34 8.26685C520.487 8.26685 520.613 13.2086 520.613 19.3138C520.613 25.419 520.497 30.3711 520.34 30.3711Z" fill="#263238"/>
<path d="M526.445 30.2783C526.298 30.2783 526.172 25.3263 526.172 19.2211C526.172 13.1159 526.298 8.16382 526.445 8.16382C526.592 8.16382 526.718 13.1159 526.718 19.2211C526.718 25.3263 526.603 30.2783 526.445 30.2783Z" fill="#263238"/>
<path d="M531.486 30.2787C531.328 30.2787 531.213 24.9251 531.213 18.3258C531.213 11.7264 531.328 6.3728 531.486 6.3728C531.644 6.3728 531.759 11.7264 531.759 18.3258C531.759 24.9251 531.675 30.2787 531.486 30.2787Z" fill="#263238"/>
<path d="M508.468 30.124C508.321 30.124 508.195 24.7703 508.195 18.171C508.195 11.5716 508.321 6.21802 508.468 6.21802C508.616 6.21802 508.742 11.5716 508.742 18.171C508.742 24.7703 508.626 30.124 508.468 30.124Z" fill="#263238"/>
<path d="M437.588 72.1366C481.834 28.7826 553.571 28.7826 597.817 72.1366C642.062 115.491 642.062 185.782 597.817 229.136C553.571 272.49 481.834 272.49 437.588 229.136C393.343 185.782 393.343 115.491 437.588 72.1366Z" fill="#EB0808"/>
<path d="M517.701 56.5215C570.253 56.5215 612.854 98.2642 612.854 149.757C612.854 201.249 570.253 242.992 517.701 242.992C465.15 242.992 422.549 201.249 422.549 149.757C422.549 98.2642 465.15 56.5215 517.701 56.5215Z" fill="#FAFAFA"/>
<path d="M612.854 149.757C612.854 149.757 612.854 149.253 612.78 148.254C612.707 147.255 612.78 145.762 612.581 143.817C612.206 138.14 611.298 132.508 609.87 126.994C608.84 123.014 607.538 119.107 605.972 115.298C604.131 110.758 601.917 106.371 599.352 102.182C593.077 91.9473 584.877 82.9718 575.186 75.7331C563.424 66.9655 549.733 61.0137 535.206 58.3544C522.893 56.1347 510.258 56.2779 498 58.7766C493.696 59.6918 489.456 60.8789 485.308 62.3285C467.654 68.6292 452.299 79.9099 441.178 94.7487C438.276 98.6126 435.69 102.696 433.445 106.959C432.278 109.09 431.28 111.304 430.293 113.528C429.305 115.751 428.422 118.057 427.676 120.405C426.063 125.103 424.855 129.924 424.062 134.818C423.264 139.767 422.846 144.768 422.812 149.778C422.848 154.79 423.263 159.794 424.051 164.747C424.856 169.64 426.065 174.46 427.666 179.161C428.422 181.498 429.368 183.763 430.282 186.028C431.196 188.293 432.299 190.475 433.434 192.607C435.68 196.872 438.269 200.955 441.178 204.817C452.297 219.661 467.652 230.946 485.308 237.247C489.456 238.697 493.696 239.884 498 240.799C502.197 241.659 506.448 242.24 510.725 242.539C518.909 243.146 527.139 242.702 535.206 241.221C549.733 238.562 563.424 232.61 575.186 223.843C584.88 216.607 593.08 207.632 599.352 197.394C601.915 193.204 604.129 188.817 605.972 184.278C609.704 175.174 611.934 165.548 612.581 155.759C612.759 153.813 612.728 152.321 612.78 151.322C612.833 150.323 612.854 149.809 612.854 149.809C612.854 149.809 612.854 150.323 612.854 151.322C612.854 152.321 612.854 153.813 612.707 155.759C612.132 165.576 609.942 175.237 606.224 184.37C604.393 188.931 602.187 193.339 599.625 197.548C593.365 207.835 585.163 216.86 575.459 224.141C563.656 232.962 549.911 238.956 535.322 241.644C527.218 243.144 518.95 243.601 510.725 243.003C506.427 242.704 502.155 242.122 497.937 241.263C493.607 240.35 489.343 239.16 485.171 237.7C467.413 231.375 451.966 220.037 440.779 205.115C437.859 201.233 435.259 197.129 433.003 192.843C431.827 190.702 430.818 188.457 429.788 186.223C428.759 183.989 427.918 181.673 427.161 179.315C425.55 174.595 424.334 169.754 423.526 164.84C421.859 154.872 421.859 144.704 423.526 134.736C424.338 129.843 425.554 125.022 427.161 120.322C427.928 117.965 428.874 115.69 429.799 113.414C430.723 111.139 431.827 108.946 433.003 106.805C435.267 102.521 437.869 98.417 440.789 94.5325C451.971 79.6134 467.415 68.2772 485.171 61.9578C489.339 60.5 493.6 59.3098 497.927 58.3956C502.149 57.536 506.424 56.9553 510.725 56.6557C518.945 56.0575 527.211 56.5146 535.311 58.0147C549.904 60.6905 563.652 66.6855 575.448 75.5169C585.153 82.8029 593.354 91.831 599.615 102.12C604.321 109.887 607.86 118.279 610.122 127.035C611.524 132.569 612.4 138.218 612.738 143.909C612.896 145.855 612.843 147.348 612.885 148.347C612.927 149.345 612.854 149.757 612.854 149.757Z" fill="#263238"/>
<path d="M598.891 146.38C595.875 146.504 593.417 146.38 593.406 146.123C593.396 145.865 595.823 145.515 598.838 145.351C601.854 145.186 604.313 145.289 604.334 145.598C604.355 145.907 601.886 146.257 598.891 146.38Z" fill="#263238"/>
<path d="M596.863 167.846C593.921 167.166 591.609 166.415 591.609 166.157C591.609 165.9 594.11 166.209 597.063 166.837C600.015 167.465 602.316 168.227 602.316 168.525C602.316 168.824 599.784 168.515 596.863 167.846Z" fill="#263238"/>
<path d="M589.014 187.973C586.355 186.552 584.317 185.204 584.443 184.977C584.569 184.751 586.839 185.688 589.507 187.036C592.176 188.385 594.225 189.775 594.078 190.043C593.931 190.31 591.661 189.404 589.014 187.973Z" fill="#263238"/>
<path d="M575.934 205.311C573.77 203.252 572.162 201.419 572.351 201.193C572.54 200.966 574.452 202.5 576.659 204.539C578.865 206.577 580.452 208.4 580.242 208.657C580.032 208.914 578.088 207.38 575.934 205.311Z" fill="#263238"/>
<path d="M558.593 218.592C557.08 216.029 556.029 213.846 556.26 213.712C556.492 213.578 557.942 215.534 559.497 218.067C561.052 220.6 562.102 222.782 561.84 222.947C561.577 223.112 560.117 221.135 558.593 218.592Z" fill="#263238"/>
<path d="M538.266 226.818C537.51 223.945 537.1 221.567 537.363 221.505C537.625 221.444 538.477 223.698 539.286 226.55C540.095 229.402 540.494 231.78 540.189 231.863C539.884 231.945 539.023 229.68 538.266 226.818Z" fill="#263238"/>
<path d="M516.42 229.371C516.42 226.406 516.724 224.007 516.987 224.007C517.25 224.007 517.47 226.416 517.47 229.371C517.47 232.326 517.208 234.735 516.903 234.735C516.598 234.735 516.367 232.346 516.42 229.371Z" fill="#263238"/>
<path d="M494.717 226.149C495.578 223.307 496.482 221.073 496.745 221.145C497.007 221.217 496.545 223.585 495.694 226.437C494.843 229.289 493.971 231.585 493.666 231.441C493.361 231.297 493.803 228.99 494.717 226.149Z" fill="#263238"/>
<path d="M474.611 217.284C476.219 214.783 477.7 212.857 477.931 212.991C478.162 213.125 477.07 215.297 475.504 217.83C473.938 220.363 472.446 222.278 472.184 222.123C471.921 221.969 473.003 219.796 474.611 217.284Z" fill="#263238"/>
<path d="M457.708 203.488C459.946 201.491 461.91 200.029 462.078 200.225C462.247 200.42 460.628 202.212 458.422 204.24C456.216 206.268 454.272 207.73 454.051 207.514C453.83 207.298 455.48 205.486 457.708 203.488Z" fill="#263238"/>
<path d="M445.183 185.76C447.884 184.432 450.174 183.536 450.29 183.762C450.405 183.989 448.346 185.296 445.667 186.676C442.987 188.056 440.707 188.951 440.56 188.673C440.413 188.395 442.493 187.098 445.183 185.76Z" fill="#263238"/>
<path d="M437.974 165.395C440.947 164.819 443.395 164.561 443.448 164.819C443.5 165.076 441.147 165.787 438.194 166.404C435.242 167.022 432.783 167.279 432.72 166.981C432.657 166.682 435.032 165.972 437.974 165.395Z" fill="#263238"/>
<path d="M436.64 143.919C439.655 144.135 442.083 144.526 442.072 144.784C442.062 145.041 439.592 145.113 436.577 144.938C433.561 144.763 431.124 144.382 431.145 144.073C431.166 143.764 433.624 143.651 436.64 143.919Z" fill="#263238"/>
<path d="M441.212 122.783C444.059 123.812 446.287 124.842 446.202 125.058C446.118 125.274 443.723 124.718 440.865 123.75C438.007 122.783 435.779 121.774 435.874 121.485C435.969 121.197 438.375 121.774 441.212 122.783Z" fill="#263238"/>
<path d="M451.411 103.685C453.87 105.404 455.74 106.969 455.614 107.185C455.488 107.401 453.323 106.207 450.833 104.529C448.343 102.851 446.473 101.286 446.63 101.029C446.788 100.771 448.942 101.965 451.411 103.685Z" fill="#263238"/>
<path d="M466.448 87.9537C468.35 90.2496 469.726 92.2469 469.527 92.4219C469.327 92.5969 467.572 90.8776 465.639 88.6023C463.706 86.327 462.319 84.34 462.561 84.1444C462.802 83.9488 464.546 85.6578 466.448 87.9537Z" fill="#263238"/>
<path d="M485.254 76.7314C486.452 79.4494 487.24 81.735 486.988 81.8791C486.736 82.0232 485.538 79.8818 484.298 77.1844C483.058 74.487 482.27 72.2014 482.554 72.0367C482.838 71.872 484.025 74.0237 485.254 76.7314Z" fill="#263238"/>
<path d="M506.418 70.8937C506.827 73.8279 506.953 76.237 506.68 76.2782C506.407 76.3194 505.829 73.972 505.377 71.0481C504.925 68.1242 504.799 65.7048 505.104 65.6636C505.409 65.6224 506.008 67.9595 506.418 70.8937Z" fill="#263238"/>
<path d="M528.417 70.8218C528.018 73.756 527.482 76.1136 527.22 76.0827C526.957 76.0519 527.02 73.6324 527.377 70.6982C527.734 67.7641 528.27 65.3961 528.575 65.4373C528.88 65.4785 528.817 67.8773 528.417 70.8218Z" fill="#263238"/>
<path d="M549.631 76.5151C548.444 79.2434 547.278 81.3643 547.026 81.2613C546.773 81.1584 547.519 78.8625 548.665 76.1136C549.81 73.3647 550.987 71.2542 551.271 71.3777C551.554 71.5013 550.829 73.7971 549.631 76.5151Z" fill="#263238"/>
<path d="M568.505 87.6036C566.614 89.92 564.912 91.66 564.701 91.4952C564.491 91.3305 565.826 89.3023 567.685 86.9653C569.545 84.6282 571.237 82.8471 571.489 83.0839C571.741 83.3207 570.365 85.2974 568.505 87.6036Z" fill="#263238"/>
<path d="M583.665 103.231C581.207 104.961 579.095 106.196 578.937 105.98C578.78 105.764 580.618 104.168 583.045 102.397C585.473 100.627 587.585 99.4015 587.774 99.6486C587.963 99.8957 586.124 101.502 583.665 103.231Z" fill="#263238"/>
<path d="M593.994 122.299C591.157 123.329 588.74 123.936 588.677 123.699C588.614 123.462 590.779 122.392 593.626 121.331C596.473 120.271 598.816 119.643 598.932 119.931C599.048 120.219 596.831 121.27 593.994 122.299Z" fill="#263238"/>
<path d="M598.732 143.322C595.716 143.559 593.257 143.538 593.236 143.322C593.215 143.106 595.632 142.632 598.637 142.292C601.642 141.953 604.111 142.035 604.132 142.344C604.153 142.653 601.716 143.085 598.732 143.322Z" fill="#263238"/>
<path d="M480.747 48.8928L480.422 49.037L479.455 49.4179C478.615 49.7679 477.354 50.1901 475.746 50.8798C471.216 52.7351 466.818 54.8848 462.581 57.3145C459.891 58.8382 457.043 60.6605 454.049 62.7093C451.054 64.758 447.997 67.1466 444.939 69.8337C431.515 81.4273 421.261 96.1251 415.109 112.591C413.67 116.359 412.588 120.044 411.653 123.493C410.718 126.942 410.087 130.237 409.614 133.243C408.847 137.993 408.401 142.787 408.28 147.595C408.196 149.304 408.28 150.622 408.28 151.517C408.28 151.95 408.28 152.279 408.28 152.547C408.289 152.663 408.289 152.781 408.28 152.897C408.266 152.784 408.266 152.671 408.28 152.557C408.28 152.3 408.28 151.96 408.28 151.528C408.28 150.632 408.164 149.314 408.217 147.605C408.255 142.78 408.644 137.963 409.383 133.192C409.824 130.165 410.507 126.881 411.358 123.39C412.308 119.681 413.451 116.021 414.784 112.426C420.905 95.8502 431.219 81.068 444.761 69.463C447.839 66.776 450.97 64.4595 453.933 62.3489C456.896 60.2384 459.817 58.4881 462.539 56.985C466.805 54.581 471.24 52.4746 475.809 50.6842C477.417 50.0253 478.709 49.6547 479.571 49.3149L480.558 48.9855C480.619 48.9505 480.682 48.9196 480.747 48.8928Z" fill="white"/>
<path d="M512.376 42.8798C511.295 43.1002 510.199 43.2412 509.097 43.302C507.059 43.5079 504.264 43.8064 501.175 44.1977C498.086 44.5889 495.301 45.0007 493.284 45.3096C492.203 45.5268 491.108 45.6648 490.006 45.7214C491.051 45.3641 492.127 45.1026 493.221 44.9389C495.228 44.5374 498.012 44.0638 501.101 43.6726C504.19 43.2814 507.017 43.0343 509.066 42.921C510.165 42.8057 511.273 42.7923 512.376 42.8798Z" fill="white"/>
<path d="M441.656 205.805C441.656 205.805 490.966 282.053 567.458 243.002C647.312 202.232 603.182 108.781 603.182 108.781C603.182 108.781 640.756 183.258 562.919 231.811C543.533 243.908 522.424 243.919 506.328 242.333C465.192 238.297 441.656 205.805 441.656 205.805Z" fill="black"/>
<path d="M524.789 161.763L513.713 227.229L509.285 159.783L518.066 153.082L524.789 161.763Z" fill="#EB0808"/>
<path d="M513.714 227.229L516.007 163.78L509.287 159.783L513.714 227.229ZM522.108 163.241C516.382 165.427 509.931 162.652 507.7 157.041C505.469 151.43 508.301 145.11 514.028 142.923C519.754 140.737 526.204 143.513 528.435 149.123C530.667 154.734 527.834 161.054 522.108 163.241ZM507.7 157.041C508.122 157.831 508.588 158.597 509.098 159.336C510.568 161.295 512.665 162.715 515.055 163.37C518.623 164.351 522.455 163.49 525.232 161.087C526.023 160.418 526.703 159.632 527.249 158.758C527.841 157.857 528.281 156.868 528.554 155.829C529.778 151.343 527.891 146.599 523.892 144.107C522.075 142.981 519.962 142.398 517.812 142.429C511.743 142.548 506.922 147.465 507.044 153.412C507.051 153.754 507.074 154.095 507.115 154.435C507.248 155.317 507.433 156.191 507.671 157.052C507.275 156.234 507.016 155.36 506.9 154.462C506.525 151.971 507.045 149.429 508.37 147.271C509.277 145.786 510.529 144.532 512.023 143.611C513.744 142.553 515.722 141.966 517.752 141.91C518.85 141.867 519.948 141.997 521.005 142.292C522.114 142.575 523.171 143.03 524.134 143.639C528.354 146.233 530.341 151.229 529.025 155.937C528.733 157.023 528.269 158.057 527.651 159.003C527.069 159.914 526.35 160.733 525.516 161.431C523.985 162.741 522.121 163.62 520.123 163.977C515.788 164.757 511.389 162.979 508.876 159.431C508.36 158.699 507.963 157.893 507.7 157.041ZM526.181 151.681C526.965 156.096 523.947 160.295 519.442 161.063C514.937 161.831 510.65 158.873 509.867 154.459C509.083 150.044 512.101 145.845 516.606 145.077C521.111 144.309 525.398 147.267 526.181 151.681Z" fill="black"/>
<path d="M522.105 163.241C516.379 165.427 509.929 162.651 507.697 157.041C505.466 151.43 508.299 145.11 514.025 142.923C519.751 140.737 526.201 143.512 528.433 149.123C530.664 154.734 527.831 161.054 522.105 163.241Z" fill="#FAFAFA"/>
<path d="M507.7 157.041C508.121 157.831 508.588 158.597 509.097 159.336C510.567 161.295 512.665 162.715 515.054 163.37C518.622 164.351 522.455 163.49 525.231 161.087C526.023 160.417 526.703 159.632 527.249 158.758C527.841 157.857 528.281 156.868 528.553 155.829C529.778 151.343 527.891 146.598 523.891 144.107C522.074 142.981 519.962 142.398 517.811 142.429C511.742 142.548 506.921 147.465 507.043 153.412C507.051 153.754 507.074 154.095 507.114 154.435C507.248 155.317 507.433 156.191 507.67 157.052C507.275 156.234 507.015 155.36 506.9 154.462C506.525 151.971 507.045 149.429 508.37 147.271C509.277 145.786 510.528 144.532 512.023 143.611C513.743 142.553 515.721 141.966 517.751 141.91C518.85 141.867 519.948 141.997 521.004 142.292C522.114 142.575 523.171 143.03 524.134 143.639C528.353 146.233 530.34 151.229 529.024 155.937C528.732 157.023 528.269 158.057 527.65 159.003C527.069 159.914 526.349 160.733 525.515 161.431C523.984 162.741 522.121 163.62 520.122 163.977C515.787 164.757 511.388 162.979 508.876 159.431C508.359 158.699 507.963 157.893 507.7 157.041Z" fill="#263238"/>
<path d="M526.179 151.681C526.962 156.095 523.945 160.295 519.44 161.063C514.934 161.831 510.648 158.873 509.864 154.458C509.081 150.044 512.098 145.844 516.603 145.077C521.109 144.309 525.395 147.266 526.179 151.681Z" fill="#455A64"/>
<path d="M430.955 414.576H485.697L460.175 199.052L430.955 414.576Z" fill="#E0E0E0"/>
<path d="M161.597 199.052L125.957 417.119L430.086 421L460.178 199.052H161.597Z" fill="#FAFAFA"/>
<path d="M446.633 298.948H145.268L151.824 258.796H452.076L446.633 298.948Z" fill="#EBEBEB"/>
<path d="M446.654 298.979H145.236L151.803 258.827H452.107L446.654 298.979ZM145.299 298.928H446.612L452.044 258.776H151.856L145.299 298.928Z" fill="#263238"/>
<path d="M161.594 199.052L151.822 258.796H452.074L460.175 199.052H161.594Z" fill="#EB0808"/>
<path d="M161.636 199.052L460.217 198.804H460.501V199.082C451.706 264.057 441.725 337.741 431.176 415.564V415.801H427.519L126.206 415.718H125.912V415.461L161.636 199.052C161.342 200.843 147.767 284.452 126.469 415.564L126.248 415.307H427.446H430.86L430.598 415.533C441.157 337.71 451.16 264.036 460.018 199.062L460.259 199.33L161.636 199.052Z" fill="#263238"/>
<path d="M452.074 258.796C452.074 258.94 384.828 259.063 301.959 259.063C219.089 259.063 151.822 258.94 151.822 258.796C151.822 258.652 219.068 258.528 301.959 258.528C384.849 258.528 452.074 258.641 452.074 258.796Z" fill="#263238"/>
<path d="M446.631 298.948C446.631 299.102 379.028 299.215 295.664 299.215C212.301 299.215 144.688 299.102 144.688 298.948C144.688 298.793 212.269 298.68 295.664 298.68C379.059 298.68 446.631 298.803 446.631 298.948Z" fill="#263238"/>
<path d="M440.498 335.898C440.498 336.052 372.906 336.165 289.542 336.165C206.179 336.165 138.523 336.052 138.523 335.898C138.523 335.743 206.105 335.63 289.5 335.63C372.895 335.63 440.498 335.754 440.498 335.898Z" fill="#263238"/>
<path d="M434.371 372.848C434.371 372.993 366.768 373.116 283.405 373.116C200.041 373.116 132.428 372.993 132.428 372.848C132.428 372.704 200.01 372.581 283.405 372.581C366.8 372.581 434.371 372.704 434.371 372.848Z" fill="#263238"/>
<path d="M168.647 415.863C168.5 415.863 174.017 380.652 180.983 337.288C187.949 293.924 193.696 258.765 193.843 258.796C193.991 258.827 188.474 293.986 181.519 337.37C174.563 380.755 168.805 415.883 168.647 415.863Z" fill="#263238"/>
<path d="M215.115 415.862C214.957 415.862 220.484 380.652 227.439 337.288C234.395 293.924 240.153 258.765 240.311 258.796C240.468 258.827 234.942 293.985 227.975 337.37C221.009 380.755 215.22 415.883 215.115 415.862Z" fill="#263238"/>
<path d="M258.304 414.287C258.157 414.287 263.62 379.437 270.502 336.506C277.385 293.574 283.111 258.765 283.248 258.796C283.384 258.827 277.931 293.636 271.049 336.588C264.167 379.54 258.44 414.308 258.304 414.287Z" fill="#263238"/>
<path d="M301.015 415.533C300.867 415.533 306.373 380.395 313.318 337.123C320.264 293.852 326.011 258.765 326.158 258.796C326.305 258.827 320.8 293.914 313.854 337.206C306.909 380.498 301.162 415.554 301.015 415.533Z" fill="#263238"/>
<path d="M343.936 415.533C343.789 415.533 349.295 380.395 356.24 337.123C363.186 293.852 368.933 258.765 369.08 258.796C369.227 258.827 363.732 293.914 356.787 337.206C349.841 380.498 344.094 415.554 343.936 415.533Z" fill="#263238"/>
<path d="M386.823 415.718C386.676 415.718 392.192 380.539 399.148 337.195C406.104 293.852 411.851 258.724 412.009 258.755C412.166 258.786 406.64 293.924 399.684 337.278C392.728 380.632 386.97 415.78 386.823 415.718Z" fill="#263238"/>
<path d="M359.823 261.596C364.992 259.351 368.228 254.08 369.563 248.696C370.897 243.311 370.687 237.69 370.887 232.141C371.086 226.591 371.759 220.878 374.648 216.111C376.361 213.3 378.767 210.963 380.669 208.255C382.571 205.548 383.978 202.253 383.275 198.99L350.934 199.154L359.823 261.596Z" fill="black"/>
<path d="M235.446 311.75C235.446 311.75 235.551 311.482 235.772 310.957C236.12 310.195 236.542 309.467 237.032 308.784C238.965 306.14 241.689 304.149 244.829 303.091C247.077 302.294 249.476 301.985 251.858 302.185C254.695 302.455 257.429 303.368 259.843 304.852C262.631 306.535 264.987 308.825 266.726 311.544C268.738 314.579 269.74 318.15 269.594 321.767C269.473 323.718 268.855 325.608 267.797 327.265C266.688 328.983 265.211 330.444 263.468 331.548C259.757 333.88 255.387 335.001 250.986 334.75C248.681 334.628 246.41 334.145 244.261 333.318C242.025 332.463 240.014 331.126 238.377 329.406C237.564 328.501 236.878 327.494 236.339 326.41C235.825 325.303 235.471 324.133 235.288 322.93C234.939 320.468 235.158 317.959 235.929 315.59C237.536 310.649 241.019 306.502 245.659 304.007C250.533 301.384 256.373 301.122 261.472 303.297C264.079 304.373 266.361 306.085 268.102 308.27C269.845 310.513 270.935 313.179 271.254 315.981C271.618 318.824 271.148 321.709 269.899 324.3C269.257 325.6 268.413 326.794 267.398 327.841C266.364 328.873 265.199 329.77 263.931 330.508C258.758 333.299 252.634 333.858 247.025 332.052C244.292 331.229 241.78 329.823 239.67 327.934C237.577 326.043 236.147 323.553 235.582 320.82C234.99 318.133 235.381 315.326 236.686 312.892C237.348 311.693 238.256 310.641 239.354 309.804C240.436 309.004 241.642 308.382 242.927 307.961C245.45 307.168 248.096 306.819 250.744 306.931C253.322 306.95 255.885 307.296 258.372 307.961C260.831 308.594 263.102 309.786 265.002 311.441C266.823 313.105 268.065 315.287 268.554 317.68C269.036 319.992 268.895 322.387 268.144 324.629C267.4 326.791 266.143 328.749 264.477 330.343C261.312 333.375 257.12 335.163 252.699 335.367C250.629 335.474 248.558 335.181 246.604 334.502C244.729 333.844 243.042 332.752 241.687 331.321C240.404 329.956 239.433 328.338 238.84 326.575C238.254 324.922 237.994 323.175 238.073 321.427C238.223 318.19 239.54 315.111 241.792 312.738C243.717 310.674 246.153 309.131 248.863 308.259C251.138 307.533 253.55 307.308 255.924 307.601C259.206 308 262.324 309.231 264.971 311.173C265.658 311.668 266.308 312.212 266.915 312.8C267.324 313.201 267.524 313.417 267.524 313.417C267.524 313.417 267.293 313.222 266.883 312.841C266.259 312.273 265.599 311.743 264.908 311.255C262.256 309.371 259.156 308.184 255.903 307.806C250.698 307.216 245.524 309.135 242.023 312.954C239.83 315.276 238.553 318.287 238.419 321.448C238.348 323.162 238.608 324.873 239.186 326.493C239.772 328.203 240.721 329.771 241.971 331.095C243.287 332.481 244.923 333.54 246.741 334.183C248.647 334.832 250.663 335.112 252.678 335.007C256.993 334.798 261.08 333.044 264.162 330.075C265.771 328.533 266.985 326.638 267.703 324.547C268.421 322.38 268.552 320.066 268.081 317.834C267.608 315.537 266.413 313.442 264.666 311.842C262.818 310.25 260.616 309.101 258.236 308.486C255.791 307.83 253.269 307.484 250.734 307.456C248.149 307.361 245.567 307.71 243.106 308.486C240.594 309.24 238.469 310.899 237.159 313.129C235.914 315.457 235.543 318.138 236.108 320.707C236.652 323.333 238.032 325.722 240.048 327.532C242.093 329.384 244.533 330.762 247.193 331.568C252.652 333.329 258.613 332.784 263.647 330.065C264.876 329.358 266.004 328.492 266.999 327.491C267.974 326.486 268.786 325.341 269.405 324.094C270.614 321.594 271.069 318.808 270.718 316.063C270.418 313.358 269.375 310.782 267.703 308.609C266.019 306.498 263.813 304.842 261.293 303.802C256.346 301.684 250.675 301.934 245.942 304.481C241.434 306.914 238.048 310.949 236.486 315.754C235.737 318.053 235.518 320.487 235.845 322.879C236.034 324.04 236.387 325.17 236.896 326.235C237.416 327.276 238.073 328.245 238.85 329.118C240.435 330.783 242.381 332.078 244.545 332.907C246.646 333.721 248.867 334.201 251.122 334.327C255.429 334.586 259.71 333.505 263.353 331.239C266.768 329.191 268.987 325.675 269.331 321.767C269.478 318.229 268.505 314.734 266.547 311.76C264.847 309.075 262.538 306.81 259.801 305.14C257.43 303.67 254.744 302.757 251.953 302.473C249.606 302.255 247.239 302.543 245.018 303.318C241.907 304.348 239.193 306.289 237.243 308.877C236.739 309.548 236.303 310.266 235.94 311.019C235.582 311.492 235.446 311.75 235.446 311.75Z" fill="#EB0808"/>
<path d="M401.198 301.202C401.198 301.202 405.264 325.85 401.146 341.571L361.387 340.737C361.387 340.737 369.519 315.637 364.36 303.086L401.198 301.202Z" fill="#EBEBEB"/>
<path d="M401.019 300.276C401.019 300.276 400.756 331.276 399.148 340.737L359.463 338.894C359.463 338.894 362.941 308.42 361.564 300.276H401.019Z" fill="#455A64"/>
<path d="M367.197 314.072C367.197 314.216 373.165 314.34 380.531 314.35C387.896 314.36 393.875 314.257 393.875 314.113C393.875 313.969 387.907 313.845 380.531 313.835C373.155 313.825 367.197 313.928 367.197 314.072Z" fill="white"/>
<path d="M367.576 320.63C367.576 320.774 373.544 320.898 380.91 320.908C388.275 320.918 394.254 320.815 394.254 320.671C394.254 320.527 388.286 320.404 380.91 320.393C373.534 320.383 367.576 320.486 367.576 320.63Z" fill="white"/>
<path d="M374.689 326.673C375.421 326.827 376.169 326.893 376.917 326.869C378.293 326.869 380.195 326.941 382.297 326.951C384.398 326.962 386.289 326.951 387.666 326.879C388.413 326.909 389.161 326.849 389.893 326.704C389.162 326.551 388.413 326.489 387.666 326.519C386.289 326.467 384.398 326.437 382.297 326.426C380.195 326.416 378.293 326.426 376.917 326.498C376.17 326.468 375.422 326.528 374.689 326.673Z" fill="white"/>
<path d="M213.342 372.23C213.342 372.23 213.678 397.526 207.163 412.671L167.457 406.04C167.457 406.04 179.414 382.073 176.157 368.75L213.342 372.23Z" fill="#EBEBEB"/>
<path d="M213.334 371.283C213.334 371.283 208.354 402.334 205.307 411.6L165.842 403.92C165.842 403.92 173.964 373.898 173.859 365.538L213.334 371.283Z" fill="#EB0808"/>
<path d="M177.859 379.458C177.859 379.602 183.722 380.941 191.025 382.444C198.327 383.947 204.264 385.049 204.295 384.915C204.327 384.781 198.432 383.432 191.13 381.929C183.827 380.426 177.891 379.314 177.859 379.458Z" fill="white"/>
<path d="M176.852 386.037C176.852 386.181 182.715 387.509 190.017 389.022C197.319 390.536 203.256 391.627 203.287 391.493C203.319 391.359 197.425 390.011 190.122 388.507C182.82 387.004 176.883 385.862 176.852 386.037Z" fill="white"/>
<path d="M182.654 393.48C183.328 393.767 184.033 393.974 184.756 394.098C186.111 394.417 187.992 394.839 190.062 395.271C192.132 395.704 194.034 396.054 195.41 396.301C196.145 396.482 196.901 396.572 197.658 396.569C196.96 396.28 196.231 396.069 195.483 395.941C194.139 395.611 192.258 395.189 190.177 394.767C188.097 394.345 186.206 393.974 184.84 393.737C184.124 393.565 183.391 393.479 182.654 393.48Z" fill="white"/>
<path d="M264.359 415.544C264.243 415.441 272.523 406.937 282.841 396.569C293.159 386.202 301.617 377.852 301.753 377.955C301.89 378.058 293.589 386.562 283.271 396.94C272.953 407.318 264.464 415.647 264.359 415.544Z" fill="#EB0808"/>
<path d="M299.356 415.533C299.356 415.533 299.22 415.42 299.009 415.173L298.127 414.143C297.307 413.113 296.214 411.785 294.88 410.159C292.138 406.802 288.25 402.242 283.743 397.392C279.235 392.543 274.959 388.332 271.806 385.347L268.066 381.743L267.015 380.776C266.893 380.668 266.785 380.546 266.689 380.415C266.689 380.415 266.847 380.498 267.089 380.693L268.139 381.589C269.075 382.371 270.398 383.535 272.017 384.997C275.232 387.921 279.561 392.101 284.089 396.96C288.618 401.819 292.495 406.432 295.122 409.85C296.467 411.559 297.528 412.938 298.274 413.968L299.083 415.1C299.192 415.233 299.284 415.378 299.356 415.533Z" fill="#EB0808"/>
<path d="M350.704 340.212C350.788 340.325 342.823 346.307 332.894 353.596C322.965 360.885 314.853 366.64 314.759 366.517C314.664 366.393 322.639 360.422 332.568 353.133C342.497 345.844 350.609 340.088 350.704 340.212Z" fill="#263238"/>
<path d="M353.791 365.538C353.717 365.662 345.249 360.525 334.878 354.049C324.508 347.573 316.196 342.24 316.27 342.106C316.344 341.972 324.812 347.13 335.183 353.596C345.553 360.061 353.917 365.415 353.791 365.538Z" fill="#263238"/>
<path d="M262.987 339.81C263.082 339.923 254.75 346.904 244.369 355.408C233.988 363.912 225.456 370.696 225.393 370.583C225.33 370.47 233.631 363.49 244.012 354.996C254.393 346.502 262.893 339.697 262.987 339.81Z" fill="#263238"/>
<path d="M264.808 369.667C264.313 369.381 263.845 369.054 263.41 368.689L259.712 365.868C256.612 363.459 252.357 360.102 247.67 356.375C242.984 352.648 238.771 349.251 235.734 346.77L232.151 343.805C231.698 343.465 231.275 343.086 230.891 342.672C231.383 342.96 231.85 343.288 232.288 343.65L235.976 346.471C239.076 348.88 243.331 352.237 248.017 355.963C252.703 359.69 256.917 363.088 259.964 365.569L263.536 368.524C263.988 368.874 264.413 369.256 264.808 369.667Z" fill="#263238"/>
<g opacity="0.766515">
<path d="M225.733 301.923C225.646 302.061 225.54 302.185 225.417 302.293L224.451 303.323C223.6 304.177 222.349 305.382 220.773 306.885C217.621 309.85 213.24 313.886 208.249 318.21C203.258 322.534 198.635 326.302 195.241 328.979C193.539 330.317 192.152 331.388 191.185 332.068L190.061 332.891C189.936 332.998 189.794 333.086 189.641 333.149C189.641 333.149 189.756 333.015 189.987 332.809L191.038 331.903L194.978 328.639C198.32 325.89 202.901 322.071 207.881 317.767C212.861 313.464 217.337 309.469 220.49 306.576L224.283 303.148L225.333 302.231C225.453 302.112 225.587 302.009 225.733 301.923Z" fill="#263238"/>
<path d="M223.305 333.561C222.858 333.179 222.44 332.766 222.055 332.325L218.766 328.886C215.929 325.932 212.125 321.958 207.933 317.562L196.985 306.34L193.664 302.932C193.245 302.526 192.855 302.093 192.498 301.635C192.974 301.979 193.417 302.364 193.822 302.788C194.642 303.549 195.818 304.672 197.258 306.072C200.137 308.872 204.066 312.795 208.322 317.201C212.577 321.608 216.36 325.664 219.05 328.639C220.394 330.122 221.477 331.337 222.202 332.181C222.611 332.606 222.981 333.068 223.305 333.561Z" fill="#263238"/>
</g>
<path d="M409.606 230.133C402.188 230.133 394.718 225.572 390.788 218.397C386.968 211.251 385.783 203.032 387.436 195.129C389.611 184.834 396.567 176.391 405.162 173.694C412.464 171.398 425.514 172.664 431.671 182.764C434.605 187.703 436.061 193.351 435.874 199.062C435.758 200.768 434.253 202.058 432.512 201.945C430.771 201.831 429.454 200.356 429.57 198.65C429.626 194.191 428.458 189.799 426.186 185.935C421.437 178.162 411.025 178.317 407.011 179.573C399.656 181.879 394.949 189.672 393.53 196.375C392.169 202.864 393.137 209.614 396.273 215.483C399.372 221.145 405.645 224.666 411.203 223.833C412.928 223.598 414.52 224.777 414.76 226.466C414.995 228.123 413.843 229.661 412.159 229.938C411.315 230.066 410.462 230.131 409.606 230.133Z" fill="#263238"/>
<path d="M206.105 230.133C198.677 230.133 191.217 225.572 187.287 218.396C183.464 211.251 182.276 203.033 183.925 195.129C185.764 186.439 191.984 176.432 201.787 173.673C206.513 172.419 211.525 172.667 216.098 174.384L213.828 180.149C210.537 178.924 206.938 178.732 203.531 179.603C196.302 181.662 191.595 189.507 190.145 196.374C188.783 202.864 189.752 209.613 192.887 215.483C195.987 221.156 202.27 224.666 207.818 223.832L208.774 229.938C207.892 230.071 206.999 230.136 206.105 230.133Z" fill="#263238"/>
<path d="M407.009 199.216L404.109 214.772H446.779L450.572 199.37L407.009 199.216Z" fill="#EB0808"/>
<path d="M216.913 227.673C216.919 231.346 213.885 234.328 210.136 234.334C206.387 234.34 203.344 231.367 203.338 227.693C203.332 224.02 206.366 221.038 210.115 221.032C210.122 221.032 210.129 221.032 210.136 221.032C213.877 221.037 216.908 224.008 216.913 227.673Z" fill="#263238"/>
<path d="M420.237 227.673C420.244 231.346 417.209 234.328 413.46 234.334C409.711 234.34 406.668 231.367 406.662 227.693C406.656 224.02 409.69 221.038 413.439 221.032C413.447 221.032 413.453 221.032 413.46 221.032C417.201 221.037 420.232 224.008 420.237 227.673Z" fill="#263238"/>
<path d="M306.599 97.2929L291.313 137.48L252.574 137.787L251.899 144.447L305.569 151.54L320.381 106.228L306.599 97.2929Z" fill="#FFBE9D"/>
<path d="M325.591 77.9208C325.591 77.9208 310.506 81.5332 305.75 97.2103L320.379 106.227L325.591 77.9208Z" fill="#EB0808"/>
<path d="M324.498 154.132C324.498 154.132 264.313 151.322 247.176 164.428C230.039 177.534 238.34 199.051 238.34 199.051L335.194 198.804L343.747 150.694L324.498 154.132Z" fill="#263238"/>
<path d="M334.743 185.873C334.451 185.88 334.158 185.86 333.871 185.811C333.303 185.75 332.473 185.667 331.401 185.533C329.3 185.276 326.148 184.844 322.365 184.216C312.434 182.56 302.611 180.336 292.945 177.554C287.293 175.917 281.944 174.27 277.006 173.066C272.647 171.96 268.188 171.27 263.694 171.007C260.661 170.84 257.618 171.013 254.626 171.521C253.575 171.645 252.766 171.913 252.199 172.005C251.918 172.073 251.634 172.125 251.348 172.16C251.615 172.047 251.893 171.961 252.178 171.902C252.968 171.661 253.771 171.466 254.584 171.315C257.584 170.721 260.646 170.49 263.704 170.626C268.264 170.839 272.791 171.498 277.216 172.592C282.186 173.766 287.545 175.413 293.177 177.05C302.789 179.808 312.543 182.073 322.397 183.835C326.19 184.514 329.268 184.998 331.401 185.327L333.86 185.708C334.158 185.739 334.454 185.794 334.743 185.873Z" fill="#455A64"/>
<path d="M278.799 172.747C277.128 171.396 275.346 170.18 273.472 169.113C271.509 168.213 269.474 167.468 267.389 166.889C268.036 166.833 268.687 166.896 269.311 167.074C270.848 167.398 272.332 167.924 273.724 168.639C275.115 169.358 276.401 170.254 277.549 171.305C278.053 171.706 278.477 172.195 278.799 172.747Z" fill="#455A64"/>
<path d="M330.873 282.32L331.682 307.101L326.597 326.889C326.265 328.249 327.122 329.615 328.51 329.941C328.572 329.955 328.635 329.967 328.698 329.978C329.522 330.125 330.369 329.872 330.968 329.298C334.792 325.633 348.83 312.084 348.651 310.283C348.462 308.224 349.565 284.071 349.565 284.071L330.873 282.32Z" fill="#EB0808"/>
<path d="M328.607 330.019L348.571 308.646V309.676C348.583 310.585 348.262 311.469 347.667 312.167C346.081 314.03 341.573 319.086 330.972 329.319C330.356 329.916 329.476 330.171 328.628 329.999L328.607 330.019Z" fill="white"/>
<path d="M343.276 300.688C342.612 301.165 342.434 302.061 342.867 302.747C343.326 303.388 344.214 303.568 344.894 303.159C345.577 302.663 345.76 301.737 345.315 301.028C344.772 300.401 343.818 300.309 343.161 300.822" fill="white"/>
<path d="M334.29 319.127C334.143 319.199 333.554 317.912 332.052 317.222C331.122 316.864 330.13 316.69 329.131 316.707C329.131 316.645 329.425 316.45 330.013 316.357C331.605 316.168 333.165 316.904 334.006 318.241C334.3 318.746 334.342 319.106 334.29 319.127Z" fill="#263238"/>
<path d="M332.517 322.473C331.79 322.083 331.039 321.739 330.269 321.443C329.448 321.301 328.62 321.205 327.789 321.155C328.573 320.661 329.553 320.572 330.416 320.918C331.908 321.309 332.643 322.4 332.517 322.473Z" fill="#263238"/>
<path d="M337.598 314.823C336.525 314.129 335.401 313.514 334.236 312.98C333.006 312.612 331.748 312.336 330.475 312.157C333.177 311.602 335.961 312.644 337.598 314.823Z" fill="#263238"/>
<path d="M338 307.287C337.937 307.441 336.529 306.875 334.711 306.834C332.893 306.793 331.454 307.225 331.391 307.071C333.467 305.949 336.004 306.032 338 307.287Z" fill="#263238"/>
<path d="M337.947 300.008C336.841 299.668 335.692 299.477 334.533 299.442C333.383 299.573 332.259 299.86 331.191 300.297C331.191 300.245 331.423 299.926 332 299.597C333.569 298.729 335.468 298.648 337.107 299.38C337.685 299.658 337.99 299.947 337.947 300.008Z" fill="#263238"/>
<path d="M334.564 298.052C334.499 297.743 334.499 297.424 334.564 297.115C334.643 296.254 334.896 295.417 335.31 294.654C335.556 294.067 335.996 293.578 336.56 293.265C336.961 293.09 337.429 293.175 337.737 293.481C338.008 293.79 338.153 294.185 338.147 294.593C338.045 296.304 336.726 297.707 334.995 297.949C333.28 298.135 331.621 297.29 330.792 295.808C330.585 295.438 330.554 294.997 330.708 294.603C330.91 294.226 331.327 294.009 331.759 294.057C332.383 294.188 332.963 294.475 333.44 294.891C334.129 295.427 334.719 296.074 335.184 296.806C335.37 297.065 335.504 297.354 335.583 297.661C334.915 296.73 334.112 295.901 333.198 295.2C332.771 294.857 332.267 294.62 331.727 294.51C331.487 294.47 331.25 294.588 331.139 294.799C331.063 295.066 331.101 295.351 331.244 295.591C331.996 296.844 333.425 297.552 334.9 297.403C336.377 297.219 337.521 296.046 337.643 294.593C337.656 294.311 337.567 294.034 337.39 293.81C337.228 293.629 336.963 293.574 336.739 293.676C336.278 293.952 335.912 294.358 335.688 294.84C335.129 295.839 334.749 296.927 334.564 298.052Z" fill="#263238"/>
<path d="M343.696 150.694C343.696 150.694 317.67 198.907 317.313 207.319C316.956 215.73 317.313 293.265 317.313 293.265H357.597C358.648 293.265 364.69 258.332 363.46 250.292C362.231 242.251 357.892 199.031 357.892 199.031H381.07C381.07 199.031 387.427 192.37 387.196 183.917C387.059 179.253 383.949 169.72 380.892 164.665C378.906 161.422 366.182 144.445 366.182 144.445L343.696 150.694Z" fill="#263238"/>
<path d="M341.949 153.957C341.921 154.054 341.882 154.147 341.834 154.235C341.739 154.441 341.613 154.699 341.455 155.018L339.942 158.024C339.259 159.332 338.45 160.917 337.505 162.76L335.992 165.715L334.405 169.081L326.598 185.647C325.117 188.735 323.562 192.04 321.944 195.427L319.496 200.575C318.704 202.355 318.105 204.211 317.709 206.114C317.31 208.022 317.103 209.963 317.089 211.91C317.026 213.835 316.984 215.74 316.953 217.604C316.953 221.351 316.879 224.954 316.89 228.393C316.89 235.27 316.974 241.468 317.047 246.668C317.121 251.867 317.184 256.036 317.237 259.022C317.237 260.443 317.237 261.565 317.237 262.368C317.237 262.728 317.237 263.017 317.237 263.243C317.237 263.47 317.237 263.542 317.237 263.542C317.219 263.443 317.219 263.342 317.237 263.243C317.237 263.017 317.237 262.728 317.237 262.378C317.237 261.565 317.152 260.453 317.089 259.022C316.984 256.119 316.848 251.908 316.732 246.668C316.617 241.427 316.491 235.281 316.459 228.393C316.459 224.954 316.459 221.341 316.459 217.604C316.459 215.73 316.522 213.825 316.596 211.89C316.606 209.912 316.813 207.939 317.215 206.001C317.622 204.063 318.235 202.172 319.044 200.359L321.502 195.211L326.189 185.451L334.153 168.927L335.771 165.571C336.328 164.541 336.822 163.512 337.326 162.636L339.837 157.942C340.52 156.675 341.067 155.687 341.445 154.977C341.624 154.668 341.771 154.421 341.876 154.215C341.981 154.009 341.939 153.947 341.949 153.957Z" fill="#455A64"/>
<path d="M333.523 170.379C332.688 168.418 331.986 166.407 331.422 164.356C330.684 162.358 330.084 160.316 329.625 158.24C330.604 160.143 331.38 162.141 331.937 164.201C332.68 166.202 333.212 168.271 333.523 170.379Z" fill="#455A64"/>
<path d="M363.542 248.778C363.475 248.603 363.433 248.419 363.416 248.232C363.367 247.813 363.293 247.288 363.195 246.657C363.006 245.205 362.765 243.229 362.46 240.83C361.882 235.847 361.105 229.083 360.243 221.608C359.381 214.134 358.677 207.287 358.247 202.356C358.047 199.947 357.879 197.97 357.753 196.518C357.753 195.87 357.669 195.345 357.637 194.923C357.624 194.737 357.624 194.552 357.637 194.367C357.703 194.542 357.742 194.726 357.753 194.912C357.805 195.334 357.879 195.86 357.963 196.498C358.131 197.95 358.362 199.916 358.635 202.325C359.192 207.308 359.949 214.082 360.737 221.557C361.525 229.031 362.271 235.795 362.838 240.789C363.069 243.198 363.269 245.175 363.406 246.626C363.458 247.264 363.5 247.8 363.532 248.222C363.552 248.406 363.555 248.593 363.542 248.778Z" fill="#455A64"/>
<path d="M348.532 20.9045C347.468 16.8743 350.621 12.5572 354.705 11.6422C358.79 10.7271 363.235 12.8184 365.54 16.3144C367.739 19.8838 368.325 24.1888 367.155 28.1973C366.393 30.8969 364.747 33.7202 361.959 34.2198C359.171 34.7193 356.789 32.8465 354.718 31.1067" fill="#263238"/>
<path d="M321.344 44.2999C311.025 27.2312 329.89 16.1304 341.009 17.9876C351.471 19.7376 356.348 24.2375 358.747 30.7162C361.308 37.1995 361.715 44.3096 359.91 51.0334C358.936 54.304 356.921 57.7251 353.537 58.4735" fill="#263238"/>
<path d="M348.577 27.2681C350.379 27.2624 351.884 28.6142 352.034 30.3743L355.07 76.2563C355.586 81.6588 347.886 85.5521 341.969 86.0484C336.011 86.5491 335.5 83.7036 334.814 78.5881C333.742 70.034 333.39 66.8094 333.396 66.8605C333.401 66.9117 325.739 66.4211 323.132 56.9719C321.827 52.2735 321.221 44.4057 320.928 37.9547C320.674 32.1518 323.797 24.6591 329.73 24.6063L348.577 27.2681Z" fill="#FFBE9D"/>
<path d="M325.369 43.0182C325.43 43.6899 326.03 44.1892 326.717 44.14C327.384 44.1218 327.911 43.5778 327.892 42.9243C327.892 42.9119 327.891 42.9007 327.891 42.8883C327.824 42.2192 327.227 41.7226 326.542 41.7665C325.875 41.7847 325.348 42.3287 325.367 42.9822C325.367 42.9946 325.368 43.0058 325.369 43.0182Z" fill="#263238"/>
<path d="M323.137 41.854C323.31 41.9911 324.196 41.2045 325.544 41.0631C326.892 40.9217 327.967 41.4819 328.096 41.3028C328.224 41.1237 327.973 40.9533 327.501 40.6922C326.871 40.3565 326.151 40.2187 325.439 40.2975C324.735 40.3641 324.073 40.6562 323.554 41.1269C323.17 41.4778 323.056 41.79 323.137 41.854Z" fill="#263238"/>
<path d="M338.605 41.6302C338.669 42.2841 339.24 42.778 339.911 42.7563C340.578 42.7382 341.105 42.1942 341.086 41.5407C341.086 41.5283 341.085 41.517 341.085 41.5046C341.018 40.8355 340.422 40.3389 339.736 40.3829C339.073 40.4234 338.567 40.9807 338.605 41.6302Z" fill="#263238"/>
<path d="M336.88 41.0234C337.054 41.1606 337.93 40.375 339.277 40.2336C340.625 40.0922 341.701 40.6524 341.83 40.4835C341.96 40.3147 341.706 40.1238 341.234 39.8627C340.606 39.5258 339.885 39.3871 339.173 39.468C338.471 39.5417 337.81 39.8325 337.287 40.2974C336.84 40.6549 336.759 40.9741 336.88 41.0234Z" fill="#263238"/>
<path d="M332.636 51.0564C331.9 50.9162 331.149 50.8624 330.399 50.8976C330.055 50.9337 329.709 50.8664 329.632 50.6467C329.561 50.2938 329.602 49.9281 329.75 49.5989C329.985 48.746 330.225 47.851 330.513 46.9096C331.221 44.6247 331.743 42.2879 332.075 39.9224C331.173 42.1447 330.459 44.4365 329.938 46.7732L329.24 49.4764C329.069 49.9085 329.058 50.386 329.208 50.8258C329.34 51.0553 329.571 51.2143 329.836 51.2569C330.033 51.286 330.232 51.293 330.43 51.2774C331.172 51.2939 331.913 51.2192 332.636 51.0564Z" fill="#263238"/>
<path d="M333.422 66.8476C338.069 66.4439 342.509 64.7772 346.242 62.0342C346.242 62.0342 343.768 68.9826 333.849 69.1118L333.422 66.8476Z" fill="#EB996E"/>
<path d="M333.563 54.1905C334.019 53.4946 334.807 53.0754 335.65 53.0811C336.263 53.0676 336.854 53.3007 337.285 53.7276C337.702 54.1415 337.813 54.7657 337.562 55.2932C337.171 55.8291 336.486 56.078 335.834 55.9197C335.166 55.765 334.538 55.4789 333.988 55.0779C333.825 54.9883 333.679 54.8701 333.559 54.7294C333.443 54.5904 333.422 54.3979 333.505 54.238" fill="#EB996E"/>
<path d="M336.729 51.5596C336.51 51.5826 336.655 53.0066 335.513 54.1618C334.371 55.317 332.786 55.3176 332.793 55.4825C332.801 55.6473 333.168 55.7227 333.871 55.6697C334.735 55.5884 335.542 55.2148 336.154 54.6123C336.734 54.0327 337.066 53.2565 337.079 52.4444C337.028 51.8802 336.822 51.5395 336.729 51.5596Z" fill="#263238"/>
<path d="M335.615 38.4437C335.79 38.7877 337.129 38.4712 338.739 38.4992C340.348 38.5271 341.678 38.8018 341.852 38.4625C341.929 38.2991 341.662 37.9854 341.111 37.6808C340.375 37.319 339.562 37.1351 338.738 37.1428C337.916 37.1286 337.102 37.3103 336.366 37.6712C335.805 37.9578 335.544 38.2751 335.615 38.4437Z" fill="#263238"/>
<path d="M323.217 37.9525C323.491 38.2344 324.387 37.8298 325.515 37.7115C326.644 37.5931 327.627 37.697 327.791 37.3589C327.868 37.1955 327.741 36.8982 327.24 36.6711C326.651 36.3747 325.981 36.2669 325.326 36.3646C324.669 36.4469 324.054 36.7247 323.564 37.1603C323.199 37.4988 323.097 37.8202 323.217 37.9525Z" fill="#263238"/>
<path d="M334.284 20.9396C330.971 21.4558 327.845 22.7808 325.194 24.7922C322.158 26.7621 320.046 29.8331 319.321 33.3291C319.12 34.0626 319.236 34.8435 319.642 35.4906C320.369 36.2188 321.522 36.337 322.389 35.772C323.223 35.2071 323.902 34.4494 324.367 33.5661C325.145 35.7086 327.549 36.8274 329.735 36.0648C331.258 35.5333 332.335 34.1944 332.506 32.6192C332.871 34.5193 334.696 35.8012 336.649 35.5291C338.555 35.1645 340.058 33.725 340.475 31.8661C340.887 33.5065 341.65 35.0428 342.712 36.3738C343.82 37.7237 345.672 38.25 347.346 37.6893C347.15 39.1409 347.333 40.6188 347.879 41.9822C348.549 43.2787 353.154 66.1858 354.503 65.5681C355.851 64.9504 353.222 41.37 353.386 39.9654C353.793 37.2616 353.848 34.5171 353.55 31.7993C353.112 25.9952 348.443 21.3596 342.527 20.8515C339.657 20.5157 336.755 20.5592 333.897 20.9801" fill="#263238"/>
<path d="M358.548 60.9918C358.548 60.9918 358.46 61.0631 358.259 61.1567C357.977 61.2929 357.68 61.3966 357.374 61.467C354.448 62.1466 351.385 61.1136 349.507 58.8131C348.239 57.103 347.56 55.0424 347.565 52.9286C347.481 50.7112 347.784 48.65 347.823 46.7821C347.88 45.1215 347.848 43.4589 347.723 41.8019C347.568 40.3892 347.444 39.2529 347.357 38.4544C347.268 38.0507 347.223 37.6392 347.223 37.226C347.391 37.6153 347.51 38.0243 347.578 38.4417C347.814 39.5486 347.993 40.6667 348.113 41.7921C348.293 43.4589 348.367 45.1357 348.333 46.8114C348.309 48.7191 348.039 50.7873 348.113 52.9228C348.107 54.9302 348.734 56.8897 349.91 58.5327C350.921 59.8328 352.357 60.7538 353.978 61.1398C355.069 61.4219 356.21 61.4721 357.322 61.286C358.121 61.1505 358.532 60.9417 358.548 60.9918Z" fill="#263238"/>
<path d="M330.686 20.0636C331.143 20.725 331.406 21.4957 331.448 22.2928C331.965 26.3232 329.061 30.0054 324.951 30.5328C324.156 30.6928 323.331 30.6354 322.566 30.3688C322.556 30.2766 323.481 30.4281 324.885 30.1255C328.704 29.4661 331.391 26.077 331.099 22.288C330.981 20.9232 330.595 20.0939 330.686 20.0636Z" fill="#455A64"/>
<path d="M333.365 31.2347C333.418 31.2292 333.364 31.8976 332.69 32.693C331.778 33.6885 330.492 34.2759 329.127 34.3196C327.801 34.3427 326.489 34.0506 325.304 33.4678C324.4 33.0345 323.897 32.6834 323.928 32.5767C324.45 32.6792 324.959 32.8454 325.44 33.0704C326.603 33.5158 327.844 33.7377 329.093 33.7226C330.329 33.6645 331.501 33.1739 332.398 32.3406C333.109 31.7897 333.298 31.2003 333.365 31.2347Z" fill="#455A64"/>
<path d="M356.709 25.8144C356.876 26.6885 356.909 27.5817 356.809 28.465C356.747 30.6345 356.144 32.7552 355.053 34.6442C353.893 36.5438 351.982 37.8904 349.775 38.3663C349.11 38.4961 348.425 38.5006 347.758 38.3811C347.294 38.2951 347.061 38.1851 347.068 38.1533C347.946 38.2144 348.828 38.1602 349.692 37.9919C351.734 37.4433 353.484 36.1477 354.58 34.3729C355.619 32.5482 356.245 30.5267 356.416 28.4441C356.458 27.5627 356.556 26.6847 356.709 25.8144Z" fill="#455A64"/>
<path d="M359.018 30.2842C359.142 30.5372 359.225 30.8081 359.264 31.0867C359.415 31.8246 359.515 32.5721 359.561 33.3231C359.781 35.8482 359.127 38.3718 357.702 40.4865C356.895 41.6521 355.78 42.5808 354.477 43.1752C353.407 43.6467 352.231 43.8415 351.062 43.7405C350.277 43.6768 349.515 43.4544 348.824 43.0848C348.35 42.8134 348.137 42.5977 348.155 42.5751C349.071 43.0195 350.065 43.2879 351.084 43.3654C352.179 43.4038 353.267 43.1872 354.259 42.7321C355.464 42.147 356.496 41.2684 357.256 40.1812C358.603 38.1472 359.276 35.7552 359.181 33.3319C359.146 31.4614 358.925 30.3043 359.018 30.2842Z" fill="#455A64"/>
<path d="M224.217 156.429L205.146 199.165H231.404L250.106 156.089L224.217 156.429Z" fill="#455A64"/>
<path d="M210.348 110.974L231.856 152.423H299.69L296.948 147.008L277.299 146.432L261.276 111.489C260.282 109.315 258.077 107.915 255.644 107.916H212.26C211.1 107.875 210.127 108.764 210.085 109.9C210.072 110.275 210.162 110.647 210.348 110.974Z" fill="#E0E0E0"/>
<path d="M244.319 129.558C244.319 130.962 243.157 132.101 241.724 132.101C240.291 132.101 239.129 130.962 239.129 129.558C239.129 128.153 240.291 127.015 241.724 127.015C243.155 127.02 244.314 128.155 244.319 129.558Z" fill="#263238"/>
<path d="M223.998 152.506H306.92V156.47H223.998V152.506Z" fill="#455A64"/>
<path d="M281.375 154.493L306.603 199.206H318.665L321.292 194.089L323.708 188.705L306.918 156.47L281.375 154.493Z" fill="#455A64"/>
<path d="M325.21 77.8329C325.21 77.8329 314.966 100.339 315.355 112.631C315.491 116.904 318.349 128.074 318.349 128.074L323.676 155.728C323.676 155.728 364.454 150.323 365.358 150.323C366.262 150.323 363.992 127.621 363.992 127.621L370.643 83.9999C370.643 83.9999 367.596 78.0594 353.832 76.0003C345.584 74.734 325.21 77.8329 325.21 77.8329Z" fill="#EB0808"/>
<path d="M321.347 90.8979C321.441 90.9494 320.37 92.6276 319.077 95.5309C318.328 97.2307 317.697 98.9778 317.186 100.761C316.572 102.946 316.126 105.173 315.852 107.422C315.61 109.676 315.536 111.943 315.631 114.207C315.727 116.055 315.947 117.896 316.293 119.715C316.881 122.803 317.554 124.698 317.449 124.729C317.228 124.319 317.053 123.888 316.923 123.442C316.736 122.932 316.575 122.413 316.44 121.887C316.272 121.269 316.051 120.58 315.904 119.828C315.51 117.995 315.251 116.137 315.127 114.269C315.001 111.975 315.06 109.676 315.305 107.391C315.585 105.11 316.052 102.855 316.703 100.648C317.243 98.8532 317.92 97.102 318.731 95.4073C319.026 94.7495 319.356 94.107 319.718 93.4821C319.969 92.9982 320.247 92.5267 320.548 92.0716C320.773 91.6547 321.041 91.2614 321.347 90.8979Z" fill="#263238"/>
<path d="M330.172 77.6271L330.76 71.4499C330.894 70.1207 332.024 69.1015 333.387 69.0819L353.508 68.7834C354.774 68.7689 355.836 69.7182 355.935 70.9557L356.45 77.6168C354.766 81.1152 351.916 83.9475 348.37 85.6472C342.455 88.4579 333.261 88.5505 333.261 88.5505L330.172 77.6271Z" fill="#EB0808"/>
<path d="M335.438 69.1337C335.501 69.1337 335.207 69.5352 335.081 70.1632C334.967 71.0723 334.967 71.9927 335.081 72.9018C335.257 74.2278 335.257 75.5704 335.081 76.8964C334.719 75.6054 334.535 74.2721 334.534 72.9327C334.393 71.9793 334.436 71.0085 334.66 70.0706C335.007 69.3602 335.406 69.0822 335.438 69.1337Z" fill="#263238"/>
<path d="M340.26 76.7727C339.909 75.5115 339.739 74.2091 339.756 72.9016C339.678 71.9771 339.678 71.0464 339.756 70.1219C339.861 69.3806 340.165 68.9997 340.228 69.0923C340.291 69.185 340.134 69.5247 340.144 70.2042C340.155 70.8837 340.26 71.8515 340.26 72.881C340.436 74.1721 340.436 75.4816 340.26 76.7727Z" fill="#263238"/>
<path d="M346.299 76.6079C345.864 75.4064 345.599 74.1524 345.511 72.8809C345.251 71.6208 345.17 70.3328 345.269 69.051C345.708 70.2618 345.973 71.526 346.057 72.8088C346.313 74.0587 346.395 75.3364 346.299 76.6079Z" fill="#263238"/>
<path d="M351.512 76.9994C351.032 75.6764 350.777 74.2855 350.756 72.8812C350.554 71.4811 350.59 70.0593 350.861 68.6704C351.136 70.0273 351.283 71.4059 351.302 72.7886C351.506 74.1826 351.576 75.592 351.512 76.9994Z" fill="#263238"/>
<path d="M355.502 100.586C354.693 107.515 355.229 119.458 357.73 125.995L369.477 106.98L355.502 100.586Z" fill="black"/>
<path d="M330.056 90.2391C328.879 89.5678 327.798 88.7473 326.84 87.799C325.761 86.9826 324.8 86.0272 323.982 84.9575C326.238 86.4442 328.281 88.2212 330.056 90.2391Z" fill="#FAFAFA"/>
<path d="M326.934 102.151C326.11 102.98 325.155 103.675 324.107 104.21C323.146 104.893 322.082 105.428 320.955 105.795C322.738 104.293 324.748 103.071 326.913 102.171L326.934 102.151Z" fill="#FAFAFA"/>
<path d="M339.826 105.085C339.639 103.622 339.639 102.142 339.826 100.679C339.833 99.2075 340.017 97.7425 340.372 96.3135C340.556 97.7734 340.556 99.2497 340.372 100.71C340.368 102.184 340.185 103.653 339.826 105.085Z" fill="#FAFAFA"/>
<path d="M352.363 116.997C351.318 116.035 350.342 115.003 349.442 113.908C348.409 112.944 347.444 111.912 346.553 110.82C347.814 111.536 348.928 112.475 349.841 113.589C350.882 114.57 351.735 115.724 352.363 116.997Z" fill="#FAFAFA"/>
<path d="M354.126 92.0925C353.224 93.0119 352.194 93.8016 351.068 94.4399C350.036 95.2182 348.902 95.8555 347.695 96.3342C348.6 95.4138 349.633 94.6231 350.763 93.9869C351.794 93.2127 352.925 92.5754 354.126 92.0925Z" fill="#FAFAFA"/>
<path d="M342.797 83.084C341.8 84.0342 340.676 84.8486 339.456 85.5034C338.337 86.3147 337.115 86.9798 335.82 87.4801C336.818 86.5278 337.943 85.7114 339.162 85.0504C340.285 84.2484 341.506 83.5885 342.797 83.084Z" fill="#FAFAFA"/>
<path d="M353.011 86.6673C352.323 85.6707 351.785 84.5814 351.414 83.4345C350.897 82.3432 350.543 81.186 350.363 79.9958C351.06 80.9914 351.599 82.0848 351.96 83.2389C352.484 84.324 352.838 85.4792 353.011 86.6673Z" fill="#FAFAFA"/>
<path d="M325.87 119.89C325.014 118.728 324.308 117.466 323.768 116.132C323.065 114.874 322.521 113.536 322.15 112.148C323.007 113.31 323.713 114.573 324.252 115.906C324.958 117.163 325.501 118.501 325.87 119.89Z" fill="#FAFAFA"/>
<path d="M341.307 136.136C340.319 135.257 339.461 134.249 338.754 133.14C337.91 132.129 337.204 131.014 336.652 129.825C337.642 130.705 338.505 131.713 339.216 132.821C340.064 133.828 340.768 134.943 341.307 136.136Z" fill="#FAFAFA"/>
<path d="M354.065 129.321C352.984 130.011 351.809 130.552 350.577 130.927C349.408 131.467 348.166 131.838 346.889 132.028C349.136 130.794 351.553 129.882 354.065 129.321Z" fill="#FAFAFA"/>
<path d="M322.637 142.478C323.141 140.535 323.991 138.695 325.148 137.042C324.97 138.038 324.614 138.997 324.097 139.873C323.77 140.818 323.276 141.7 322.637 142.478Z" fill="#FAFAFA"/>
<path d="M312.754 95.9531C312.147 95.1994 311.781 94.2852 311.703 93.3277C311.455 92.4001 311.499 91.42 311.829 90.5171C312.046 91.4097 312.187 92.3188 312.25 93.2351C312.492 94.1267 312.662 95.0347 312.754 95.9531Z" fill="#FAFAFA"/>
<path d="M330.307 132.059C329.185 131.77 328.12 131.3 327.155 130.669C326.108 130.204 325.144 129.578 324.297 128.816C325.417 129.111 326.481 129.58 327.449 130.206C328.491 130.68 329.455 131.304 330.307 132.059Z" fill="#FAFAFA"/>
<path d="M340.445 114.907C338.722 116.929 336.72 118.706 334.498 120.188C335.296 119.123 336.236 118.167 337.293 117.347C338.225 116.396 339.286 115.576 340.445 114.907Z" fill="#FAFAFA"/>
<path d="M334.236 114.588C334.746 118.177 336.38 121.522 338.912 124.162C341.539 126.674 345.605 127.941 349.02 126.633C349.777 126.429 350.385 125.876 350.648 125.151C350.767 124.246 350.218 123.384 349.335 123.092C348.484 122.824 347.592 122.698 346.698 122.721C341.518 122.387 336.882 119.451 334.446 114.958" fill="black"/>
<path d="M347.894 122.886C347.894 122.886 347.653 122.968 347.19 123.009C346.541 123.074 345.885 123.074 345.236 123.009C344.271 122.898 343.323 122.677 342.41 122.35C340.157 121.557 338.157 120.197 336.61 118.407C335.981 117.681 335.442 116.888 335.002 116.039C334.692 115.474 334.45 114.877 334.277 114.258C334.193 114.038 334.147 113.804 334.141 113.568C334.246 113.568 334.529 114.495 335.338 115.854C335.812 116.647 336.365 117.392 336.988 118.078C337.76 118.913 338.624 119.661 339.562 120.312C340.51 120.942 341.525 121.47 342.588 121.887C343.46 122.223 344.365 122.472 345.289 122.628C346.875 122.855 347.894 122.783 347.894 122.886Z" fill="#263238"/>
<path d="M369.582 82.5925L369.645 82.6546C372.956 86.0996 375.369 90.2778 376.676 94.8328L378.784 104.512L355.648 107.882C354.4 103.774 354.124 99.4424 354.84 95.2139C356.018 87.9313 369.582 82.5925 369.582 82.5925Z" fill="#EB0808"/>
<path d="M378.781 104.512C378.63 104.563 378.476 104.6 378.318 104.623L376.993 104.852L372.039 105.617L355.277 108.014L354.982 108.012L354.984 107.714C354.94 106.344 354.906 104.923 354.883 103.461C354.853 99.6616 354.927 96.0277 355.177 92.7242C355.355 89.7632 356.297 86.8961 357.916 84.39C359.004 82.7046 360.49 81.3004 362.248 80.2962C362.723 80.024 363.224 79.7983 363.744 79.6252C363.918 79.5479 364.102 79.4975 364.292 79.4738C364.292 79.4738 363.555 79.7476 362.352 80.4924C360.679 81.53 359.272 82.9305 358.241 84.5874C356.704 87.0775 355.821 89.9028 355.671 92.8094C355.41 96.0819 355.399 99.7059 355.44 103.505C355.431 104.947 355.496 106.378 355.52 107.737L355.217 107.478L372.041 105.257L377.015 104.657L378.361 104.51C378.501 104.493 378.641 104.494 378.781 104.512Z" fill="#263238"/>
<path d="M367.039 91.1958C365.366 90.0445 363.916 88.6104 362.756 86.9607C363.643 87.464 364.432 88.1171 365.088 88.8888C365.875 89.5357 366.537 90.3168 367.039 91.1958Z" fill="#FAFAFA"/>
<path d="M361.192 101.201C360.864 100.182 360.718 99.1151 360.759 98.0477C360.608 96.9926 360.646 95.92 360.872 94.8773C361.343 96.9525 361.451 99.0904 361.192 101.201Z" fill="#FAFAFA"/>
<path d="M372.876 99.1872C371.652 99.3708 370.404 99.3225 369.199 99.0429C367.968 98.9371 366.769 98.606 365.664 98.0654C366.885 98.0847 368.1 98.2367 369.286 98.5183C370.504 98.6158 371.708 98.8398 372.876 99.1872Z" fill="#FAFAFA"/>
<path d="M289.753 139.055L304.977 137.401L315.664 144.35L356.698 134.945L357.826 107.441L376.049 105.197L375.853 138.502C375.591 146.919 368.428 153.542 359.837 153.309L299.788 151.333L297.265 146.315L284.375 145.861L289.753 139.055Z" fill="#FFBE9D"/>
<path d="M356.21 134.89C355.957 134.988 355.696 135.066 355.431 135.123L353.2 135.676L344.962 137.627L317.732 143.929L315.196 144.512L315.091 144.511L315.007 144.511L304.33 137.542L304.477 137.543L289.243 139.186L289.348 139.125L285.284 144.116L284.226 145.428C284.108 145.585 283.973 145.729 283.824 145.858C283.922 145.691 284.033 145.53 284.152 145.376L285.211 144.023L289.149 138.959L289.212 138.96L304.427 137.182L304.511 137.183L304.574 137.183L315.272 144.121L315.083 144.12L317.618 143.537L344.879 137.369L353.159 135.553L355.41 135.082C355.671 134.998 355.939 134.933 356.21 134.89Z" fill="#EB996E"/>
<path d="M298.035 143.375C296.071 143.589 294.093 143.653 292.119 143.568L291.068 143.562L291.215 143.511C290.021 144.575 288.731 145.532 287.363 146.372C288.453 145.207 289.641 144.132 290.913 143.159L290.976 143.098L292.142 143.104C294.111 143.036 296.081 143.127 298.035 143.375Z" fill="#EB996E"/>
<path d="M363.74 139.432C362.964 138.217 361.953 137.162 360.764 136.327C359.501 135.618 358.107 135.163 356.663 134.986C357.09 134.844 357.545 134.81 357.988 134.89C360.161 135.128 362.097 136.346 363.222 138.183C363.504 138.547 363.682 138.979 363.74 139.432Z" fill="#EB996E"/>
<path d="M84.4387 295.778L88.1285 295.82C90.7523 295.852 93.3516 295.327 95.7489 294.281C96.9243 293.747 98.1318 293.286 99.3649 292.899C104.065 291.545 109.098 292.331 113.996 292.536C122.021 292.88 130.035 291.646 137.564 288.905C138.014 288.758 138.409 288.481 138.696 288.11C139.579 286.837 138.293 285.508 137.16 284.669C131.337 280.366 125.414 276.012 118.595 273.51C111.775 271.007 103.784 270.588 97.4334 274.065C89.9684 278.151 86.4692 287.631 84.4909 295.783" fill="#EB0808"/>
<path d="M138.772 287.641C138.569 287.537 138.372 287.422 138.182 287.297L136.532 286.245C135.101 285.326 133.046 283.978 130.418 282.442C127.381 280.605 124.179 279.042 120.853 277.772C116.786 276.208 112.442 275.454 108.074 275.556C103.704 275.627 99.453 276.968 95.8615 279.41C93.0351 281.536 90.681 284.203 88.9425 287.25C87.3961 289.827 86.3694 292.048 85.6543 293.554L84.8205 295.307C84.7349 295.516 84.631 295.717 84.5092 295.909C84.561 295.688 84.6345 295.474 84.7293 295.267C84.9202 294.82 85.1677 294.222 85.471 293.485C86.3845 291.31 87.4278 289.19 88.5948 287.135C90.3173 284.012 92.6876 281.276 95.5534 279.103C99.2014 276.567 103.543 275.168 108.014 275.085C112.442 274.971 116.848 275.731 120.97 277.318C124.312 278.625 127.524 280.23 130.566 282.115C133.168 283.7 135.197 285.087 136.603 286.055L138.204 287.185C138.412 287.313 138.603 287.466 138.772 287.641Z" fill="#263238"/>
<path d="M129.526 291.491C129.443 291.587 124.934 288.108 119.469 283.714C114.003 279.32 109.637 275.669 109.699 275.572C109.762 275.474 114.281 278.953 119.747 283.347C125.212 287.741 129.61 291.385 129.526 291.491Z" fill="#263238"/>
<path d="M126.311 276.644C123.796 277.17 121.195 277.165 118.682 276.631C119.949 276.492 121.227 276.465 122.499 276.55C123.77 276.473 125.045 276.505 126.311 276.644Z" fill="#263238"/>
<path d="M105.176 270.882C104.057 272.919 102.666 274.801 101.038 276.477C101.518 275.42 102.146 274.433 102.904 273.547C103.529 272.557 104.294 271.66 105.176 270.882Z" fill="#263238"/>
<path d="M107.448 292.24C106.671 291.835 105.939 291.352 105.265 290.797C103.953 289.848 102.199 288.445 100.368 286.859C98.5363 285.273 96.8789 283.744 95.6976 282.642C95.0308 282.081 94.4194 281.461 93.8711 280.787C94.6101 281.256 95.3001 281.794 95.9325 282.395L100.697 286.507C102.548 288.105 104.259 289.515 105.511 290.541C106.206 291.051 106.854 291.619 107.448 292.24Z" fill="#263238"/>
<path d="M88.3503 311.538C84.9444 310.303 80.4496 313.248 79.4138 316.658C78.3781 320.067 79.3544 323.736 80.5914 327.108C83.2322 334.585 87.5629 341.38 93.261 346.987C99.0146 352.575 106.526 356.095 114.578 356.974C113.751 350.114 116.29 343.255 116.133 336.343C115.827 323.803 106.722 313.134 94.1801 310.62C91.9747 310.178 89.4236 309.6 88.3398 311.537" fill="#EB0808"/>
<path d="M114.58 356.975C114.41 356.901 114.248 356.811 114.099 356.703C113.666 356.407 113.256 356.079 112.875 355.721C111.53 354.336 110.502 352.686 109.858 350.881C109.403 349.805 108.89 348.558 108.407 347.221C107.923 345.883 107.447 344.474 106.919 342.946C106.393 341.384 105.76 339.857 105.027 338.376C104.24 336.798 103.327 335.282 102.298 333.842C100.177 330.875 97.8331 328.259 95.8253 325.767C94.0023 323.591 92.3764 321.265 90.9653 318.813C90.0215 317.151 89.2851 315.385 88.7704 313.553C88.611 312.907 88.492 312.389 88.441 312.043C88.3997 311.869 88.381 311.69 88.3867 311.511C88.3867 311.511 88.5601 312.23 88.9542 313.508C89.534 315.3 90.3091 317.025 91.2655 318.654C92.7129 321.059 94.3564 323.345 96.1792 325.489C98.2005 327.952 100.555 330.569 102.704 333.57C103.758 335.029 104.693 336.569 105.5 338.172C106.228 339.676 106.858 341.222 107.386 342.803L108.832 347.074C109.296 348.399 109.79 349.624 110.232 350.73C110.83 352.514 111.791 354.161 113.058 355.572C113.977 356.547 114.636 356.939 114.58 356.975Z" fill="#263238"/>
<path d="M97.0517 349.717C97.1475 348.941 97.3309 348.177 97.5982 347.44C98.0065 346.051 98.643 344.155 99.4532 342.1C100.263 340.045 101.093 338.229 101.745 336.935C102.046 336.211 102.434 335.524 102.903 334.891C102.688 335.639 102.406 336.368 102.06 337.067C101.488 338.4 100.699 340.23 99.9111 342.277C99.1228 344.324 98.4788 346.188 97.926 347.543C97.708 348.294 97.4151 349.022 97.0517 349.717Z" fill="#263238"/>
<path d="M116.076 334.817C115.25 334.618 114.442 334.354 113.661 334.024C112.192 333.506 110.161 332.78 107.899 332.054C105.637 331.327 103.561 330.742 102.061 330.314C101.234 330.131 100.426 329.876 99.6442 329.553C100.491 329.609 101.33 329.757 102.145 329.991C103.675 330.329 105.775 330.875 108.051 331.571C110.327 332.268 112.349 333.076 113.789 333.685C114.589 333.983 115.356 334.362 116.076 334.817Z" fill="#263238"/>
<path d="M85.211 336.801C85.3376 335.904 85.5494 335.02 85.8454 334.161C86.3163 332.56 87.0148 330.35 87.9099 327.961C88.805 325.572 89.7078 323.432 90.4038 321.904C90.7562 321.062 91.1866 320.254 91.6919 319.49C91.4547 320.364 91.1467 321.216 90.7705 322.042C90.1562 323.598 89.2952 325.742 88.4116 328.121C87.5279 330.501 86.7676 332.695 86.2255 334.268C85.9611 335.14 85.6219 335.987 85.211 336.801Z" fill="#263238"/>
<path d="M109.437 319.684C109.425 319.807 105.075 319.063 99.763 318.002C94.4511 316.942 90.1528 315.986 90.1856 315.865C93.4373 316.259 96.6669 316.816 99.8608 317.536C103.088 318.092 106.285 318.809 109.437 319.684Z" fill="#263238"/>
<path d="M85.0934 312.509C85.0304 312.681 84.951 312.847 84.8557 313.004C84.6623 313.369 84.4076 313.821 84.1117 314.373C83.9451 314.678 83.7661 315.003 83.5631 315.356C83.3602 315.71 83.1922 316.139 82.9928 316.565L82.321 317.951C82.0938 318.447 81.898 318.946 81.6609 319.544C80.5897 322.161 79.6867 324.84 78.9563 327.567C78.1039 330.915 77.4247 334.304 76.9225 337.72C76.0739 343.94 75.6533 350.21 75.6627 356.486C75.6512 358.905 75.6852 360.852 75.7241 362.2C75.7266 362.831 75.74 363.35 75.7433 363.753C75.7395 363.935 75.722 364.117 75.691 364.296C75.6416 364.119 75.617 363.936 75.6168 363.752C75.5821 363.345 75.5468 362.835 75.5015 362.211C75.4102 360.858 75.3135 358.905 75.2822 356.492C75.1715 350.194 75.5496 343.895 76.4119 337.652C76.8992 334.216 77.58 330.81 78.4507 327.448C79.2015 324.717 80.1444 322.04 81.2703 319.436C81.5139 318.879 81.7241 318.34 81.9608 317.855L82.664 316.472L83.2856 315.279C83.4895 314.915 83.6885 314.602 83.8656 314.298L84.7008 312.969C84.8061 312.796 84.9383 312.641 85.0934 312.509Z" fill="#263238"/>
<path d="M85.0625 294.543C84.9811 294.785 84.8845 295.021 84.7727 295.251C84.5464 295.736 84.2397 296.401 83.8638 297.235L83.1985 298.662C82.9778 299.2 82.7322 299.777 82.4722 300.394C81.9522 301.629 81.3527 303.031 80.7877 304.623L79.8513 307.112C79.5561 307.984 79.257 308.897 78.9455 309.83C78.2796 311.702 77.7339 313.751 77.0871 315.863C75.9131 320.16 74.7859 324.957 73.8366 329.988C72.8874 335.019 72.2573 339.914 71.7669 344.347C71.2764 348.779 70.9539 352.782 70.861 356.155C70.7513 357.841 70.7212 359.359 70.6765 360.699C70.6317 362.039 70.6048 363.195 70.5986 364.135C70.5924 365.076 70.568 365.766 70.5575 366.313C70.5471 366.564 70.523 366.814 70.4854 367.062C70.4417 366.815 70.4237 366.563 70.431 366.312C70.4206 365.763 70.4051 365.048 70.3769 364.135C70.3488 363.223 70.3444 362.064 70.3711 360.691C70.3979 359.318 70.4042 357.83 70.4825 356.141C70.5763 352.758 70.8674 348.752 71.2857 344.302C71.7039 339.853 72.3948 334.984 73.327 329.91C74.2593 324.836 75.4274 320.053 76.6243 315.737C77.2845 313.596 77.8511 311.549 78.5245 309.709C78.8475 308.766 79.1675 307.855 79.4627 306.983L80.4294 304.507C81.0154 302.917 81.6463 301.518 82.1977 300.286C82.4681 299.67 82.7232 299.104 82.9544 298.567C83.1855 298.03 83.4402 297.578 83.6605 297.154L84.6531 295.177C84.7645 294.952 84.9021 294.739 85.0625 294.543Z" fill="#263238"/>
<path d="M65.0945 367.49C64.9585 367.478 66.913 345.445 69.4489 318.255C71.9849 291.065 74.1904 269.056 74.295 269.066C74.3996 269.075 72.4766 291.11 69.9406 318.301C67.4046 345.491 65.2305 367.503 65.0945 367.49Z" fill="#263238"/>
<path d="M60.3961 370.985C60.3938 370.899 60.4021 370.813 60.4208 370.729C60.4395 370.534 60.4632 370.288 60.4311 369.964C60.446 369.263 60.477 368.283 60.5129 367.035C60.5935 364.447 60.715 360.777 60.8567 356.24C61.1432 347.135 61.4875 334.581 61.2575 320.651C61.1263 313.69 60.835 307.075 60.4436 301.062C60.226 298.064 60.0364 295.213 59.7558 292.539C59.4751 289.866 59.1967 287.389 58.9926 285.126C58.7886 282.864 58.4467 280.826 58.2077 279.035C57.9686 277.245 57.7487 275.694 57.5952 274.439C57.4418 273.184 57.2692 272.237 57.1576 271.534C57.1234 271.231 57.0844 270.979 57.0613 270.78C57.0538 270.694 57.0621 270.608 57.086 270.524C57.1215 270.605 57.1448 270.691 57.1564 270.779L57.2955 271.526C57.429 272.221 57.5997 273.188 57.8293 274.419C58.0589 275.65 58.3207 277.205 58.5797 279.008C58.8387 280.81 59.1711 282.837 59.4274 285.105C59.6838 287.372 60.026 289.845 60.2543 292.513C60.4826 295.182 60.7768 298.042 60.9935 301.051C61.4058 307.066 61.7066 313.692 61.8388 320.643C62.0698 334.563 61.6692 347.152 61.298 356.26C61.1115 360.824 60.9367 364.499 60.7963 367.051C60.6768 368.291 60.6666 369.273 60.6194 369.982C60.5897 370.289 60.5651 370.546 60.5463 370.74C60.5092 370.829 60.4581 370.911 60.3961 370.985Z" fill="#263238"/>
<path d="M72.9937 279.69C72.9867 276.587 70.0064 273.891 66.8084 273.564C63.5511 273.405 60.3994 274.722 58.2637 277.138C56.1747 279.54 54.5657 282.306 53.5201 285.292C50.657 292.442 48.7416 300.052 48.9301 307.732C49.1187 315.412 51.5368 323.175 56.5852 329.05C57.3999 330.015 58.5084 330.997 59.758 330.844C60.4384 330.715 61.0739 330.418 61.6037 329.98C73.5766 321.114 81.0561 307.612 82.1225 292.944C82.3163 290.056 82.2197 287.007 80.8295 284.458C79.4392 281.91 75.8681 278.994 73.0032 279.701" fill="#EB0808"/>
<path d="M51.5219 252.47L46.2533 260.049C46.1309 260.224 45.9742 260.426 45.7535 260.416C45.5329 260.406 45.3539 260.183 45.2471 259.977L35.0638 241.02L37.9516 239.746L51.5219 252.47Z" fill="#EB0808"/>
<path d="M51.5219 252.47L46.2533 260.049C46.1309 260.224 45.9742 260.426 45.7535 260.416C45.5329 260.406 45.3539 260.183 45.2471 259.977L35.0638 241.02L37.9516 239.746L51.5219 252.47Z" fill="black"/>
<path d="M74.2878 269.106L35.9429 241.866C35.4933 241.648 35.1505 241.263 34.9907 240.796C34.8901 240.197 35.3952 239.665 35.8666 239.264C42.0738 234.046 50.2895 231.73 58.3773 232.918C66.4749 234.248 73.385 239.401 76.8486 246.696C80.1001 253.915 79.3608 263.009 74.2356 269.101" fill="#EB0808"/>
<path d="M42.565 234.92C42.7432 234.889 42.9251 234.885 43.1045 234.908C43.4496 234.94 43.9806 234.907 44.6491 234.979C46.5364 235.129 48.4066 235.446 50.2354 235.93C52.9594 236.652 55.581 237.703 58.0389 239.062C66.6248 243.845 72.58 252.137 74.2765 261.67C74.6289 263.5 74.8034 265.358 74.7971 267.22C74.8185 267.874 74.7482 268.384 74.7356 268.735C74.7366 268.91 74.7198 269.085 74.6852 269.257C74.6852 269.257 74.6602 268.531 74.6212 267.183C74.5655 265.341 74.3571 263.506 73.9996 261.696C71.6744 249.456 62.4451 239.577 50.2067 236.227C48.4007 235.715 46.5545 235.346 44.6875 235.127C43.2534 235.005 42.5611 234.961 42.565 234.92Z" fill="#263238"/>
<path d="M70.3493 252.392C69.6569 252.722 68.9244 252.964 68.1693 253.111C66.8238 253.493 64.9215 253.958 62.8727 254.41C60.824 254.861 58.8937 255.179 57.5022 255.381C56.7595 255.531 56.0026 255.599 55.245 255.586C55.945 255.331 56.6698 255.148 57.4082 255.042L62.7289 253.931L68.043 252.779C68.7972 252.575 69.5695 252.446 70.3493 252.392Z" fill="#263238"/>
<path d="M65.5797 234.971C65.8028 236.456 65.821 237.964 65.6331 239.454C65.6088 240.955 65.3795 242.447 64.9524 243.889C64.8989 242.396 64.9648 240.902 65.151 239.419C65.1744 237.928 65.3178 236.44 65.5797 234.971Z" fill="#263238"/>
<path d="M35.6099 241.391C36.6009 241.052 37.6214 240.8 38.6585 240.639C40.5539 240.246 43.1954 239.777 46.1686 239.369C49.1419 238.962 51.7645 238.687 53.6372 238.53C54.6904 238.4 55.7538 238.359 56.8149 238.41C55.7921 238.631 54.7546 238.784 53.7102 238.867C51.7878 239.103 49.1343 239.478 46.2278 239.85C43.3213 240.223 40.6713 240.67 38.7325 240.966C37.7024 241.175 36.6597 241.318 35.6099 241.391Z" fill="#263238"/>
<path d="M55.2526 270.582C52.0087 267.666 48.3626 266.842 43.9667 266.57C39.5563 266.438 35.1608 267.115 31.0042 268.566C23.87 270.863 17.0189 274.604 12.3381 280.355C7.65732 286.106 5.44188 294.091 7.86277 301.057C8.03703 301.779 8.47524 302.412 9.09498 302.836C9.83543 303.115 10.6532 303.127 11.4026 302.874C19.4358 301.105 27.5128 299.318 35.0537 296.086C42.5946 292.854 49.634 288.035 54.1556 281.308C55.2983 279.746 56.1075 277.975 56.5362 276.099C56.9358 274.176 56.4709 272.178 55.2602 270.614" fill="#EB0808"/>
<path d="M55.3955 269.789C55.2114 269.87 55.0179 269.928 54.8193 269.963L53.1342 270.365L51.9156 270.635C51.4719 270.749 50.9938 270.891 50.4834 271.04C49.4626 271.339 48.3162 271.626 47.0161 272.085L45.0303 272.759C44.3321 272.994 43.6376 273.302 42.9021 273.596C41.4248 274.142 39.9182 274.882 38.306 275.622C31.4009 278.981 25.1146 283.442 19.7043 288.823C18.5268 290.09 17.305 291.269 16.3123 292.48C15.8013 293.074 15.2941 293.627 14.8384 294.195L13.6244 295.841C12.7865 296.87 12.1398 297.885 11.5288 298.749C11.2343 299.177 10.9428 299.574 10.695 299.954C10.4473 300.335 10.2453 300.678 10.0558 301.002L9.13554 302.447C9.04466 302.624 8.92971 302.787 8.79326 302.932C8.8629 302.747 8.95085 302.567 9.05582 302.398L9.8859 300.903C10.0754 300.58 10.2783 300.226 10.4957 299.832C10.713 299.439 11.015 299.043 11.3001 298.604C11.8921 297.718 12.5437 296.651 13.3378 295.638C13.7478 295.108 14.1608 294.546 14.5548 293.962C14.9488 293.378 15.5082 292.83 16.0098 292.225C16.994 290.992 18.1749 289.799 19.3857 288.514C22.1071 285.804 25.043 283.309 28.1679 281.054C31.3202 278.843 34.6506 276.887 38.1248 275.202C39.7475 274.463 41.274 273.735 42.7608 273.201C43.5057 272.918 44.2098 272.621 44.9517 272.369L46.966 271.728C48.2442 271.278 49.4304 271.015 50.4702 270.739C50.9891 270.611 51.4662 270.48 51.9193 270.377L53.1454 270.139L54.8531 269.831C55.0331 269.804 55.2139 269.789 55.3955 269.789Z" fill="#263238"/>
<path d="M26.7184 281.737C23.8369 282.518 20.916 283.148 17.9666 283.626C15.0458 284.267 12.0892 284.743 9.11181 285.051C11.9933 284.27 14.9142 283.639 17.8636 283.162C20.7859 282.527 23.7426 282.051 26.7184 281.737Z" fill="#263238"/>
<path d="M24.5966 300.031C24.5369 299.161 24.5568 298.287 24.6582 297.42C24.8123 295.821 25.0267 293.597 25.2618 291.158C25.4969 288.718 25.9204 286.513 26.2105 284.927C26.3153 284.059 26.5117 283.204 26.7942 282.375C26.7808 283.248 26.6968 284.119 26.5433 284.978C26.3116 286.725 26.0434 288.851 25.742 291.212C25.4406 293.573 25.1933 295.701 24.972 297.449C24.9273 298.319 24.8018 299.183 24.5966 300.031Z" fill="#263238"/>
<path d="M41.4351 293.543C41.2991 293.53 41.3039 288.991 41.4532 283.389C41.6025 277.788 41.8185 273.248 41.9545 273.26C42.0905 273.273 42.0762 277.801 41.9373 283.403C41.7985 289.006 41.5721 293.545 41.4351 293.543Z" fill="#263238"/>
<path d="M23.4287 271.102C24.3412 271.073 25.255 271.13 26.1564 271.271C27.8301 271.426 30.1464 271.702 32.7014 272.022C35.2563 272.341 37.5582 272.657 39.223 272.904C40.1309 273 41.0285 273.17 41.9076 273.411C40.9951 273.439 40.0814 273.383 39.18 273.242C37.5063 273.087 35.1889 272.821 32.635 272.491C30.081 272.162 27.7781 271.856 26.1029 271.608C25.198 271.513 24.3035 271.344 23.4287 271.102Z" fill="#263238"/>
<path d="M58.1216 331.344C58.093 331.159 58.089 330.97 58.1122 330.784C58.1507 330.385 58.2011 329.862 58.1891 329.22C58.2577 327.851 58.4359 325.892 58.7443 323.459C59.0526 321.027 59.4661 318.159 60.0672 314.988C60.6683 311.817 61.4883 308.346 62.5 304.748C63.5116 301.15 64.6585 297.792 65.7891 294.711C66.9198 291.631 68.0811 288.998 69.1213 286.746C70.1614 284.495 71.0227 282.786 71.733 281.549C72.0413 280.977 72.2816 280.565 72.4895 280.16C72.5698 279.995 72.6662 279.838 72.7775 279.691C72.737 279.87 72.6666 280.041 72.5702 280.199L71.8287 281.651C71.225 282.877 70.3922 284.62 69.4013 286.907C68.4105 289.194 67.307 291.884 66.1842 294.882C65.0615 297.881 63.9536 301.273 62.9324 304.86C61.9113 308.447 61.1217 311.932 60.4837 315.047C59.8457 318.163 59.3759 321.067 59.0591 323.478C58.7423 325.889 58.5003 327.852 58.3689 329.216C58.3077 329.851 58.2583 330.364 58.2188 330.774C58.2003 330.965 58.1672 331.156 58.1216 331.344Z" fill="#263238"/>
<path d="M62.8798 304.389C62.3435 304.982 61.7433 305.516 61.0905 305.982C59.9456 306.91 58.3174 308.145 56.4815 309.454C54.6457 310.763 52.9237 311.876 51.6557 312.658C51.0014 313.118 50.299 313.507 49.5597 313.819C50.1489 313.279 50.7888 312.794 51.4722 312.372L56.1918 309.065L60.8841 305.715C61.5045 305.212 62.1732 304.768 62.8798 304.389Z" fill="#263238"/>
<path d="M74.7564 315.716C74.1911 314.923 73.6889 314.089 73.2556 313.219L69.8023 307.109L66.249 301.051C65.7143 300.237 65.2424 299.384 64.8379 298.5C65.4816 299.235 66.052 300.03 66.5408 300.871C67.5352 302.38 68.8519 304.487 70.1837 306.875C71.5155 309.263 72.7187 311.453 73.5244 313.058C74.0191 313.904 74.4315 314.794 74.7564 315.716Z" fill="#263238"/>
<path d="M71.0935 283.185C71.1559 283.305 66.6268 285.73 60.9574 288.597C55.2881 291.464 50.6502 293.703 50.5879 293.584C50.5255 293.464 55.0546 291.039 60.7344 288.173C66.4143 285.307 71.0407 283.077 71.0935 283.185Z" fill="#263238"/>
<path d="M81.9599 297.065C79.8828 295.018 77.9173 292.865 76.0697 290.615C74.1027 288.478 72.2576 286.236 70.543 283.899C72.6289 285.942 74.5986 288.096 76.4436 290.35C78.4122 292.482 80.2541 294.724 81.9599 297.065Z" fill="#263238"/>
<path d="M101.765 372.538C101.752 372.671 86.3966 371.354 67.4734 369.603C48.5502 367.852 33.2144 366.329 33.2273 366.196C33.2401 366.063 48.5957 367.38 67.5189 369.131C86.4421 370.882 101.778 372.405 101.765 372.538Z" fill="#455A64"/>
<path d="M32.6621 359.372H101.274V368.607H32.6621V359.372Z" fill="#263238"/>
<path d="M101.39 368.73H32.5469V359.258H101.39V368.73ZM32.778 368.493H101.158V359.485H32.778V368.493Z" fill="#263238"/>
<path d="M39.0273 365.539L48.8935 413.278H85.4373L94.9883 368.617L39.0273 365.539Z" fill="#263238"/>
<path d="M39.0273 408.759L44.2914 415.863H88.705L94.9883 408.759H39.0273Z" fill="#455A64"/>
<path d="M90.6722 388.003C90.6722 388.137 80.2806 388.25 67.4724 388.25C54.6642 388.25 44.2832 388.137 44.2832 388.003C44.2832 387.869 54.6642 387.766 67.4724 387.766C80.2806 387.766 90.6722 387.921 90.6722 388.003Z" fill="#455A64"/>
<path d="M91.0737 390.783C91.0737 390.917 80.6927 391.019 67.8845 391.019C55.0763 391.019 44.6953 390.917 44.6953 390.783C44.6953 390.649 55.0763 390.546 67.8845 390.546C80.6927 390.546 91.0737 390.649 91.0737 390.783Z" fill="#455A64"/>
<path d="M91.0712 385.718C91.0712 385.851 80.3329 385.954 67.0835 385.954C53.834 385.954 43.0957 385.851 43.0957 385.718C43.0957 385.584 53.834 385.481 67.0835 385.481C80.3329 385.481 91.0712 385.584 91.0712 385.718Z" fill="#455A64"/>
<path d="M24.5195 19.9521H120.912V156.86H24.5195V19.9521Z" fill="#E0E0E0"/>
<path d="M19.6875 19.9519H116.08V156.86H19.6875V19.9519Z" fill="#F5F5F5"/>
<path d="M31.6641 34.7776H104.111V142.025H31.6641V34.7776Z" fill="white"/>
<path d="M104.111 142.035C104.111 142.035 104.111 141.85 104.111 141.51C104.111 141.17 104.111 140.645 104.111 139.986C104.111 138.638 104.111 136.661 104.111 134.108C104.111 128.96 104.111 121.475 104.038 112.014C104.038 93.101 103.975 66.3124 103.922 34.7981L104.164 35.0349H31.7279L31.9906 34.7775C31.9906 75.2385 31.9906 112.539 31.9906 142.035L31.7805 141.829L84.5157 141.932L99.0786 141.984H102.903H104.227H102.945H99.1626H84.6418L31.7805 142.087H31.5703V141.881C31.5703 112.384 31.5703 75.084 31.5703 34.6231V34.3657H31.8435H104.28H104.521V34.7878C104.521 66.3947 104.427 93.2246 104.406 112.178C104.406 121.619 104.353 129.083 104.332 134.211C104.332 136.754 104.332 138.71 104.332 140.048C104.332 140.697 104.332 141.201 104.332 141.541C104.332 141.881 104.111 142.035 104.111 142.035Z" fill="#E0E0E0"/>
<path d="M116.363 19.9521C115.865 20.8273 115.288 21.6581 114.64 22.4333C113.526 23.8953 111.929 25.8926 110.122 28.0546C108.314 30.2167 106.612 32.1213 105.351 33.4803C104.718 34.2484 104.015 34.9577 103.25 35.6012C103.794 34.7662 104.409 33.9776 105.089 33.2435L109.733 27.7252L114.356 22.176C114.959 21.3801 115.631 20.6368 116.363 19.9521Z" fill="#E0E0E0"/>
<path d="M104.479 141.685C108.076 147.281 112.305 152.461 117.087 157.128L104.479 141.685Z" fill="white"/>
<path d="M117.121 157.169C116.313 156.597 115.573 155.937 114.915 155.203C113.235 153.53 111.643 151.774 110.145 149.942C108.4 147.79 106.94 145.741 105.942 144.228C105.368 143.429 104.875 142.578 104.471 141.685C105.12 142.42 105.714 143.202 106.246 144.022C107.297 145.484 108.81 147.481 110.544 149.613C112.278 151.744 113.959 153.617 115.177 154.956C115.878 155.647 116.529 156.387 117.121 157.169Z" fill="#E0E0E0"/>
<path d="M19.6777 156.747L32.2863 141.49L19.6777 156.747Z" fill="white"/>
<path d="M32.3073 141.49C30.4055 144.188 28.364 146.789 26.1921 149.283C24.159 151.884 21.9851 154.376 19.6777 156.747C21.5795 154.049 23.621 151.448 25.7929 148.954C27.826 146.353 29.9999 143.861 32.3073 141.49Z" fill="#E0E0E0"/>
<path d="M19.6875 19.9519C21.8656 22.2426 23.9145 24.6487 25.8237 27.1587C27.8684 29.5555 29.7765 32.0614 31.5395 34.664C29.3656 32.3733 27.3199 29.9673 25.4139 27.4573C23.3661 25.0605 21.4548 22.5546 19.6875 19.9519Z" fill="#E0E0E0"/>
<path d="M57.2793 56.5525H81.5403V124.039H57.2793V56.5525Z" fill="#E0E0E0"/>
<path d="M250.876 0V59.9604H162.995L159.832 0.4221L250.876 0Z" fill="#E0E0E0"/>
<path d="M159.824 59.8264V0.421875H247.706V59.8264H159.824Z" fill="white"/>
<path d="M248.126 60.2386H159.414V0.010498H248.126V60.2386ZM160.255 59.4253H247.296V0.813538H160.255V59.4253Z" fill="#E0E0E0"/>
<path d="M169.35 7.80371H238.192V52.4446H169.35V7.80371Z" fill="white"/>
<path d="M238.195 7.804H236.871H233.089H218.904L169.353 8.02021L169.552 7.82459C169.552 21.466 169.552 36.5797 169.552 52.4655L169.342 52.2596H238.185L238.006 52.4243C238.006 38.8447 238.08 27.7153 238.101 19.9423C238.101 16.0712 238.101 13.0444 238.101 10.9647C238.101 9.93515 238.101 9.15271 238.101 8.60705C238.101 8.06138 238.101 7.78342 238.101 7.78342C238.101 7.78342 238.101 8.0408 238.101 8.56586C238.101 9.09092 238.101 9.88367 238.101 10.8926C238.101 12.9517 238.101 15.9786 238.153 19.8393C238.153 27.6227 238.206 38.8035 238.237 52.4243V52.5993H238.069H169.227H169.006V52.3831C169.006 36.4973 169.006 21.3836 169.006 7.74223V7.6084H169.205L218.894 7.70105L233.036 7.76282H236.777H238.048L238.195 7.804Z" fill="#E0E0E0"/>
<path d="M247.713 0.421875C246.268 1.81486 244.722 3.10486 243.09 4.28265C241.544 5.56752 239.908 6.74429 238.193 7.80368C239.638 6.41071 241.184 5.12071 242.816 3.9429C244.36 2.65495 245.996 1.47818 247.713 0.421875Z" fill="#E0E0E0"/>
<path d="M247.643 59.837L237.84 52.0537L247.643 59.837Z" fill="white"/>
<path d="M237.84 52.0537C239.603 53.1862 241.287 54.4309 242.883 55.7806C244.561 57.0264 246.151 58.3823 247.643 59.837C245.879 58.7107 244.197 57.466 242.61 56.1101C240.925 54.8695 239.331 53.5136 237.84 52.0537Z" fill="#E0E0E0"/>
<path d="M183.32 36.6618V21.7129H226.641V36.6618H183.32Z" fill="#E0E0E0"/>
</svg>
