<svg width="29" height="28" viewBox="0 0 29 28" fill="none" xmlns="http://www.w3.org/2000/svg">
<path d="M9.61544 9.62178L10.3956 9.50804L10.7443 8.80097L14.2815 1.62903C14.3108 1.56983 14.3415 1.54482 14.3656 1.53063C14.3951 1.51319 14.4374 1.49983 14.4884 1.5C14.5396 1.50017 14.5843 1.51396 14.6169 1.53331C14.6442 1.54951 14.6745 1.5757 14.7018 1.63043C14.7019 1.63069 14.702 1.63096 14.7022 1.63123L18.2383 8.80097L18.587 9.50804L19.3672 9.62178L27.2818 10.7757L27.2829 10.7758C27.3448 10.7848 27.3779 10.8055 27.4 10.825C27.4269 10.8486 27.4533 10.8858 27.4692 10.9347C27.485 10.9835 27.4855 11.0292 27.4776 11.0644C27.4711 11.0934 27.4562 11.1302 27.4107 11.1745L27.4103 11.1749L21.6842 16.7547L21.1191 17.3054L21.2527 18.083L22.6068 25.9642C22.6068 25.9643 22.6069 25.9643 22.6069 25.9644C22.6179 26.0291 22.6077 26.0668 22.5968 26.0918C22.5833 26.1229 22.557 26.1585 22.5154 26.1884C22.4735 26.2185 22.429 26.2336 22.3915 26.2371C22.36 26.24 22.3216 26.2364 22.2699 26.2092L22.2696 26.2091L15.1892 22.4874L14.4913 22.1205L13.7934 22.4874L6.71298 26.2091L6.70827 26.2116C6.65696 26.2388 6.61979 26.242 6.58992 26.2392C6.55387 26.236 6.51012 26.2213 6.46833 26.1912C6.42672 26.1613 6.4 26.1252 6.38612 26.0933C6.37487 26.0674 6.36475 26.0292 6.37569 25.9647C6.37572 25.9645 6.37575 25.9643 6.37578 25.9642L7.72993 18.083L7.86354 17.3054L7.29844 16.7547L1.57235 11.1749L1.57193 11.1745C1.52643 11.1302 1.51155 11.0934 1.50502 11.0644C1.49712 11.0292 1.4976 10.9835 1.51346 10.9347C1.52932 10.8858 1.55574 10.8486 1.58259 10.825C1.60472 10.8055 1.63783 10.7848 1.69967 10.7758L1.70076 10.7757L9.61544 9.62178Z" stroke="#252525" stroke-width="3"/>
</svg>
